<svg width="58" height="70" viewBox="0 0 58 70" fill="none" xmlns="http://www.w3.org/2000/svg">
<g clip-path="url(#clip0_1062_4169)">
<path d="M28.8058 20.4901C28.8058 20.4901 51.3295 20.2296 56.0685 35.1562C56.0685 35.1562 61.3877 52.7173 51.138 67.0013C51.138 67.0013 42.9012 78.3439 28.9044 78.0023H29.0958C14.9308 78.176 6.86222 67.0013 6.86222 67.0013C-3.3874 52.7173 1.93173 35.1562 1.93173 35.1562C6.23576 19.7953 29.1945 20.4901 29.1945 20.4901" fill="#FFD200"/>
<path d="M29.5077 78.5873C29.3221 78.5873 29.1423 78.5873 28.9567 78.5815C28.8987 78.5815 28.8349 78.5815 28.7769 78.5815C14.6756 78.5815 6.47363 67.4531 6.39242 67.3373C-3.90941 52.9897 1.32271 35.168 1.37491 34.9885C5.74855 19.3845 28.9741 19.8998 29.2119 19.9114C32.3268 19.9808 52.1706 20.9536 56.6254 34.9828C56.6835 35.168 61.9098 52.9897 51.6137 67.3373C51.5267 67.4531 43.2783 78.5873 29.5135 78.5873H29.5077ZM29.0959 77.4293C29.2351 77.4293 29.3743 77.4293 29.5077 77.4293C42.675 77.4293 50.587 66.7699 50.6682 66.6599C60.6336 52.7755 55.5639 35.4981 55.5117 35.3244C50.9583 20.9767 29.0321 21.0752 28.8117 21.0694C25.894 21.0694 6.32861 21.6136 2.48863 35.3128C2.43062 35.4981 -2.62168 52.787 7.33211 66.6657C7.40752 66.7699 15.2789 77.4293 28.7769 77.4293C28.8175 77.4293 28.8639 77.4293 28.9045 77.4293H29.0959Z" fill="black"/>
<path d="M17.9296 32.9865C17.8716 32.9865 17.8078 32.9808 17.7498 32.9634C17.3612 32.865 17.1291 32.4712 17.2277 32.0891C17.5584 30.7863 19.0375 28.3082 22.2685 28.2619C22.3845 28.2561 25.4356 28.0824 27.3092 30.2479C28.1618 28.8756 30.0238 26.8665 33.6086 26.9591C33.742 26.9591 36.8163 27.0981 38.8407 29.5936C39.0901 29.9063 39.0437 30.3579 38.7305 30.6126C38.4173 30.8616 37.9648 30.8153 37.7096 30.5026C36.097 28.5167 33.5854 28.4066 33.5622 28.4066C29.3336 28.2735 28.1386 31.7591 28.0922 31.9096C27.9994 32.1875 27.75 32.3902 27.4542 32.4075C27.1641 32.4307 26.8799 32.2686 26.7523 32.008C25.54 29.5473 22.4541 29.6978 22.3265 29.7094C19.3798 29.7499 18.6605 32.3381 18.6315 32.4481C18.5445 32.7723 18.2487 32.9865 17.9296 32.9865Z" fill="black"/>
<path d="M27.4542 59.1444C19.4784 59.1444 16.9203 54.0955 16.8101 53.8697C16.6361 53.5107 16.7869 53.0764 17.1466 52.9027C17.5062 52.729 17.9412 52.8796 18.1152 53.2328C18.2139 53.4296 20.5747 58.0095 28.2779 57.6795C28.3997 57.6853 35.8766 57.8011 39.6122 52.4395C39.8384 52.1095 40.2909 52.0284 40.6215 52.26C40.9521 52.4858 41.0333 52.9375 40.8013 53.2675C36.6133 59.2833 28.6259 59.1386 28.2895 59.127C28.0052 59.1386 27.7268 59.1444 27.46 59.1444H27.4542Z" fill="black"/>
<path d="M42.1699 65.0047C42.0539 65.0047 41.9379 64.9931 41.8277 64.9757C40.946 64.8136 40.6038 64.0956 40.569 64.0146C39.9309 62.5555 42.0075 61.2875 42.2512 61.1427C44.2175 59.8516 44.3046 55.538 44.1711 53.9863C44.1421 53.6678 44.38 53.3841 44.699 53.361C45.0238 53.3378 45.2965 53.5694 45.3255 53.8879C45.3487 54.1426 45.8417 60.17 42.866 62.127C42.2396 62.4976 41.4855 63.204 41.6363 63.5456C41.6421 63.5572 41.7697 63.7888 42.0597 63.8351C42.3092 63.8756 43.0226 63.8235 44.3452 62.5034C44.5714 62.2776 44.9368 62.2776 45.163 62.5034C45.3893 62.7292 45.3893 63.094 45.163 63.3198C44.0435 64.4373 43.04 64.9989 42.1757 64.9989L42.1699 65.0047Z" fill="black"/>
<path d="M44.4559 66.8567C43.754 66.8567 43.3132 66.4688 43.2552 66.4167C41.9791 65.0329 43.8816 62.9253 44.1021 62.6937C44.3225 62.4621 44.6879 62.4505 44.92 62.6648C45.152 62.879 45.1636 63.2496 44.949 63.4812C44.4617 64.0023 43.7192 65.1313 44.0557 65.5714C44.1195 65.6177 44.3167 65.7335 44.5951 65.6814C44.8909 65.6293 45.5 65.3398 46.2483 64.0196C46.4049 63.7417 46.7587 63.6433 47.0372 63.7996C47.3156 63.9559 47.4142 64.3091 47.2576 64.5871C46.4977 65.9361 45.6566 66.6888 44.7575 66.8278C44.6531 66.8452 44.5545 66.851 44.4559 66.851V66.8567Z" fill="black"/>
<path d="M46.8106 68.0507H46.799C46.1029 68.0507 45.6852 67.5991 45.6388 67.547C44.5135 66.3368 46.0739 64.2466 46.2595 64.015C46.4567 63.7603 46.8222 63.7198 47.0716 63.9108C47.3268 64.1077 47.3732 64.4725 47.176 64.7214C46.7699 65.2483 46.1493 66.3889 46.5031 66.7653C46.5031 66.7653 46.6307 66.8985 46.8222 66.8927C47.0368 66.8927 47.3094 66.719 47.5878 66.4121C47.6052 66.3889 51.1842 61.9306 51.219 54.5194C51.219 54.201 51.48 53.9404 51.7991 53.9404C52.1181 53.9404 52.3791 54.201 52.3791 54.5194C52.3443 62.3649 48.6203 66.968 48.4637 67.1648C47.9243 67.7554 47.379 68.0449 46.8106 68.0449V68.0507Z" fill="black"/>
<path d="M15.4294 65.3639C14.5651 65.3639 13.5616 64.8022 12.4421 63.6848C12.2158 63.459 12.2158 63.0942 12.4421 62.8684C12.6683 62.6426 13.0337 62.6426 13.2599 62.8684C14.5825 64.1885 15.2959 64.2406 15.5454 64.2001C15.8412 64.1538 15.963 63.9222 15.9746 63.8932C16.1196 63.5632 15.3656 62.8568 14.7623 62.5036C11.7576 60.5292 12.2564 54.5076 12.2738 54.2471C12.3028 53.9286 12.5813 53.6912 12.9003 53.7202C13.2193 53.7491 13.4572 54.027 13.4282 54.3455C13.2947 55.8972 13.376 60.205 15.3714 61.5135C15.586 61.6409 17.6684 62.9089 17.0303 64.3622C16.9955 64.4491 16.6475 65.1612 15.7716 65.3233C15.6614 65.3465 15.5454 65.3523 15.4294 65.3523V65.3639Z" fill="black"/>
<path d="M13.1442 67.2215C13.0514 67.2215 12.9469 67.2157 12.8425 67.1983C11.9434 67.0594 11.1024 66.3009 10.3425 64.9576C10.1859 64.6797 10.2845 64.3265 10.5629 64.1702C10.8413 64.0138 11.1952 64.1123 11.3518 64.3902C12.1001 65.7103 12.7091 65.9998 13.005 66.0519C13.2834 66.104 13.4864 65.9824 13.5444 65.9419C13.8808 65.5019 13.1384 64.367 12.6511 63.8517C12.4307 63.6201 12.4423 63.2496 12.6801 63.0353C12.9121 62.8153 13.2834 62.8269 13.498 63.0643C13.7184 63.3017 15.621 65.4092 14.3797 66.7583C14.2985 66.8394 13.8518 67.2273 13.15 67.2273L13.1442 67.2215Z" fill="black"/>
<path d="M10.7893 68.4082C10.2267 68.4082 9.67561 68.1187 9.15936 67.5513C8.97954 67.3371 5.26137 62.7282 5.22656 54.8886C5.22656 54.5701 5.48179 54.3096 5.80662 54.3096C6.12565 54.3096 6.38668 54.5643 6.38668 54.8886C6.42148 62.3229 10.0004 66.7581 10.0352 66.8044C10.2963 67.0939 10.5747 67.2618 10.7893 67.2618C10.9633 67.2618 11.0851 67.146 11.0851 67.146C11.4448 66.7639 10.8183 65.6001 10.4181 65.0906C10.2209 64.8358 10.2673 64.4768 10.5225 64.28C10.7777 64.0831 11.1374 64.1294 11.3346 64.3842C11.5144 64.6158 13.0805 66.706 11.9436 67.9277C11.9088 67.9682 11.4854 68.4198 10.7951 68.4256H10.7835L10.7893 68.4082Z" fill="black"/>
<path d="M28.6376 25.0596C35.8883 25.0596 43.2841 27.5956 43.2841 27.5956C53.2901 30.1317 54.1602 25.2796 54.1602 25.2796C55.2507 21.9504 48.725 19.2001 48.725 19.2001C42.9998 16.8841 40.4592 7.40008 40.4592 7.40008C38.1332 -0.202198 28.3302 0.295743 28.3302 0.295743H28.9392C28.9392 0.295743 19.6467 -0.202198 17.3265 7.40008C17.3265 7.40008 14.7858 16.8841 9.06065 19.2001C9.06065 19.2001 2.535 21.9504 3.6197 25.2796C3.6197 25.2796 4.48979 30.1317 14.4958 27.5956C14.4958 27.5956 21.8915 25.0596 29.1423 25.0596H28.6318H28.6376Z" fill="black"/>
<path d="M48.4117 28.62C46.9152 28.62 45.175 28.371 43.2086 27.8731C43.1158 27.8442 35.9231 25.4066 28.887 25.3487C21.8451 25.4066 14.6639 27.8384 14.5885 27.8673C10.2613 28.9616 7.05939 28.8632 5.05239 27.5662C3.57904 26.6225 3.34702 25.3776 3.33542 25.3255C2.1869 21.8225 8.67195 19.0433 8.94458 18.9275C14.4783 16.6926 17.019 7.417 17.0422 7.32436C19.0608 0.729541 26.2245 0.0579001 28.3533 0C28.4055 0 28.5099 0 28.6607 0C28.7188 0 28.771 0 28.8116 0C30.8592 0.02895 38.6784 0.584791 40.7318 7.31278C40.7608 7.417 43.3014 16.6926 48.8294 18.9275C49.1078 19.0433 55.5928 21.8225 54.4327 25.366C54.4327 25.3776 54.1949 26.6225 52.7274 27.5662C51.6368 28.2668 50.1925 28.62 48.4175 28.62H48.4117ZM29.1422 24.7755C36.1957 24.8913 43.3014 27.2941 43.3768 27.3231C48.4929 28.62 51.1032 27.9136 52.3909 27.0972C53.6554 26.2924 53.8643 25.2676 53.8701 25.2271C54.8736 22.1526 48.6669 19.495 48.6031 19.466C42.8142 17.1268 40.2735 7.86862 40.1691 7.4749C38.2665 1.25064 31.0564 0.631111 28.9334 0.584791H28.3243C26.2709 0.636901 19.49 1.29117 17.5932 7.48648C17.4888 7.86862 14.954 17.1268 9.1592 19.466C9.10119 19.4892 2.89457 22.1468 3.88647 25.1865C3.90387 25.2676 4.11269 26.2866 5.37722 27.0915C6.66495 27.9078 9.27521 28.6084 14.4145 27.3115C14.4667 27.2941 21.5724 24.8855 28.6259 24.7755H29.1364H29.1422Z" fill="black"/>
<path d="M33.7652 48.156C37.4877 48.156 40.5055 44.7938 40.5055 40.6464C40.5055 36.4989 37.4877 33.1367 33.7652 33.1367C30.0426 33.1367 27.0249 36.4989 27.0249 40.6464C27.0249 44.7938 30.0426 48.156 33.7652 48.156Z" fill="white"/>
<path d="M33.7652 48.7408C29.728 48.7408 26.4448 45.1104 26.4448 40.6521C26.4448 36.1938 29.728 32.5635 33.7652 32.5635C37.8024 32.5635 41.0855 36.1938 41.0855 40.6521C41.0855 45.1104 37.8024 48.7408 33.7652 48.7408ZM33.7652 33.7157C30.366 33.7157 27.6049 36.8249 27.6049 40.6463C27.6049 44.4677 30.3718 47.577 33.7652 47.577C37.1585 47.577 39.9254 44.4677 39.9254 40.6463C39.9254 36.8249 37.1585 33.7157 33.7652 33.7157Z" fill="black"/>
<path d="M37.1062 45.5725C39.0892 45.5725 40.6967 43.2784 40.6967 40.4484C40.6967 37.6184 39.0892 35.3242 37.1062 35.3242C35.1232 35.3242 33.5156 37.6184 33.5156 40.4484C33.5156 43.2784 35.1232 45.5725 37.1062 45.5725Z" fill="black"/>
<path d="M22.9295 47.9415C26.383 47.9415 29.1826 44.823 29.1826 40.9761C29.1826 37.1292 26.383 34.0107 22.9295 34.0107C19.4761 34.0107 16.6765 37.1292 16.6765 40.9761C16.6765 44.823 19.4761 47.9415 22.9295 47.9415Z" fill="white"/>
<path d="M22.9293 48.5204C19.1647 48.5204 16.0962 45.139 16.0962 40.976C16.0962 36.813 19.1589 33.4316 22.9293 33.4316C26.6997 33.4316 29.7624 36.813 29.7624 40.976C29.7624 45.139 26.6997 48.5204 22.9293 48.5204ZM22.9293 34.5954C19.8028 34.5954 17.2563 37.4615 17.2563 40.9818C17.2563 44.5021 19.8028 47.3682 22.9293 47.3682C26.0558 47.3682 28.6022 44.5021 28.6022 40.9818C28.6022 37.4615 26.0558 34.5954 22.9293 34.5954Z" fill="black"/>
<path d="M25.8416 46.042C27.7829 46.042 29.3567 43.7971 29.3567 41.0278C29.3567 38.2586 27.7829 36.0137 25.8416 36.0137C23.9002 36.0137 22.3264 38.2586 22.3264 41.0278C22.3264 43.7971 23.9002 46.042 25.8416 46.042Z" fill="black"/>
<path d="M27.9358 55.5548C31.0721 55.5548 33.6146 53.3488 33.6146 50.6275C33.6146 47.9062 31.0721 45.7002 27.9358 45.7002C24.7996 45.7002 22.2571 47.9062 22.2571 50.6275C22.2571 53.3488 24.7996 55.5548 27.9358 55.5548Z" fill="#F5333F"/>
<path d="M27.9356 56.1279C24.4842 56.1279 21.6768 53.6614 21.6768 50.6274C21.6768 47.5934 24.4842 45.1211 27.9356 45.1211C31.3869 45.1211 34.1944 47.5876 34.1944 50.6274C34.1944 53.6671 31.3869 56.1279 27.9356 56.1279ZM27.9356 46.2791C25.1223 46.2791 22.8369 48.2303 22.8369 50.6274C22.8369 53.0245 25.1223 54.9699 27.9356 54.9699C30.7489 54.9699 33.0343 53.0187 33.0343 50.6274C33.0343 48.2361 30.7489 46.2791 27.9356 46.2791Z" fill="black"/>
<path d="M28.4404 13.8319C30.9136 13.8319 32.9185 12.0225 32.9185 9.79045C32.9185 7.55843 30.9136 5.74902 28.4404 5.74902C25.9673 5.74902 23.9624 7.55843 23.9624 9.79045C23.9624 12.0225 25.9673 13.8319 28.4404 13.8319Z" fill="#BBBBBB"/>
<path d="M28.539 11.9209H28.1329C27.0758 11.9209 26.2188 12.7763 26.2188 13.8316V13.8953C26.2188 14.9505 27.0758 15.806 28.1329 15.806H28.539C29.5962 15.806 30.4532 14.9505 30.4532 13.8953V13.8316C30.4532 12.7763 29.5962 11.9209 28.539 11.9209Z" fill="#BBBBBB"/>
<path d="M27.0829 8.62695H27.0597C26.749 8.62695 26.4971 8.8784 26.4971 9.18858V10.3176C26.4971 10.6278 26.749 10.8793 27.0597 10.8793H27.0829C27.3937 10.8793 27.6456 10.6278 27.6456 10.3176V9.18858C27.6456 8.8784 27.3937 8.62695 27.0829 8.62695Z" fill="black"/>
<path d="M27.0657 10.9079C26.7351 10.9079 26.4683 10.6416 26.4683 10.3116V9.19989C26.4683 8.86986 26.7351 8.60352 27.0657 8.60352C27.3964 8.60352 27.6632 8.86986 27.6632 9.19989V10.3116C27.6632 10.6416 27.3964 10.9079 27.0657 10.9079ZM27.0657 8.65563C26.7641 8.65563 26.5205 8.89881 26.5205 9.19989V10.3116C26.5205 10.6126 26.7641 10.8558 27.0657 10.8558C27.3674 10.8558 27.611 10.6126 27.611 10.3116V9.19989C27.611 8.89881 27.3674 8.65563 27.0657 8.65563Z" fill="#221714"/>
<path d="M29.5483 8.62695H29.5251C29.2143 8.62695 28.9624 8.8784 28.9624 9.18858V10.3176C28.9624 10.6278 29.2143 10.8793 29.5251 10.8793H29.5483C29.859 10.8793 30.1109 10.6278 30.1109 10.3176V9.18858C30.1109 8.8784 29.859 8.62695 29.5483 8.62695Z" fill="black"/>
<path d="M29.5306 10.9079C29.1999 10.9079 28.9331 10.6416 28.9331 10.3116V9.19989C28.9331 8.86986 29.1999 8.60352 29.5306 8.60352C29.8612 8.60352 30.128 8.86986 30.128 9.19989V10.3116C30.128 10.6416 29.8612 10.9079 29.5306 10.9079ZM29.5306 8.65563C29.2289 8.65563 28.9853 8.89881 28.9853 9.19989V10.3116C28.9853 10.6126 29.2289 10.8558 29.5306 10.8558C29.8322 10.8558 30.0758 10.6126 30.0758 10.3116V9.19989C30.0758 8.89881 29.8322 8.65563 29.5306 8.65563Z" fill="#221714"/>
<path d="M34.0146 20.363C33.945 20.363 33.8754 20.3515 33.8116 20.3283L22.2452 16.3216C21.9204 16.2058 21.7464 15.8526 21.8566 15.5284C21.9726 15.2041 22.3264 15.0304 22.6513 15.1405L34.2176 19.1471C34.5425 19.2629 34.7165 19.6161 34.6063 19.9404C34.5193 20.2009 34.2756 20.3573 34.0146 20.3573V20.363Z" fill="#BBBBBB"/>
<path d="M22.3786 19.9698C22.106 19.9698 21.8508 19.7845 21.7754 19.5123C21.6826 19.1823 21.8798 18.8349 22.2162 18.7481L34.0262 15.5346C34.3568 15.442 34.7049 15.6388 34.7919 15.9747C34.8847 16.3047 34.6875 16.6521 34.351 16.7389L22.5411 19.9524C22.4888 19.9698 22.4308 19.9755 22.3786 19.9755V19.9698Z" fill="#BBBBBB"/>
</g>
<defs>
<clipPath id="clip0_1062_4169">
<rect width="58" height="70" fill="white"/>
</clipPath>
</defs>
</svg>
