<svg width="68" height="69" viewBox="0 0 68 69" fill="none" xmlns="http://www.w3.org/2000/svg">
<g clip-path="url(#clip0_1062_4473)">
<path d="M26.2317 59.8098C26.2317 59.8098 19.7864 65.9808 12.2159 67.3296C12.2159 67.3296 9.93354 67.8273 10.18 68.8014C10.18 68.8014 10.105 69.904 12.2588 69.4116C12.2588 69.4116 10.2336 69.9093 10.5497 70.7603C10.8658 71.6113 12.6928 71.044 12.6928 71.044C12.6928 71.044 11.1872 72.002 11.5676 72.7246C11.948 73.4471 13.2553 73.1313 13.2553 73.1313C13.2553 73.1313 22.851 70.8941 27.7961 65.0924V59.1729L26.2263 59.8044L26.2317 59.8098Z" fill="#FAC3C1"/>
<path d="M12.6445 73.6884C12.1248 73.6884 11.4658 73.5546 11.1443 72.9551C10.9086 72.5162 11.0372 72.0827 11.2836 71.7027C10.7746 71.6545 10.2924 71.4619 10.0942 70.932C9.99241 70.659 10.0138 70.3754 10.1478 70.1131C10.2014 70.0114 10.271 69.9204 10.3514 69.8348C10.2549 69.7866 10.1746 69.7331 10.0942 69.6635C9.80489 69.4173 9.7031 69.0908 9.69238 68.8553C9.6388 68.5877 9.69238 68.3148 9.8424 68.0739C10.3353 67.2765 11.814 66.9179 12.1087 66.859C19.4648 65.5477 25.8244 59.5211 25.8887 59.4623C25.9316 59.4195 25.9852 59.3873 26.0441 59.3606L27.6139 58.729C27.7639 58.6702 27.9354 58.6862 28.0693 58.7772C28.2033 58.8682 28.2836 59.018 28.2836 59.1786V65.0981C28.2836 65.2159 28.2461 65.3229 28.1711 65.4139C23.1777 71.2692 13.7696 73.5171 13.3731 73.6081C13.3035 73.6241 13.0088 73.6884 12.6445 73.6884ZM12.6981 70.5573C12.8802 70.5573 13.057 70.6644 13.1374 70.841C13.2392 71.0604 13.1642 71.3227 12.9606 71.4565C12.3927 71.8205 11.9319 72.361 12.0016 72.5002C12.1462 72.7731 12.8213 72.741 13.1481 72.6661C13.2445 72.6447 22.4973 70.4289 27.3139 64.9215V59.9012L26.4995 60.233C25.7441 60.9395 19.5988 66.5164 12.3069 67.817C11.7819 67.9348 10.8871 68.2613 10.6782 68.5931C10.6461 68.6466 10.6514 68.6734 10.6568 68.6948C10.6675 68.743 10.6728 68.7965 10.6728 68.85C10.6728 68.85 10.6836 68.9035 10.7478 68.9463C10.8282 69.0052 11.155 69.1818 12.1569 68.9463C12.4141 68.8875 12.6766 69.048 12.7409 69.3049C12.8052 69.5618 12.6445 69.8241 12.3873 69.8883C11.6854 70.0649 11.0479 70.4182 11.0157 70.5895C11.1015 70.825 11.9373 70.7821 12.5641 70.5895C12.6123 70.5734 12.6605 70.5681 12.7088 70.5681L12.6981 70.5573Z" fill="black"/>
<path d="M41.6186 59.9762C41.6186 59.9762 47.93 66.2864 55.4629 67.8011C55.4629 67.8011 57.7346 68.347 57.4667 69.3211C57.4667 69.3211 57.5203 70.429 55.3772 69.8831C55.3772 69.8831 57.3917 70.4236 57.0541 71.2693C56.722 72.1096 54.9057 71.5048 54.9057 71.5048C54.9057 71.5048 56.3898 72.4949 55.9933 73.2068C55.5968 73.9186 54.2949 73.5761 54.2949 73.5761C54.2949 73.5761 44.7528 71.1301 39.9309 65.2267L40.0595 59.3125L41.6132 59.9815L41.6186 59.9762Z" fill="#FAC3C1"/>
<path d="M54.9649 74.1435C54.5738 74.1435 54.2416 74.0632 54.172 74.0471C53.7809 73.9454 44.4209 71.4941 39.5561 65.5318C39.4811 65.4408 39.4436 65.3284 39.449 65.216L39.5776 59.3019C39.5776 59.1413 39.6633 58.9915 39.8026 58.9058C39.9365 58.8202 40.108 58.8041 40.258 58.8684L41.8117 59.5374C41.8707 59.5641 41.9189 59.5962 41.9618 59.6391C42.026 59.7033 48.2624 65.8637 55.5596 67.3301C55.865 67.4051 57.3384 67.7904 57.8152 68.5986C57.9599 68.8448 58.0081 69.1178 57.9491 69.3854C57.9331 69.6209 57.8206 69.9474 57.5312 70.1829C57.4509 70.2471 57.3652 70.3006 57.2741 70.3488C57.3544 70.4344 57.4187 70.5307 57.4723 70.6324C57.6063 70.8947 57.617 71.1784 57.5098 71.4513C57.3009 71.9758 56.8133 72.1632 56.3043 72.1953C56.5454 72.5753 56.6633 73.0142 56.4168 73.4477C56.0954 74.015 55.4792 74.1488 54.9703 74.1488L54.9649 74.1435ZM40.4241 65.0555C45.1174 70.6699 54.322 73.0784 54.4184 73.1051C54.7452 73.1908 55.4203 73.2336 55.5703 72.966C55.6453 72.8322 55.2006 72.2809 54.6381 71.9063C54.4345 71.7725 54.3648 71.5102 54.472 71.2908C54.5792 71.0713 54.831 70.9643 55.0613 71.0446C55.6828 71.2479 56.5186 71.3122 56.6097 71.0874C56.5883 70.9108 55.94 70.5361 55.2596 70.3541C55.0024 70.2845 54.847 70.0223 54.9167 69.76C54.9863 69.5031 55.2489 69.3479 55.506 69.4121C56.4972 69.6637 56.8347 69.4978 56.9151 69.4389C56.9794 69.3907 56.9901 69.3372 56.9901 69.3212C56.9901 69.2676 56.9901 69.2409 57.0062 69.1927C57.0115 69.1713 57.0169 69.1499 56.9848 69.091C56.7865 68.7538 55.8971 68.4059 55.356 68.2775C48.1124 66.8217 42.085 61.1163 41.3456 60.3937L40.5366 60.0458L40.4295 65.0608L40.4241 65.0555Z" fill="black"/>
<path d="M40.6972 55.5879C40.6972 55.5879 51.9323 80.8983 36.127 83.4406L31.0854 83.3871C15.3391 80.5023 27.1207 55.4434 27.1207 55.4434L40.6972 55.5879Z" fill="#87594C"/>
<path d="M36.1645 83.9274L30.9997 83.8631C27.5922 83.2369 25.1651 81.5563 23.7775 78.8588C21.988 75.3853 21.9398 70.3435 23.6328 63.8727C24.8812 59.0986 26.6706 55.2718 26.6867 55.229L26.8206 54.9453L41.0186 55.1005L41.1471 55.3842C41.1632 55.4217 42.867 59.2913 44.0135 64.0922C45.5619 70.6004 45.4065 75.6368 43.542 79.0676C42.0955 81.733 39.6309 83.3654 36.2127 83.9113H36.1698L36.1645 83.9274ZM31.1336 82.8997L36.0948 82.9533C39.1755 82.4502 41.3936 80.989 42.6848 78.6126C46.5531 71.4889 41.265 58.1834 40.3756 56.0693L27.4368 55.9301C26.5045 58.0228 20.9272 71.2159 24.6401 78.42C25.8777 80.8231 28.0636 82.3324 31.1336 82.9051V82.8997Z" fill="black"/>
<path d="M54.2466 34.553C54.2466 34.553 56.4326 60.8 33.2069 60.5485H32.7676C9.54195 60.2916 12.3012 34.098 12.3012 34.098C12.3012 34.098 31.3585 21.1297 54.2466 34.553Z" fill="#FAC3C1"/>
<path d="M33.5393 61.0308C33.4268 61.0308 33.3142 61.0308 33.2071 61.0308H32.7678C26.2796 60.9558 21.163 58.8792 17.5733 54.849C10.5547 46.976 11.7655 34.575 11.8245 34.0504C11.8406 33.9059 11.9156 33.7828 12.0334 33.7026C12.2263 33.5687 31.6105 20.7128 54.4986 34.1414C54.6326 34.2217 54.7236 34.3609 54.7344 34.5214C54.7772 35.0459 55.7255 47.4737 48.5355 55.1915C44.919 59.0772 39.8774 61.0415 33.5446 61.0415L33.5393 61.0308ZM12.7621 34.3769C12.6335 36.1057 12.0656 47.2222 18.2966 54.2067C21.6987 58.0228 26.5689 59.9924 32.7731 60.0567H33.2124C39.4113 60.1263 44.3297 58.2637 47.8176 54.5225C54.1772 47.6985 53.8718 36.6355 53.7753 34.8426C32.7303 22.645 14.798 33.1031 12.7621 34.3769Z" fill="black"/>
<path d="M31.6896 41.8086C31.7259 38.4597 29.6085 35.7217 26.9604 35.6931C24.3123 35.6644 22.1361 38.356 22.0999 41.7049C22.0636 45.0538 24.1809 47.7918 26.829 47.8204C29.4772 47.849 31.6533 45.1574 31.6896 41.8086Z" fill="white"/>
<path d="M26.8686 48.3097C26.8686 48.3097 26.8365 48.3097 26.8204 48.3097C23.9058 48.2776 21.5699 45.3125 21.6074 41.7051C21.6235 39.9764 22.1807 38.3546 23.1665 37.1344C24.1791 35.8819 25.5292 35.2076 26.9597 35.2129C29.8743 35.245 32.2103 38.2101 32.1728 41.8175C32.1567 43.5463 31.5995 45.168 30.6137 46.3883C29.6118 47.63 28.2831 48.3097 26.8686 48.3097ZM26.9169 36.1817C25.8025 36.1817 24.7416 36.7329 23.9273 37.7392C23.0754 38.7882 22.5986 40.2012 22.5825 41.7105C22.5503 44.788 24.4577 47.3088 26.8311 47.3356C27.9563 47.3463 29.0385 46.795 29.8582 45.7781C30.7101 44.7291 31.187 43.3161 31.203 41.8068C31.2352 38.7293 29.3278 36.2084 26.9544 36.1817C26.9437 36.1817 26.9276 36.1817 26.9169 36.1817Z" fill="black"/>
<path d="M28.5221 47.0612C30.2817 47.0028 31.6277 44.5343 31.5286 41.5475C31.4294 38.5607 29.9225 36.1867 28.1629 36.245C26.4033 36.3033 25.0572 38.7719 25.1564 41.7587C25.2556 44.7455 26.7624 47.1195 28.5221 47.0612Z" fill="black"/>
<path d="M44.2235 41.9443C44.2598 38.5954 42.1425 35.8574 39.4944 35.8288C36.8462 35.8002 34.6701 38.4918 34.6338 41.8406C34.5975 45.1895 36.7148 47.9275 39.363 47.9561C42.0111 47.9848 44.1873 45.2932 44.2235 41.9443Z" fill="white"/>
<path d="M39.4114 48.4425C39.4114 48.4425 39.3792 48.4425 39.3632 48.4425C36.4486 48.4104 34.1126 45.4453 34.1501 41.8379C34.1876 38.2466 36.5664 35.3457 39.4596 35.3457C39.4757 35.3457 39.4917 35.3457 39.5078 35.3457C42.4224 35.3778 44.7584 38.3429 44.7209 41.9503C44.7048 43.679 44.1476 45.3008 43.1618 46.521C42.1599 47.7628 40.8312 48.4425 39.4167 48.4425H39.4114ZM39.4542 36.3144C37.0915 36.3144 35.152 38.7872 35.1198 41.8486C35.0877 44.9261 36.995 47.447 39.3685 47.4737C40.499 47.4791 41.5759 46.9332 42.3956 45.9163C43.2475 44.8672 43.7243 43.4543 43.7404 41.9449C43.7725 38.8674 41.8652 36.3466 39.4917 36.3198C39.481 36.3198 39.4649 36.3198 39.4542 36.3198V36.3144Z" fill="black"/>
<path d="M41.0624 47.191C42.822 47.1327 44.168 44.6642 44.0688 41.6774C43.9697 38.6906 42.4628 36.3166 40.7032 36.3749C38.9436 36.4332 37.5975 38.9017 37.6967 41.8885C37.7959 44.8753 39.3027 47.2494 41.0624 47.191Z" fill="black"/>
<path d="M34.7901 48.8724C34.7961 48.3227 34.0789 47.8692 33.1883 47.8595C32.2977 47.8499 31.5709 48.2878 31.565 48.8376C31.559 49.3873 32.2762 49.8408 33.1668 49.8504C34.0574 49.8601 34.7842 49.4222 34.7901 48.8724Z" fill="black"/>
<path d="M33.1966 50.0962C33.1966 50.0962 33.1752 50.0962 33.1644 50.0962C32.1251 50.0855 31.3107 49.5342 31.3214 48.8385C31.3214 48.4852 31.5357 48.1641 31.9215 47.9339C32.2644 47.7252 32.7198 47.6182 33.1966 47.6182C34.236 47.6289 35.0504 48.1801 35.0396 48.8759C35.0396 49.2292 34.8253 49.5503 34.4396 49.7804C34.102 49.9838 33.6627 50.0962 33.1966 50.0962ZM33.1591 48.1052C32.784 48.1052 32.4304 48.1908 32.1679 48.3514C32.034 48.4317 31.8089 48.603 31.8036 48.8438C31.8036 49.2452 32.4358 49.6038 33.1698 49.6145C33.5609 49.6199 33.9199 49.5342 34.1878 49.3683C34.3217 49.288 34.5467 49.1168 34.5521 48.8759C34.5521 48.4745 33.9199 48.1159 33.1912 48.1052C33.1805 48.1052 33.1752 48.1052 33.1644 48.1052H33.1591Z" fill="black"/>
<path d="M53.5394 37.6411C53.5394 37.6411 61.292 38.1121 64.0726 32.2033C66.8533 26.2891 63.6708 21.7344 63.6708 21.7344C63.6708 21.7344 61.6563 16.5482 49.2693 14.3431C36.8769 12.1433 33.1372 0.475586 33.1372 0.475586C33.1372 0.475586 29.1511 12.0631 16.7159 13.9952C4.28064 15.9273 2.15899 21.0708 2.15899 21.0708C2.15899 21.0708 -1.11993 25.5559 1.52678 31.5289C4.17884 37.502 11.9368 37.1969 11.9368 37.1969C11.9368 37.1969 34.616 25.9466 53.534 37.6465L53.5394 37.6411Z" fill="#F0534A"/>
<path d="M53.9999 38.139C53.7267 38.139 53.5499 38.1283 53.507 38.1283C53.4267 38.1283 53.3463 38.0962 53.282 38.0587C34.8086 26.6318 12.3813 37.5182 12.1563 37.6305C12.0973 37.6627 12.0277 37.6787 11.958 37.6787C11.6258 37.6894 3.83573 37.9249 1.08187 31.7217C-1.5434 25.8129 1.37119 21.3492 1.73016 20.8247C2.01411 20.2146 4.62867 15.3762 16.6407 13.5083C28.2079 11.7153 32.3494 1.20898 32.6656 0.368685C32.6816 0.304459 32.7084 0.240233 32.7459 0.186711C32.9281 -0.0648412 33.3567 -0.0648412 33.5389 0.186711C33.5764 0.240233 33.6031 0.299107 33.6192 0.363333C33.8871 1.1394 37.7822 11.8063 49.3548 13.8615C61.3239 15.9863 63.8313 20.8782 64.0992 21.4991C64.4528 22.0289 67.2656 26.5569 64.5118 32.4068C62.0044 37.7376 55.8108 38.139 53.9999 38.139ZM53.6838 37.1649C54.6429 37.1863 61.206 37.1542 63.6331 32.0001C66.253 26.4284 63.392 22.1949 63.2688 22.0182C63.2473 21.9861 63.2313 21.954 63.2152 21.9166C63.1991 21.8684 61.0775 16.9444 49.1834 14.8303C38.9716 13.0159 34.4657 4.80564 33.1317 1.7656C31.728 4.77888 27.0507 12.8874 16.8014 14.4824C4.85906 16.3396 2.63561 21.2154 2.61418 21.2689C2.5981 21.3011 2.58203 21.3385 2.5606 21.3653C2.43202 21.5419 -0.514723 25.7112 1.98197 31.3364C4.31257 36.5815 10.9454 36.7153 11.8348 36.7153C13.5225 35.9179 35.4301 25.9682 53.6892 37.1703L53.6838 37.1649Z" fill="black"/>
<path d="M33.3786 52.9705C30.1479 52.9705 27.9619 51.6217 27.828 51.5414C27.603 51.3969 27.5333 51.0972 27.678 50.8724C27.8226 50.6476 28.1227 50.5781 28.3477 50.7172C28.3905 50.744 32.8803 53.4843 38.3612 50.8082C38.6023 50.6904 38.8916 50.7921 39.0095 51.033C39.1274 51.2738 39.0256 51.5628 38.7845 51.6806C36.8129 52.644 34.9698 52.9705 33.3786 52.9705Z" fill="black"/>
<path d="M54.1985 38.1449C53.9253 38.1449 53.7485 38.1342 53.7056 38.1342C53.6252 38.1342 53.5449 38.1021 53.4806 38.0646C35.0072 26.6377 12.5799 37.524 12.3548 37.6364C12.2959 37.6685 12.2262 37.6846 12.1566 37.6846C11.8298 37.6953 4.03431 37.9308 1.28045 31.7276C-1.34482 25.8188 1.56977 21.3551 1.93409 20.8306C2.21805 20.2204 4.83261 15.3821 16.8446 13.5141C28.4172 11.7158 32.5534 1.19878 32.8641 0.369192C32.8802 0.304966 32.907 0.246092 32.9445 0.192571C33.1267 -0.0589819 33.5553 -0.0589819 33.7374 0.192571C33.7749 0.246092 33.8017 0.304966 33.8178 0.369192C34.0803 1.13455 37.9754 11.8122 49.5534 13.8674C61.5225 15.9922 64.0299 20.8841 64.2978 21.5049C64.6514 22.0348 67.4642 26.5628 64.7103 32.4127C62.2029 37.7435 56.0094 38.1449 54.1985 38.1449ZM53.8824 37.1654C54.8361 37.1868 61.4046 37.1547 63.8317 32.0006C66.4516 26.429 63.5906 22.1954 63.4673 22.0188C63.4459 21.9866 63.4298 21.9545 63.4138 21.9171C63.3977 21.8689 61.276 16.9449 49.3819 14.8308C39.1701 13.0164 34.6643 4.80615 33.3302 1.76611C31.9265 4.77939 27.2492 12.8879 17 14.4829C5.05763 16.3401 2.83419 21.2159 2.81276 21.2695C2.79668 21.3016 2.78061 21.339 2.75918 21.3658C2.63059 21.5424 -0.316144 25.7118 2.18055 31.3369C4.51115 36.582 11.1333 36.7158 12.0334 36.7158C13.721 35.9184 35.6287 25.9687 53.8878 37.1708L53.8824 37.1654Z" fill="black"/>
<mask id="mask0_1062_4473" style="mask-type:luminance" maskUnits="userSpaceOnUse" x="0" y="0" width="66" height="38">
<path d="M53.6463 37.6474C53.6463 37.6474 61.3989 38.1184 64.1796 32.2096C66.9602 26.2955 63.7778 21.7408 63.7778 21.7408C63.7778 21.7408 61.7633 16.5545 49.3762 14.3494C36.9839 12.1497 33.2495 0.476562 33.2495 0.476562C33.2495 0.476562 29.2634 12.064 16.8282 13.9962C4.39294 15.9283 2.27129 21.0717 2.27129 21.0717C2.27129 21.0717 -1.00762 25.5569 1.63908 31.5299C4.29115 37.5029 12.0491 37.1979 12.0491 37.1979C12.0491 37.1979 34.7283 25.9476 53.6463 37.6474Z" fill="white"/>
</mask>
<g mask="url(#mask0_1062_4473)">
<path d="M7.77926 26.584C9.45996 26.584 10.8224 25.2229 10.8224 23.5439C10.8224 21.865 9.45996 20.5039 7.77926 20.5039C6.09856 20.5039 4.73608 21.865 4.73608 23.5439C4.73608 25.2229 6.09856 26.584 7.77926 26.584Z" fill="black"/>
<path d="M5.35226 36.6191C7.03296 36.6191 8.39544 35.2581 8.39544 33.5791C8.39544 31.9001 7.03296 30.5391 5.35226 30.5391C3.67156 30.5391 2.30908 31.9001 2.30908 33.5791C2.30908 35.2581 3.67156 36.6191 5.35226 36.6191Z" fill="black"/>
<path d="M14.6159 32.0156C16.2966 32.0156 17.6591 30.6546 17.6591 28.9756C17.6591 27.2966 16.2966 25.9355 14.6159 25.9355C12.9352 25.9355 11.5728 27.2966 11.5728 28.9756C11.5728 30.6546 12.9352 32.0156 14.6159 32.0156Z" fill="black"/>
<path d="M24.0935 26.7598C25.7742 26.7598 27.1366 25.3987 27.1366 23.7197C27.1366 22.0408 25.7742 20.6797 24.0935 20.6797C22.4128 20.6797 21.0503 22.0408 21.0503 23.7197C21.0503 25.3987 22.4128 26.7598 24.0935 26.7598Z" fill="black"/>
<path d="M28.3476 18.165C30.0283 18.165 31.3908 16.804 31.3908 15.125C31.3908 13.446 30.0283 12.085 28.3476 12.085C26.6669 12.085 25.3044 13.446 25.3044 15.125C25.3044 16.804 26.6669 18.165 28.3476 18.165Z" fill="black"/>
<path d="M32.9231 30.1377C34.6038 30.1377 35.9662 28.7766 35.9662 27.0977C35.9662 25.4187 34.6038 24.0576 32.9231 24.0576C31.2424 24.0576 29.8799 25.4187 29.8799 27.0977C29.8799 28.7766 31.2424 30.1377 32.9231 30.1377Z" fill="black"/>
<path d="M44.3615 32.0107C46.0422 32.0107 47.4047 30.6497 47.4047 28.9707C47.4047 27.2917 46.0422 25.9307 44.3615 25.9307C42.6808 25.9307 41.3184 27.2917 41.3184 28.9707C41.3184 30.6497 42.6808 32.0107 44.3615 32.0107Z" fill="black"/>
<path d="M38.2646 22.2119C39.9453 22.2119 41.3078 20.8508 41.3078 19.1719C41.3078 17.4929 39.9453 16.1318 38.2646 16.1318C36.5839 16.1318 35.2214 17.4929 35.2214 19.1719C35.2214 20.8508 36.5839 22.2119 38.2646 22.2119Z" fill="black"/>
<path d="M37.7077 13.0215C39.3884 13.0215 40.7509 11.6604 40.7509 9.98144C40.7509 8.30248 39.3884 6.94141 37.7077 6.94141C36.027 6.94141 34.6646 8.30248 34.6646 9.98144C34.6646 11.6604 36.027 13.0215 37.7077 13.0215Z" fill="black"/>
<path d="M48.8674 23.6406C50.5481 23.6406 51.9106 22.2796 51.9106 20.6006C51.9106 18.9216 50.5481 17.5605 48.8674 17.5605C47.1867 17.5605 45.8242 18.9216 45.8242 20.6006C45.8242 22.2796 47.1867 23.6406 48.8674 23.6406Z" fill="black"/>
<path d="M58.8005 22.8691C60.4812 22.8691 61.8437 21.5081 61.8437 19.8291C61.8437 18.1501 60.4812 16.7891 58.8005 16.7891C57.1198 16.7891 55.7573 18.1501 55.7573 19.8291C55.7573 21.5081 57.1198 22.8691 58.8005 22.8691Z" fill="black"/>
<path d="M54.445 30.9189C56.1257 30.9189 57.4882 29.5579 57.4882 27.8789C57.4882 26.1999 56.1257 24.8389 54.445 24.8389C52.7643 24.8389 51.4019 26.1999 51.4019 27.8789C51.4019 29.5579 52.7643 30.9189 54.445 30.9189Z" fill="black"/>
<path d="M64.9568 30.7041C66.6375 30.7041 67.9999 29.343 67.9999 27.6641C67.9999 25.9851 66.6375 24.624 64.9568 24.624C63.2761 24.624 61.9136 25.9851 61.9136 27.6641C61.9136 29.343 63.2761 30.7041 64.9568 30.7041Z" fill="black"/>
<path d="M59.8347 38.6318C61.5154 38.6318 62.8779 37.2708 62.8779 35.5918C62.8779 33.9128 61.5154 32.5518 59.8347 32.5518C58.154 32.5518 56.7915 33.9128 56.7915 35.5918C56.7915 37.2708 58.154 38.6318 59.8347 38.6318Z" fill="black"/>
<path d="M16.3894 20.333C18.0701 20.333 19.4325 18.9719 19.4325 17.293C19.4325 15.614 18.0701 14.2529 16.3894 14.2529C14.7087 14.2529 13.3462 15.614 13.3462 17.293C13.3462 18.9719 14.7087 20.333 16.3894 20.333Z" fill="black"/>
</g>
</g>
<defs>
<clipPath id="clip0_1062_4473">
<rect width="68" height="69" fill="white"/>
</clipPath>
</defs>
</svg>
