<svg width="59" height="70" viewBox="0 0 59 70" fill="none" xmlns="http://www.w3.org/2000/svg">
<g clip-path="url(#clip0_1062_4374)">
<path d="M39.1084 51.9893L45.8483 73.2841C45.8483 73.2841 45.2981 80.1712 31.5126 80.4079H27.8293C14.0438 80.1712 13.4937 73.2841 13.4937 73.2841L20.2336 51.9893H39.116H39.1084Z" fill="black"/>
<path d="M27.8216 80.8734C13.761 80.6367 13.0427 73.6122 13.0198 73.3144C13.0198 73.2534 13.0198 73.1923 13.0427 73.1388L19.7826 51.8439C19.8438 51.6454 20.0272 51.5156 20.2335 51.5156H39.116C39.3223 51.5156 39.5057 51.6454 39.5668 51.8439L46.3067 73.1388C46.322 73.1999 46.3297 73.261 46.3297 73.3144C46.3067 73.6122 45.5884 80.6291 31.5355 80.8734H27.8446H27.8216ZM13.9674 73.3221C14.0973 74.0551 15.488 79.7281 27.8293 79.9343H31.5049C43.8996 79.7205 45.2369 74.0627 45.3592 73.3221L38.7568 52.4548H20.5621L13.9597 73.3144L13.9674 73.3221Z" fill="black"/>
<path d="M33.125 0.46582L28.3108 1.36678C28.3108 1.36678 28.2038 13.4 23.3208 17.3399C23.3208 17.3399 29.9002 21.2415 36.5943 17.3399C36.5943 17.3399 31.8947 15.7517 33.1556 0.610893" fill="#528951"/>
<path d="M30.206 19.531C26.1635 19.531 23.1222 17.7749 23.0763 17.7444C22.9464 17.668 22.8547 17.5306 22.8471 17.3779C22.8394 17.2252 22.9006 17.0725 23.0228 16.9808C27.6766 13.2243 27.8371 1.48878 27.8371 1.36661C27.8371 1.14519 27.9975 0.954315 28.2191 0.908503L33.0334 0.00753046C33.2855 -0.0382814 33.5377 0.1297 33.5836 0.381665C33.5836 0.396936 33.5836 0.412204 33.5836 0.427475C33.6141 0.496193 33.6294 0.572552 33.6218 0.648905C32.422 15.0262 36.6937 16.8816 36.7395 16.8968C36.9153 16.9579 37.0376 17.1106 37.0529 17.2939C37.0681 17.4771 36.9841 17.6527 36.8236 17.7444C34.5311 19.0805 32.2386 19.531 30.1983 19.531H30.206ZM24.1462 17.2328C25.7891 18.004 30.6721 19.8288 35.685 17.3015C34.3401 16.1486 31.7801 12.4226 32.6589 1.03067L28.777 1.75602C28.7159 3.81756 28.2191 13.2319 24.1462 17.2328Z" fill="black"/>
<path d="M27.7065 18.1637C27.7065 18.1637 15.2889 14.6591 7.21167 21.3018C-0.865535 27.9445 0.555791 39.4739 0.555791 39.4739C0.555791 39.4739 1.91601 52.2019 16.5421 54.8132C31.1605 57.4321 43.3718 54.1871 43.3718 54.1871C43.3718 54.1871 56.7906 50.5222 58.0973 39.3135C59.404 28.1049 54.2153 22.974 54.2153 22.974C54.2153 22.974 47.613 15.4303 36.5555 17.4231C36.5555 17.4231 32.3603 18.996 27.6989 18.1561L27.7065 18.1637Z" fill="#F37448"/>
<path d="M28.2571 56.3025C24.6655 56.3025 20.6536 56.0353 16.4584 55.287C8.7327 53.9051 4.69793 49.698 2.66525 46.4148C0.464465 42.8568 0.105313 39.6652 0.0900293 39.5278C0.074746 39.4209 -1.26254 27.6778 6.914 20.9434C14.9836 14.293 27.0344 17.4846 27.8062 17.706C32.2842 18.5001 36.3496 17.0036 36.3954 16.9883C36.4183 16.9807 36.4489 16.973 36.4795 16.9654C47.6668 14.9497 54.5061 22.5926 54.5748 22.669C54.7735 22.8599 59.8858 28.0672 58.5638 39.3674C58.0136 44.0937 55.2244 48.232 50.5019 51.3396C46.9638 53.6684 43.632 54.5922 43.4945 54.6304C43.4028 54.6533 37.1214 56.2873 28.2571 56.2873V56.3025ZM20.1646 17.7137C16.5119 17.7137 11.4608 18.4238 7.51005 21.6764C-0.261492 28.0824 1.00703 39.314 1.02231 39.4285C1.0758 39.9401 2.53534 51.8435 16.6265 54.3632C30.9698 56.9286 43.1353 53.7753 43.2576 53.7447C43.3875 53.7065 56.3783 50.0263 57.6391 39.2758C58.9077 28.426 53.9482 23.3791 53.8947 23.3256C53.8107 23.2264 47.3153 16.011 36.6858 17.8969C36.2044 18.0725 32.1619 19.4545 27.6228 18.6375C27.6075 18.6375 27.5923 18.6375 27.577 18.6299C27.5464 18.6223 24.4668 17.7671 20.455 17.7213C20.3556 17.7213 20.2639 17.7213 20.1646 17.7213V17.7137Z" fill="black"/>
<path d="M19.9204 36.8406C22.9548 36.8406 25.4147 34.3041 25.4147 31.1752C25.4147 28.0463 22.9548 25.5098 19.9204 25.5098C16.8859 25.5098 14.426 28.0463 14.426 31.1752C14.426 34.3041 16.8859 36.8406 19.9204 36.8406Z" fill="white"/>
<path d="M19.9202 37.3137C16.6343 37.3137 13.9597 34.565 13.9597 31.1749C13.9597 27.7849 16.6343 25.0361 19.9202 25.0361C23.2061 25.0361 25.8807 27.7849 25.8807 31.1749C25.8807 34.565 23.2061 37.3137 19.9202 37.3137ZM19.9202 25.9829C17.1539 25.9829 14.8996 28.3117 14.8996 31.1749C14.8996 34.0382 17.1539 36.3669 19.9202 36.3669C22.6865 36.3669 24.9407 34.0382 24.9407 31.1749C24.9407 28.3117 22.6865 25.9829 19.9202 25.9829Z" fill="black"/>
<path d="M19.8667 33.8245C21.289 33.8245 22.442 32.6212 22.442 31.1369C22.442 29.6525 21.289 28.4492 19.8667 28.4492C18.4445 28.4492 17.2915 29.6525 17.2915 31.1369C17.2915 32.6212 18.4445 33.8245 19.8667 33.8245Z" fill="black"/>
<path d="M38.3059 36.8406C41.3403 36.8406 43.8002 34.3041 43.8002 31.1752C43.8002 28.0463 41.3403 25.5098 38.3059 25.5098C35.2714 25.5098 32.8115 28.0463 32.8115 31.1752C32.8115 34.3041 35.2714 36.8406 38.3059 36.8406Z" fill="white"/>
<path d="M38.3059 37.3137C35.02 37.3137 32.3455 34.565 32.3455 31.1749C32.3455 27.7849 35.02 25.0361 38.3059 25.0361C41.5918 25.0361 44.2664 27.7849 44.2664 31.1749C44.2664 34.565 41.5918 37.3137 38.3059 37.3137ZM38.3059 25.9829C35.5397 25.9829 33.2854 28.3117 33.2854 31.1749C33.2854 34.0382 35.5397 36.3669 38.3059 36.3669C41.0722 36.3669 43.3265 34.0382 43.3265 31.1749C43.3265 28.3117 41.0722 25.9829 38.3059 25.9829Z" fill="black"/>
<path d="M38.2522 33.8245C39.6745 33.8245 40.8275 32.6212 40.8275 31.1369C40.8275 29.6525 39.6745 28.4492 38.2522 28.4492C36.83 28.4492 35.677 29.6525 35.677 31.1369C35.677 32.6212 36.83 33.8245 38.2522 33.8245Z" fill="black"/>
<path d="M29.3498 34.2217C29.3498 34.2217 28.4633 34.2217 27.3171 35.9702C26.1708 37.7186 25.0246 39.6122 25.0246 39.6122C25.0246 39.6122 24.6196 40.1543 24.8259 40.643C25.0246 41.1316 26.6064 41.4752 28.5856 41.5058H30.2209C32.2001 41.4752 33.7743 41.1316 33.9806 40.643C34.1793 40.1543 33.7819 39.6122 33.7819 39.6122C33.7819 39.6122 32.6357 37.7186 31.4894 35.9702C30.3432 34.2217 29.4567 34.2217 29.4567 34.2217" fill="black"/>
<path d="M28.5705 41.9713C27.4395 41.956 24.7879 41.8109 24.3829 40.8184C24.0925 40.1083 24.5816 39.4058 24.6427 39.3295C24.6427 39.3295 25.7889 37.4359 26.9199 35.7103C28.1426 33.8473 29.1589 33.748 29.3499 33.748C29.3652 33.748 29.3805 33.748 29.3958 33.748C29.4111 33.748 29.4264 33.748 29.4416 33.748C29.6327 33.748 30.649 33.8397 31.8717 35.7103C33.0103 37.4435 34.1642 39.3447 34.1718 39.36C34.2024 39.4058 34.6991 40.1006 34.4087 40.8107C34.0037 41.8033 31.3444 41.9484 30.2211 41.9636H28.5781L28.5705 41.9713ZM29.3652 34.6948C29.3194 34.6948 28.6316 34.817 27.6994 36.2295C26.5684 37.9475 25.4221 39.8334 25.4145 39.8563C25.3151 40.0014 25.17 40.2839 25.2464 40.4671C25.3686 40.6198 26.4003 41.0016 28.5781 41.0321H30.2058C32.376 41.0016 33.4076 40.6122 33.5375 40.4442C33.5987 40.2915 33.4611 40.0014 33.3771 39.8868C33.3465 39.8334 32.2003 37.9475 31.0693 36.2295C30.1141 34.7788 29.4111 34.6948 29.4034 34.6948C29.4034 34.6948 29.3958 34.6948 29.3881 34.6948C29.3805 34.6948 29.3652 34.6948 29.3576 34.6948H29.3652Z" fill="black"/>
<path d="M27.7605 16.5688C27.6994 16.5688 27.6306 16.5535 27.5694 16.5306C27.3326 16.4237 27.2256 16.1488 27.3326 15.9121C28.0432 14.3393 28.8609 7.78817 28.8685 7.72709C28.8991 7.46749 29.136 7.28424 29.3958 7.32242C29.6556 7.35296 29.839 7.58965 29.8008 7.84925C29.7702 8.12413 28.9526 14.6065 28.1884 16.3092C28.112 16.4848 27.9362 16.5841 27.7605 16.5841V16.5688Z" fill="black"/>
<path d="M32.5287 16.5683C32.3605 16.5683 32.2001 16.4767 32.116 16.324C30.794 13.896 30.4195 5.26806 30.4043 4.90157C30.3966 4.64197 30.5953 4.42054 30.8551 4.41291C31.1073 4.39764 31.3366 4.60379 31.3442 4.86339C31.3442 4.94738 31.7263 13.644 32.9413 15.8811C33.0636 16.1102 32.9795 16.3927 32.7503 16.5149C32.6815 16.5531 32.6051 16.5683 32.5287 16.5683Z" fill="black"/>
<path d="M29.067 46.0789C21.1961 46.0789 16.0762 42.3987 15.9998 42.3452C15.6865 42.1162 15.6177 41.6733 15.8546 41.3603C16.0839 41.0472 16.5271 40.9785 16.8404 41.2152C16.9473 41.2915 27.7221 48.9956 41.9966 41.1617C42.3405 40.9709 42.7684 41.1007 42.9518 41.4366C43.1429 41.7802 43.013 42.2078 42.6767 42.391C37.6409 45.155 33.01 46.0789 29.067 46.0789Z" fill="black"/>
</g>
<defs>
<clipPath id="clip0_1062_4374">
<rect width="59" height="70" fill="white"/>
</clipPath>
</defs>
</svg>
