<svg width="68" height="67" viewBox="0 0 68 67" fill="none" xmlns="http://www.w3.org/2000/svg">
<g clip-path="url(#clip0_1062_4349)">
<path d="M33.4179 29.0231C33.4179 29.0231 18.2862 28.5269 13.3261 42.0032C8.36596 55.4795 1.26306 93.4408 1.26306 93.4408C1.26306 93.4408 -1.63365 104.357 5.31052 105.925C5.31052 105.925 11.0907 107.241 15.1117 100.711C15.1117 100.711 16.0575 98.7797 18.1473 99.1105C20.2438 99.4412 21.0176 101.982 21.0176 101.982C21.0176 101.982 22.3734 108.677 28.3255 108.961C34.2776 109.246 38.5037 101.406 38.5037 101.406C38.5037 101.406 39.8594 98.8987 41.3739 98.8591C42.8884 98.8194 46.3407 102.762 46.3407 102.762C46.3407 102.762 52.4185 109.782 60.6258 107.281C68.8332 104.774 68.0859 97.4698 65.791 92.1176C63.4961 86.7655 60.3679 76.0545 59.9513 67.851C59.5346 59.6474 57.6828 27.389 33.4113 29.0165L33.4179 29.0231Z" fill="#9DD4D1"/>
<path d="M28.6563 109.636C28.5373 109.636 28.4182 109.636 28.2992 109.63C22.1685 109.332 20.5217 102.769 20.3894 102.167C20.3167 101.949 19.6156 100.017 18.0549 99.7721C16.4808 99.5207 15.7401 100.956 15.7137 101.016C11.4612 107.923 5.23789 106.593 5.17176 106.58C3.46548 106.196 2.156 105.263 1.27641 103.814C-1.09123 99.9044 0.555536 93.5467 0.628285 93.2754C0.687806 92.9446 7.79732 55.1554 12.7178 41.7783C17.6647 28.3417 32.5583 28.355 33.4114 28.3616C39.509 27.958 44.7073 29.6318 48.8671 33.33C55.8246 39.5091 59.7794 51.1198 60.626 67.8246C61.0426 76.0678 64.2634 86.8449 66.4128 91.8663C67.4643 94.3273 68.9656 99.0377 67.1601 102.934C66.0623 105.303 63.9327 106.977 60.8376 107.923C52.3128 110.523 45.9241 103.278 45.858 103.206C44.3038 101.426 42.1544 99.5339 41.4204 99.5339C41.4204 99.5339 41.4137 99.5339 41.4071 99.5339C40.5474 99.5604 39.4826 101.022 39.099 101.73C38.9204 102.061 34.7606 109.643 28.6629 109.643L28.6563 109.636ZM17.6845 98.4159C17.8631 98.4159 18.0549 98.4291 18.2533 98.4622C20.7267 98.8525 21.6195 101.677 21.6592 101.797C21.7253 102.114 23.0084 108.048 28.3653 108.313C33.8347 108.571 37.8887 101.181 37.9284 101.102C38.0871 100.811 39.5157 98.2571 41.3674 98.2108C43.0473 98.1446 45.9903 101.36 46.85 102.339C46.9096 102.405 52.7559 109.001 60.4474 106.659C63.1722 105.826 65.0239 104.39 65.9564 102.379C67.5503 98.9517 66.1615 94.6515 65.1959 92.3889C63.1589 87.6322 59.753 76.7757 59.3033 67.8907C58.47 51.5498 54.6672 40.2567 47.9876 34.3224C44.0922 30.8623 39.2114 29.301 33.4643 29.6847C33.4445 29.6847 33.418 29.6847 33.3982 29.6847C33.2527 29.6781 18.6831 29.3738 13.9545 42.2348C9.06711 55.506 1.98405 93.1894 1.9113 93.5665C1.88485 93.6723 0.330677 99.6993 2.40732 103.126C3.10173 104.271 4.10037 104.979 5.46275 105.283C5.681 105.329 10.8461 106.388 14.5563 100.368C14.8936 99.6795 15.9848 98.4159 17.6911 98.4159H17.6845Z" fill="black"/>
<path d="M40.5474 54.6196C43.915 54.6196 46.645 51.24 46.645 47.071C46.645 42.9021 43.915 39.5225 40.5474 39.5225C37.1797 39.5225 34.4497 42.9021 34.4497 47.071C34.4497 51.24 37.1797 54.6196 40.5474 54.6196Z" fill="white"/>
<path d="M38.0608 40.0918C38.0608 40.0918 33.8612 41.9111 34.7342 48.4938C34.7342 48.4938 34.9789 52.5228 38.3055 53.7798C38.3055 53.7798 42.3661 51.5768 41.6982 45.7284C41.6982 45.7284 41.2749 40.5086 38.0608 40.0918Z" fill="#0090CF"/>
<path d="M40.5209 55.2152C36.7975 55.2152 33.7686 51.5037 33.7686 46.9455C33.7686 42.3872 36.7975 38.6758 40.5209 38.6758C44.2443 38.6758 47.2733 42.3872 47.2733 46.9455C47.2733 51.5037 44.2443 55.2152 40.5209 55.2152ZM40.5209 40.0056C37.525 40.0056 35.0913 43.1216 35.0913 46.9521C35.0913 50.7826 37.525 53.8986 40.5209 53.8986C43.5169 53.8986 45.9506 50.7826 45.9506 46.9521C45.9506 43.1216 43.5169 40.0056 40.5209 40.0056Z" fill="black"/>
<path d="M38.2856 54.5204C38.0608 54.5204 37.8359 54.4013 37.7103 54.1896C37.5251 53.872 37.6309 53.4685 37.9483 53.2832C40.9244 51.5499 41.1691 47.0379 41.1691 46.9916C41.3741 42.2944 38.1005 40.8588 38.0674 40.8456C37.7301 40.7067 37.5714 40.3163 37.7169 39.9789C37.8558 39.6415 38.246 39.4827 38.5832 39.6283C38.7552 39.7011 42.7299 41.441 42.4918 47.0512C42.4786 47.2695 42.2074 52.3372 38.6163 54.4277C38.5105 54.4873 38.3981 54.5204 38.2856 54.5204Z" fill="black"/>
<path d="M25.9975 54.6196C29.3652 54.6196 32.0952 51.24 32.0952 47.071C32.0952 42.9021 29.3652 39.5225 25.9975 39.5225C22.6299 39.5225 19.8999 42.9021 19.8999 47.071C19.8999 51.24 22.6299 54.6196 25.9975 54.6196Z" fill="white"/>
<path d="M23.5109 40.0918C23.5109 40.0918 19.3114 41.9111 20.1844 48.4938C20.1844 48.4938 20.4291 52.5228 23.7556 53.7798C23.7556 53.7798 27.8163 51.5768 27.1484 45.7284C27.1484 45.7284 26.7251 40.5086 23.5109 40.0918Z" fill="#0090CF"/>
<path d="M25.9711 55.2152C22.2477 55.2152 19.2188 51.5037 19.2188 46.9455C19.2188 42.3872 22.2477 38.6758 25.9711 38.6758C29.6945 38.6758 32.7235 42.3872 32.7235 46.9455C32.7235 51.5037 29.6945 55.2152 25.9711 55.2152ZM25.9711 40.0056C22.9752 40.0056 20.5414 43.1216 20.5414 46.9521C20.5414 50.7826 22.9752 53.8986 25.9711 53.8986C28.967 53.8986 31.4008 50.7826 31.4008 46.9521C31.4008 43.1216 28.967 40.0056 25.9711 40.0056Z" fill="black"/>
<path d="M23.7356 54.5204C23.5107 54.5204 23.2859 54.4013 23.1602 54.1896C22.975 53.872 23.0808 53.4685 23.3983 53.2832C26.3744 51.5499 26.6191 47.0379 26.6191 46.9916C26.8241 42.2944 23.5504 40.8588 23.5173 40.8456C23.1801 40.7067 23.0213 40.3163 23.1668 39.9789C23.3057 39.6415 23.6959 39.4827 24.0332 39.6283C24.2051 39.7011 28.1799 41.441 27.9418 47.0512C27.9285 47.2695 27.6574 52.3372 24.0663 54.4277C23.9604 54.4873 23.848 54.5204 23.7356 54.5204Z" fill="black"/>
<path d="M32.8361 63.3656C24.4965 63.3656 19.2057 58.4567 19.1263 58.3839C18.7295 58.0068 18.7163 57.3783 19.0932 56.9814C19.4702 56.5844 20.0985 56.5712 20.4953 56.9483C20.9384 57.3651 31.3282 66.905 46.2218 56.8425C46.6781 56.5381 47.2932 56.6572 47.5974 57.1071C47.9016 57.5636 47.7826 58.1788 47.3329 58.4832C41.923 62.1351 36.996 63.359 32.8361 63.359V63.3656Z" fill="black"/>
<path d="M38.0212 0.708337C38.0212 0.708337 33.5769 -0.561889 29.9064 9.81162C26.2359 20.1851 25.8854 21.1047 25.8854 21.1047C25.8854 21.1047 5.35709 25.9011 6.62688 32.6757C6.62688 32.6757 7.82392 36.1357 17.2812 34.5083C26.7385 32.8808 35.0914 33.0462 35.0914 33.0462C35.0914 33.0462 49.7271 34.0121 58.1791 36.9032C66.6312 39.7942 64.5744 33.8599 64.5744 33.8599C64.5744 33.8599 63.5823 29.0635 45.005 22.4345L41.8834 5.75616C41.8834 5.75616 41.3147 0.986198 38.0212 0.708337Z" fill="black"/>
<path d="M25.8918 20.8398L27.5518 16.5264C27.5518 16.5264 42.1412 16.7248 43.8475 17.6709L44.6808 22.0638L25.8985 20.8398H25.8918Z" fill="#487F44"/>
<path d="M61.9619 38.3716C60.8641 38.3716 59.5149 38.0937 57.888 37.538C49.6212 34.7065 35.1177 33.7207 34.9723 33.7141C34.9193 33.7141 26.5996 33.5752 17.3208 35.1696C7.59898 36.8368 6.07126 33.3106 5.93237 32.9004C5.91915 32.8673 5.91253 32.8408 5.90592 32.8078C4.61629 25.9141 21.9833 21.3559 25.3165 20.5488C25.5943 19.7813 26.4871 17.307 29.2119 9.59967C32.8229 -0.641524 37.3796 -0.0924168 38.0475 0.0531299C41.7908 0.416997 42.4389 5.46482 42.4653 5.67653L45.5076 21.9381C63.1193 28.276 64.9512 32.9599 65.1298 33.6744C65.229 33.992 65.8639 36.1487 64.561 37.4586C63.9592 38.0607 63.0995 38.3584 61.9619 38.3584V38.3716ZM34.4299 32.3843C34.8069 32.3843 35.0119 32.3843 35.0252 32.3843C35.6601 32.424 49.8791 33.3899 58.3179 36.281C60.9898 37.194 62.8746 37.2866 63.6285 36.5324C64.4222 35.7385 63.8799 34.0912 63.8732 34.078C63.8666 34.0515 63.8534 34.0251 63.8534 33.9986C63.8468 33.9721 62.3918 29.3676 44.7139 23.0627C44.4957 22.9834 44.3304 22.7915 44.2841 22.5599L41.1625 5.88161C41.1493 5.79561 40.607 1.60122 37.8954 1.36967C37.8557 1.36967 37.8161 1.35643 37.783 1.34982C37.697 1.32997 33.8149 0.555928 30.4685 10.0363C26.8376 20.2974 26.4541 21.3096 26.4408 21.3426C26.3615 21.5477 26.1895 21.6999 25.9713 21.7462C20.4556 23.0363 6.39532 27.4688 7.20217 32.4836C7.35428 32.7681 8.95474 35.2556 17.1026 33.8597C25.0785 32.4902 32.3599 32.3843 34.4432 32.3843H34.4299Z" fill="black"/>
<path d="M44.7272 22.8442C44.6743 22.8442 44.628 22.8442 44.5751 22.8244C40.0713 21.7592 25.8391 21.746 25.7002 21.746C25.3364 21.746 25.0388 21.4483 25.0388 21.0844C25.0388 20.7206 25.3364 20.4229 25.7002 20.4229C26.2888 20.4229 40.2234 20.4361 44.8793 21.5409C45.2364 21.6269 45.4547 21.9842 45.3687 22.3348C45.296 22.6391 45.0248 22.8442 44.7272 22.8442Z" fill="black"/>
<path d="M43.8145 18.392C43.7616 18.392 43.702 18.3854 43.6425 18.3722C39.6215 17.3071 27.704 17.2343 27.5849 17.2343C27.2212 17.2343 26.9236 16.9366 26.9236 16.5661C26.9236 16.2022 27.2212 15.9111 27.5849 15.9111C28.0809 15.9111 39.7935 15.9839 43.9732 17.0954C44.3237 17.188 44.5353 17.5518 44.4427 17.9025C44.3634 18.2002 44.0988 18.392 43.8012 18.392H43.8145Z" fill="black"/>
</g>
<defs>
<clipPath id="clip0_1062_4349">
<rect width="68" height="67" fill="white"/>
</clipPath>
</defs>
</svg>
