<svg width="76" height="63" viewBox="0 0 76 63" fill="none" xmlns="http://www.w3.org/2000/svg">
<g clip-path="url(#clip0_1062_4412)">
<path d="M33.586 20.4619C33.586 20.4619 43.2203 8.80988 58.8045 12.5755C74.3886 16.3411 71.1147 31.7536 71.1147 31.7536C71.1147 31.7536 68.6719 42.416 55.4292 46.6435C42.1864 50.8709 39.6473 61.3404 39.6473 61.3404C39.6473 61.3404 36.6369 70.7341 25.4062 68.085C14.1806 65.4359 22.411 30.8351 33.586 20.4619Z" fill="#F68E57"/>
<mask id="mask0_1062_4412" style="mask-type:luminance" maskUnits="userSpaceOnUse" x="19" y="11" width="53" height="58">
<path d="M33.4388 20.4619C33.4388 20.4619 43.0731 8.80988 58.6572 12.5755C74.2414 16.3411 70.9675 31.7536 70.9675 31.7536C70.9675 31.7536 68.5247 42.416 55.2819 46.6435C42.0392 50.8709 39.5001 61.3404 39.5001 61.3404C39.5001 61.3404 36.4897 70.7341 25.259 68.085C14.0333 65.4359 22.2638 30.8351 33.4388 20.4619Z" fill="white"/>
</mask>
<g mask="url(#mask0_1062_4412)">
<path d="M73.3547 35.9557C72.3968 35.9455 71.4795 35.4076 71.0284 34.4839C64.6022 21.3399 52.2616 23.8723 52.1399 23.8977C50.726 24.2072 49.3323 23.309 49.0231 21.8931C48.714 20.4772 49.611 19.0815 51.025 18.772C56.6961 17.5286 69.1634 18.7365 75.7366 32.1749C76.3752 33.474 75.8329 35.0473 74.5355 35.6867C74.1554 35.8745 73.755 35.9608 73.3547 35.9557Z" fill="black"/>
<path d="M68.7681 48.5576C67.8204 48.4105 66.9892 47.7456 66.675 46.7713C62.1797 32.8457 49.6059 33.5967 49.4792 33.6018C48.0348 33.7084 46.783 32.6173 46.6766 31.176C46.5702 29.7297 47.6598 28.4761 49.0991 28.3696C54.8919 27.9484 67.0602 30.9172 71.6569 45.1574C72.1029 46.5378 71.3477 48.0146 69.9692 48.4612C69.5689 48.5932 69.1533 48.6185 68.763 48.5576H68.7681Z" fill="black"/>
<path d="M62.063 58.0059C61.1153 57.8587 60.2842 57.1939 59.9699 56.2195C55.4746 42.2939 42.9008 43.045 42.7741 43.0501C41.3298 43.1566 40.078 42.0655 39.9715 40.6243C39.8651 39.1779 40.9547 37.9244 42.394 37.8178C48.1868 37.3966 60.3551 40.3654 64.9518 54.6057C65.3978 55.9861 64.6426 57.4629 63.2641 57.9095C62.8638 58.0414 62.4482 58.0668 62.058 58.0059H62.063Z" fill="black"/>
</g>
<path d="M29.2323 69.1408C28.0464 69.1408 26.749 68.9936 25.3198 68.6587C22.8415 68.0751 21.0627 66.0045 20.1859 62.6703C17.2312 51.4547 24.2859 28.379 33.2158 20.0612C33.8087 19.371 43.6458 8.30259 58.9917 12.0124C74.9408 15.8642 71.7682 31.7183 71.7327 31.8807C71.7074 31.9974 69.0568 42.9237 55.6519 47.207C42.8703 51.2872 40.2806 61.3813 40.2603 61.4828C40.2248 61.6046 37.6908 69.1408 29.2323 69.1408ZM52.7733 12.4184C41.2232 12.4184 34.1686 20.7362 34.0875 20.8377L34.0368 20.8935C25.5124 28.8053 18.4983 51.678 21.3161 62.3709C22.0864 65.2991 23.5257 67.0347 25.5884 67.5219C36.1704 70.0188 39.0237 61.5284 39.1403 61.1681C39.2366 60.7672 41.8973 50.3737 55.3022 46.0956C61.9616 43.9692 65.7677 40.1528 67.7797 37.3261C69.969 34.2558 70.5924 31.6523 70.5975 31.627C70.7242 31.0281 73.5572 16.732 58.718 13.1441C56.6249 12.6366 54.6383 12.4184 52.7682 12.4184H52.7733Z" fill="black"/>
<path d="M21.4474 70.8609C21.4474 70.8609 32.4044 71.7591 32.7744 55.2402C33.1494 38.7264 22.8715 37.9347 22.8715 37.9347L20.0587 37.9043C20.0587 37.9043 9.76557 38.4727 9.78078 54.9916C9.79598 71.5105 20.7682 70.8507 20.7682 70.8507H21.4474V70.8609Z" fill="#F68E57"/>
<path d="M21.7568 71.4553C21.5845 71.4553 21.473 71.4502 21.4223 71.4451H20.7635C20.6469 71.4451 16.9321 71.6329 13.7139 68.5981C10.7237 65.7815 9.20334 61.2039 9.19827 54.9922C9.18813 46.2379 12.0972 41.9039 14.5349 39.808C17.226 37.4989 19.9121 37.3264 20.0236 37.3213L22.8768 37.3517C23.0238 37.3619 33.7376 38.3819 33.3575 55.2561C33.2156 61.4627 31.5989 66.0048 28.548 68.7605C25.8112 71.2269 22.7856 71.4553 21.7568 71.4553ZM21.4933 70.2829C21.549 70.2829 24.8939 70.5012 27.7878 67.8774C30.5802 65.345 32.0601 61.0922 32.1969 55.2307C32.5517 39.4528 22.9275 38.524 22.8312 38.519L20.054 38.4885C19.6941 38.5139 10.3487 39.265 10.3639 54.9922C10.369 60.8537 11.7576 65.142 14.4943 67.7303C17.3375 70.425 20.7027 70.2728 20.7331 70.2728L21.4933 70.2829Z" fill="black"/>
<path d="M14.6047 7.73808C14.6486 3.67145 11.4806 0.340075 7.52864 0.297251C3.57669 0.254427 0.337387 3.51637 0.29344 7.583C0.249493 11.6496 3.41755 14.981 7.36949 15.0238C11.3214 15.0667 14.5607 11.8047 14.6047 7.73808Z" fill="black"/>
<path d="M7.44483 15.3165C7.41949 15.3165 7.38908 15.3165 7.36374 15.3165C5.37201 15.2962 3.51205 14.4791 2.11834 13.0125C0.729707 11.5509 -0.0203599 9.62242 -8.78739e-05 7.57723C0.0455243 3.35489 3.41576 -0.0402391 7.53099 0.000360357C11.6361 0.0460347 14.9404 3.51729 14.8948 7.73962C14.8745 9.78482 14.0789 11.6981 12.6598 13.1292C11.256 14.54 9.41122 15.3165 7.4499 15.3165H7.44483ZM7.4499 0.583977C3.69956 0.583977 0.623278 3.70506 0.582734 7.5823C0.562462 9.47525 1.25678 11.2565 2.54406 12.6065C3.82627 13.9564 5.53926 14.7075 7.37388 14.7278C9.2085 14.7481 10.9367 14.0325 12.2442 12.7131C13.5569 11.3885 14.2917 9.62242 14.312 7.72947C14.3525 3.82686 11.3117 0.624576 7.52592 0.578902C7.50058 0.578902 7.47524 0.578902 7.45497 0.578902L7.4499 0.583977Z" fill="black"/>
<path d="M42.5939 8.03691C42.6379 3.97028 39.4698 0.638904 35.5179 0.596079C31.566 0.553255 28.3266 3.8152 28.2827 7.88183C28.2388 11.9485 31.4068 15.2798 35.3587 15.3227C39.3107 15.3655 42.55 12.1035 42.5939 8.03691Z" fill="black"/>
<path d="M35.4355 15.6156C35.4102 15.6156 35.3798 15.6156 35.3544 15.6156C33.3627 15.5953 31.5027 14.7782 30.109 13.3115C28.7204 11.85 27.9653 9.92149 27.9906 7.87629C28.0109 5.8311 28.8066 3.91785 30.2256 2.48672C31.6497 1.05559 33.53 0.274053 35.5166 0.299427C37.5083 0.319727 39.3683 1.13679 40.762 2.60344C42.1507 4.06502 42.9058 5.9935 42.8804 8.03869C42.8551 10.0839 42.0645 11.9971 40.6454 13.4283C39.2416 14.8391 37.3968 15.6156 35.4355 15.6156ZM35.4406 0.888119C33.6364 0.888119 31.9335 1.60368 30.6412 2.90286C29.3286 4.22742 28.5937 5.9935 28.5734 7.88644C28.5532 9.77939 29.2475 11.5607 30.5297 12.9106C31.8119 14.2606 33.5249 15.0116 35.3595 15.0319C37.1789 15.0522 38.9223 14.3367 40.2299 13.0172C41.5425 11.6926 42.2774 9.92656 42.2976 8.03362C42.3179 6.14067 41.6236 4.35937 40.3363 3.00944C39.0541 1.65951 37.3411 0.908418 35.5065 0.888119C35.4811 0.888119 35.4558 0.888119 35.4305 0.888119H35.4406Z" fill="black"/>
<path d="M42.753 25.179C42.8608 15.1988 33.5323 7.00619 21.9172 6.88032C10.3021 6.75446 0.798745 14.743 0.690891 24.7232C0.583038 34.7034 9.91153 42.896 21.5266 43.0218C33.1418 43.1477 42.6451 35.1592 42.753 25.179Z" fill="#F68E57"/>
<path d="M21.8025 43.6092C21.7113 43.6092 21.615 43.6092 21.5238 43.6092C15.7665 43.5483 10.3741 41.5589 6.32984 38.0115C2.26529 34.4337 0.055633 29.714 0.111381 24.7152C0.167129 19.7164 2.47815 15.0424 6.61872 11.561C10.7339 8.09989 16.1719 6.23739 21.9292 6.29321C33.8492 6.42008 43.4531 14.8952 43.3416 25.1821C43.2858 30.1809 40.9748 34.8549 36.8342 38.3363C32.7849 41.7416 27.4584 43.6041 21.8025 43.6041V43.6092ZM21.6505 7.46044C16.2733 7.46044 11.2103 9.23159 7.36878 12.4592C3.49175 15.7174 1.32771 20.0767 1.27703 24.7304C1.22635 29.3841 3.2941 33.7892 7.10018 37.1335C10.9316 40.4982 16.0554 42.3861 21.539 42.4419C27.0276 42.5079 32.1869 40.7266 36.0892 37.4482C39.9663 34.1901 42.1303 29.8307 42.181 25.177C42.2874 15.5347 33.1954 7.58732 21.9241 7.46552C21.8329 7.46552 21.7467 7.46552 21.6555 7.46552L21.6505 7.46044Z" fill="black"/>
<path d="M26.9362 58.0573C26.2318 58.0573 25.8111 57.5346 25.7605 57.4686C24.904 56.342 26.1355 54.7434 26.2825 54.5657C27.3822 53.028 26.3179 49.2574 25.8111 47.9379C25.6946 47.6385 25.8466 47.2984 26.1456 47.1868C26.4446 47.0701 26.7842 47.2223 26.8957 47.5217C27.1035 48.0648 28.8976 52.9164 27.2099 55.2712C26.8552 55.7228 26.4801 56.4841 26.6879 56.7581C26.6879 56.7581 26.8197 56.9104 26.9768 56.885C27.2353 56.8495 27.6863 56.413 28.1728 55.3067C28.3046 55.0123 28.6492 54.8804 28.9381 55.0073C29.2321 55.1392 29.3638 55.4792 29.2371 55.7736C28.6087 57.1996 27.9144 57.9406 27.1086 58.037C27.0477 58.0421 26.992 58.0471 26.9362 58.0471V58.0573Z" fill="black"/>
<path d="M29.1259 59.1584C28.7356 59.1584 28.4468 59.001 28.4062 58.9706C27.0885 58.0469 27.9501 55.7835 28.0515 55.5247C28.1731 55.2253 28.5076 55.0832 28.8066 55.1999C29.1056 55.3217 29.2475 55.6567 29.131 55.9561C28.8623 56.626 28.6799 57.6765 29.0093 57.9657C29.0549 57.981 29.1563 58.0063 29.2627 57.9505C29.3793 57.8896 29.7746 57.5902 29.9925 56.2098C30.0432 55.8901 30.3422 55.677 30.6564 55.7226C30.9757 55.7734 31.1886 56.0728 31.143 56.3874C30.92 57.8135 30.4638 58.6712 29.7493 59.0061C29.5263 59.1127 29.3185 59.1482 29.131 59.1482L29.1259 59.1584Z" fill="black"/>
<path d="M31.2389 59.6606C30.8132 59.6606 30.504 59.4424 30.4635 59.4119C29.3282 58.6253 29.8756 56.5953 29.9972 56.1944C30.0884 55.8848 30.4128 55.7123 30.7219 55.8036C31.0311 55.895 31.2034 56.2198 31.1122 56.5294C30.9196 57.1739 30.8182 58.2345 31.1426 58.4578C31.1426 58.4578 31.2186 58.5035 31.2693 58.4832C31.3453 58.4578 31.4822 58.3107 31.6089 57.9808C31.6139 57.9605 33.1039 53.2814 31.1882 46.821C31.097 46.5114 31.2744 46.1867 31.5784 46.0953C31.8876 46.004 32.2119 46.1816 32.3032 46.4861C34.3253 53.322 32.7694 58.1686 32.7035 58.3716C32.44 59.0567 32.07 59.4576 31.5936 59.5997C31.472 59.6352 31.3504 59.6504 31.2389 59.6504V59.6606Z" fill="black"/>
<path d="M15.6298 57.9356C15.5639 57.9356 15.498 57.9356 15.4271 57.9203C14.6263 57.8036 13.9472 57.0475 13.3492 55.6113C13.2276 55.3118 13.3644 54.9718 13.6634 54.85C13.9624 54.7282 14.302 54.8703 14.4236 55.1647C14.8848 56.2811 15.3257 56.7277 15.5842 56.7683C15.7413 56.7937 15.8832 56.6364 15.8883 56.6364C16.1011 56.3674 15.6957 55.5504 15.4068 55.1748C13.7546 52.7591 15.645 47.9481 15.868 47.4102C15.9896 47.1107 16.3292 46.9686 16.6282 47.0904C16.9272 47.2122 17.0691 47.5523 16.9475 47.8517C16.4154 49.161 15.2649 52.9012 16.3495 54.4897C16.4711 54.647 17.6672 56.271 16.7904 57.3723C16.7397 57.4382 16.314 57.9406 15.6298 57.9406V57.9356Z" fill="black"/>
<path d="M13.4152 58.9908C13.2226 58.9908 12.9996 58.9502 12.7716 58.8385C12.0671 58.4884 11.6313 57.6205 11.4387 56.1894C11.3931 55.8697 11.6211 55.5753 11.9353 55.5347C12.2496 55.4941 12.5486 55.7174 12.5891 56.0321C12.7817 57.4378 13.1719 57.7373 13.2885 57.7931C13.4152 57.854 13.5368 57.8032 13.5419 57.8032C13.8713 57.5799 13.7041 56.4685 13.4507 55.7936C13.3392 55.4941 13.4912 55.1541 13.7902 55.0425C14.0892 54.9308 14.4288 55.0831 14.5403 55.3825C14.6366 55.6413 15.4525 57.925 14.1501 58.7979C14.0791 58.8385 13.7953 58.9908 13.4101 58.9908H13.4152Z" fill="black"/>
<path d="M11.2965 59.448C11.1799 59.448 11.0481 59.4327 10.9164 59.3871C10.44 59.2348 10.0802 58.8237 9.84196 58.1589C9.77101 57.9306 8.32155 53.0485 10.4907 46.2582C10.587 45.9537 10.9164 45.7812 11.2205 45.8827C11.5245 45.9791 11.6969 46.309 11.5955 46.6135C9.53281 53.0586 10.9265 57.7428 10.9417 57.7885C11.0532 58.098 11.1901 58.2503 11.2661 58.2706C11.3066 58.2858 11.3826 58.2554 11.3826 58.2554C11.7121 58.0371 11.6512 56.9816 11.4637 56.3218C11.3776 56.0122 11.56 55.6925 11.8692 55.6012C12.1783 55.5149 12.5027 55.6976 12.5888 56.0072C12.7003 56.4081 13.2021 58.4482 12.0415 59.2196C12.006 59.245 11.707 59.4429 11.2965 59.4429V59.448Z" fill="black"/>
<path d="M1.15506 23.8976C1.15506 23.8976 17.2866 18.8278 43.022 24.2935C42.5861 14.7222 33.4687 7.00828 22.2025 6.88141C11.1999 6.75961 2.09265 13.9305 1.07397 23.1719C1.09931 23.4104 1.12465 23.654 1.15506 23.8976Z" fill="black"/>
<path d="M43.3263 24.6544L42.9563 24.5783C17.5909 19.1938 1.39857 24.1266 1.2364 24.1773L0.906974 24.2839L0.861362 23.9388C0.836022 23.7206 0.810682 23.5075 0.790409 23.2994L0.780273 23.1776V23.1471C1.81922 13.7382 11.2407 6.4557 22.2028 6.59272C33.5906 6.71452 42.86 14.4842 43.3111 24.2788L43.3263 24.6544ZM19.8715 21.4826C26.1812 21.4826 33.8896 22.0865 42.708 23.9287C42.0593 14.6213 33.1294 7.29306 22.1977 7.17634C11.5093 7.05454 2.38684 14.0833 1.36816 23.1776V23.2385C1.38337 23.3349 1.3935 23.4313 1.40364 23.5278C2.92404 23.1116 9.51247 21.4876 19.8715 21.4876V21.4826Z" fill="black"/>
<path d="M22.2387 21.3903C22.2516 18.2932 19.9682 15.7729 17.1384 15.7611C14.3087 15.7492 12.0042 18.2503 11.9912 21.3473C11.9783 24.4444 14.2617 26.9647 17.0915 26.9766C19.9212 26.9884 22.2257 24.4874 22.2387 21.3903Z" fill="#FFE800"/>
<path d="M17.1146 27.5572H17.0944C15.5588 27.5522 14.1245 26.8924 13.0501 25.71C11.9858 24.5377 11.4081 22.9898 11.4131 21.3455C11.4182 19.7013 12.0111 18.1585 13.0856 16.9963C14.1651 15.824 15.5993 15.1846 17.1248 15.1846H17.145C18.6807 15.1896 20.1149 15.8494 21.1893 17.0318C22.2536 18.2042 22.8314 19.752 22.8263 21.3963C22.8212 23.0406 22.2283 24.5833 21.1538 25.7455C20.0744 26.9178 18.6401 27.5572 17.1146 27.5572ZM17.1197 16.3467C15.9237 16.3467 14.7935 16.8593 13.937 17.788C13.0653 18.737 12.5788 20.0007 12.5737 21.3506C12.5686 22.7005 13.04 23.9693 13.9066 24.9284C14.758 25.8673 15.8932 26.39 17.0944 26.3951H17.1096C18.3056 26.3951 19.4358 25.8825 20.2923 24.9538C21.164 24.0048 21.6505 22.7411 21.6556 21.3912C21.6607 20.0413 21.1893 18.7725 20.3227 17.8134C19.4713 16.8745 18.336 16.3518 17.1349 16.3467H17.1197Z" fill="black"/>
<path d="M30.809 21.569C30.8219 18.472 28.5385 15.9517 25.7087 15.9398C22.879 15.9279 20.5745 18.429 20.5615 21.526C20.5486 24.6231 22.8321 27.1434 25.6618 27.1553C28.4916 27.1672 30.796 24.6661 30.809 21.569Z" fill="#FFE800"/>
<path d="M25.6793 27.735H25.6591C24.1235 27.7299 22.6892 27.0702 21.6148 25.8877C20.5505 24.7154 19.9727 23.1675 19.9778 21.5233C19.9829 19.879 20.5758 18.3362 21.6503 17.1741C22.7298 16.0017 24.164 15.3623 25.6895 15.3623H25.7097C27.2454 15.3674 28.6796 16.0271 29.754 17.2096C30.8183 18.3819 31.3961 19.9297 31.391 21.574C31.3859 23.2183 30.793 24.7611 29.7185 25.9232C28.6391 27.0955 27.2048 27.735 25.6793 27.735ZM25.6895 16.5245C24.4934 16.5245 23.3633 17.037 22.5068 17.9657C21.6351 18.9148 21.1485 20.1784 21.1435 21.5283C21.1384 22.8783 21.6097 24.147 22.4763 25.1062C23.3278 26.045 24.463 26.5677 25.6641 26.5728H25.6793C26.8754 26.5728 28.0056 26.0603 28.8621 25.1315C29.7338 24.1825 30.2203 22.9189 30.2253 21.5689C30.2304 20.219 29.7591 18.9503 28.8925 17.9911C28.041 17.0523 26.9058 16.5295 25.7047 16.5245H25.6895Z" fill="black"/>
<path d="M28.1402 21.3069C28.1455 20.0428 27.2149 19.0142 26.0617 19.0093C24.9086 19.0045 23.9695 20.0253 23.9642 21.2894C23.9589 22.5534 24.8894 23.582 26.0426 23.5869C27.1958 23.5917 28.1349 22.5709 28.1402 21.3069Z" fill="black"/>
<path d="M26.0447 23.8781H26.0346C24.7219 23.873 23.6577 22.7108 23.6678 21.2899C23.6678 20.6048 23.9161 19.9653 24.3621 19.4781C24.8132 18.9858 25.4213 18.7118 26.0548 18.722C27.3674 18.727 28.4317 19.8892 28.4216 21.3102C28.4165 22.7261 27.3472 23.8781 26.0396 23.8781H26.0447ZM26.0498 19.3005C25.5784 19.3005 25.1325 19.5035 24.7929 19.8689C24.4483 20.2444 24.2557 20.7468 24.2506 21.2848C24.2506 22.386 25.0514 23.2843 26.0396 23.2894H26.0447C27.033 23.2894 27.8388 22.4013 27.8438 21.3C27.8438 20.1988 27.0431 19.3005 26.0548 19.2954H26.0498V19.3005Z" fill="black"/>
<path d="M19.1675 21.4934C19.1728 20.2293 18.2423 19.2007 17.0891 19.1959C15.9359 19.191 14.9968 20.2118 14.9915 21.4759C14.9862 22.7399 15.9168 23.7686 17.0699 23.7734C18.2231 23.7782 19.1622 22.7574 19.1675 21.4934Z" fill="black"/>
<path d="M17.0791 24.0594H17.069C16.4304 24.0594 15.8273 23.7803 15.3813 23.2881C14.9404 22.8009 14.6972 22.1563 14.7022 21.4712C14.7022 20.7861 14.9506 20.1467 15.3965 19.6595C15.8476 19.1672 16.471 18.9033 17.0893 18.9033C18.4019 18.9084 19.4662 20.0706 19.456 21.4915C19.456 22.1766 19.2077 22.8161 18.7617 23.3033C18.3107 23.7905 17.7126 24.0594 17.0741 24.0594H17.0791ZM17.0791 19.4869C16.6078 19.4869 16.1618 19.6899 15.8223 20.0553C15.4776 20.4309 15.285 20.9333 15.28 21.4712C15.28 22.0092 15.4675 22.5167 15.8121 22.8922C16.1517 23.2627 16.5977 23.4708 17.0741 23.4708C17.5454 23.4758 17.9964 23.2728 18.3411 22.9024C18.6857 22.5268 18.8783 22.0244 18.8833 21.4865C18.8833 20.3852 18.0826 19.4869 17.0943 19.4819H17.0893L17.0791 19.4869Z" fill="black"/>
<path d="M24.8807 28.1795C24.8985 26.5287 23.3702 25.1738 21.467 25.1532C19.5637 25.1326 18.0064 26.454 17.9886 28.1048C17.9708 29.7555 19.4991 31.1105 21.4023 31.1311C23.3055 31.1517 24.8629 29.8302 24.8807 28.1795Z" fill="#EF3730"/>
<path d="M21.4478 31.7133C21.4478 31.7133 21.4123 31.7133 21.3971 31.7133C20.3379 31.7032 19.3395 31.3276 18.5894 30.6628C17.814 29.9777 17.3934 29.0642 17.4035 28.0949C17.4238 26.1258 19.2432 24.5374 21.4731 24.5678C23.6929 24.5932 25.487 26.2121 25.4667 28.1812C25.4464 30.135 23.6473 31.7082 21.4478 31.7082V31.7133ZM21.4224 25.735C19.8615 25.735 18.5843 26.7957 18.5691 28.1101C18.5641 28.7343 18.8428 29.3332 19.3598 29.7899C19.902 30.267 20.6268 30.5359 21.4072 30.5461C22.9885 30.5715 24.2859 29.4956 24.3011 28.171C24.3163 26.8465 23.0442 25.7503 21.463 25.735C21.4528 25.735 21.4376 25.735 21.4275 25.735H21.4224Z" fill="black"/>
<path d="M21.6304 35.4126C17.5253 35.4126 15.0065 33.8495 14.8545 33.7531C14.5808 33.5805 14.5048 33.2202 14.6771 32.9461C14.8494 32.6772 15.2093 32.596 15.4779 32.7685C15.5285 32.799 20.6878 35.9657 28.2493 32.8649C28.5483 32.7431 28.8878 32.8852 29.0095 33.1847C29.1311 33.4841 28.9892 33.8241 28.6902 33.9459C26.0193 35.0421 23.6374 35.4126 21.6304 35.4126Z" fill="black"/>
</g>
<defs>
<clipPath id="clip0_1062_4412">
<rect width="76" height="63" fill="white"/>
</clipPath>
</defs>
</svg>
