<svg width="57" height="65" viewBox="0 0 57 65" fill="none" xmlns="http://www.w3.org/2000/svg">
<g clip-path="url(#clip0_1062_4216)">
<path d="M28.1612 9.79372C30.5094 2.9369 33.8896 1.35943 33.8896 1.35943C39.5485 -1.24858 41.4154 3.48383 41.4154 3.48383C44.7319 11.5036 28.1032 15.0846 28.1032 15.0846L27.9235 15.0097C27.9235 15.0097 11.5268 11.5036 14.8374 3.48383C14.8374 3.48383 16.7044 -1.24858 22.3632 1.35943C22.3632 1.35943 25.7435 2.9369 28.0916 9.79372H28.1612Z" fill="#F5333F"/>
<path d="M28.0508 15.6829L27.7493 15.562C26.8738 15.372 17.11 13.1267 14.472 8.15249C13.6544 6.60956 13.5965 4.963 14.298 3.26463C14.327 3.18979 15.1271 1.20931 17.2376 0.363003C18.7799 -0.253017 20.583 -0.0918152 22.6007 0.835093C22.7399 0.898422 25.7664 2.37226 28.1204 8.22157C30.4744 2.37226 33.5009 0.904179 33.6401 0.84085C35.6578 -0.086058 37.461 -0.247259 39.009 0.36876C41.1195 1.20931 41.9196 3.19554 41.9544 3.27614C42.6444 4.95149 42.5864 6.58653 41.7747 8.11794C39.0496 13.2649 28.6654 15.5505 28.2248 15.6484L28.0508 15.6829ZM19.2089 1.15174C18.6581 1.15174 18.1479 1.24385 17.6724 1.43384C16.02 2.09016 15.3822 3.67915 15.3764 3.69066C14.7966 5.08966 14.843 6.36776 15.4982 7.61131C17.9507 12.2401 27.9407 14.4221 28.0392 14.4451L28.1494 14.4796C29.5003 14.163 38.4524 11.9177 40.7484 7.57677C41.4036 6.33897 41.4442 5.07239 40.876 3.69642C40.8644 3.67339 40.2034 2.07289 38.5626 1.42233C37.3276 0.938722 35.8375 1.08841 34.1329 1.87139C34.1097 1.8829 30.9266 3.47764 28.706 9.966L28.5727 10.3575H27.674L27.5406 9.966C25.32 3.47764 22.1427 1.8829 22.1079 1.86563C21.0527 1.38203 20.0844 1.14022 19.2031 1.14022L19.2089 1.15174Z" fill="black"/>
<path d="M28.8506 72.2133C28.8506 72.2133 8.38949 72.8063 2.08708 56.7898C2.08708 56.7898 -3.67612 38.2171 7.10813 23.6571C7.10813 23.6571 14.7615 12.3788 28.752 12.7185H28.5607C42.7194 12.5457 50.2046 23.6571 50.2046 23.6571C60.4496 37.8601 54.9995 57.1985 54.9995 57.1985C50.6974 72.4724 28.4621 72.2075 28.4621 72.2075" fill="#F280A1"/>
<path d="M28.6536 72.7886C26.4446 72.7886 7.57217 72.328 1.54226 56.9966C1.46689 56.7663 -4.19195 37.9403 6.63869 23.317C6.70247 23.2191 14.5993 11.8487 28.7 12.1423C42.8935 12.0617 50.6106 23.2249 50.686 23.34C60.96 37.5833 55.6143 57.1636 55.5621 57.3593C51.5209 71.712 31.9585 72.7137 28.8682 72.7828C28.8682 72.7828 28.787 72.7886 28.6594 72.7886H28.6536ZM28.1492 13.288C14.9994 13.288 7.66493 23.8697 7.58956 23.9791C-2.91639 38.1591 2.5859 56.4381 2.63808 56.6166C8.25633 70.8829 25.7257 71.6084 28.4681 71.6314C28.671 71.6314 50.3091 71.712 54.4431 57.0427C54.4953 56.8527 59.6903 37.7964 49.7351 23.9906C49.654 23.8697 42.3485 13.288 28.8798 13.288C28.8392 13.288 28.7928 13.288 28.7522 13.288H28.5609C28.4217 13.288 28.2826 13.288 28.1492 13.288Z" fill="black"/>
<path d="M41.8616 58.7979C41.7456 58.7979 41.6296 58.7864 41.5195 58.7691C40.6382 58.6079 40.2961 57.894 40.2613 57.8134C39.6235 56.3626 41.6992 55.1017 41.9427 54.9578C43.9082 53.674 43.9952 49.3849 43.8619 47.8419C43.8329 47.5253 44.0706 47.2432 44.3895 47.2202C44.7142 47.1914 44.9925 47.4274 45.0157 47.7441C45.0389 47.9974 45.5317 53.9906 42.5573 55.9365C41.9311 56.305 41.1774 57.0074 41.3281 57.3471C41.3339 57.3586 41.4615 57.5889 41.7514 57.6349C41.9949 57.6752 42.7139 57.6234 44.0358 56.3108C44.2619 56.0862 44.6272 56.0862 44.8533 56.3108C45.0794 56.5353 45.0794 56.898 44.8533 57.1225C43.7343 58.2337 42.7313 58.7921 41.8674 58.7921L41.8616 58.7979Z" fill="black"/>
<path d="M44.14 60.6407C43.4384 60.6407 42.9978 60.255 42.9398 60.2032C41.6642 58.8272 43.566 56.7316 43.7863 56.5013C44.0066 56.271 44.3719 56.2595 44.6038 56.4725C44.8357 56.6913 44.8473 57.054 44.6328 57.2843C44.1458 57.8024 43.4036 58.9251 43.7399 59.3626C43.8037 59.4087 44.0008 59.5238 44.2791 59.472C44.5748 59.4202 45.1836 59.1323 45.9316 57.8197C46.0881 57.5433 46.4418 57.4455 46.7201 57.6009C46.9984 57.7564 47.097 58.1075 46.9404 58.3839C46.1809 59.7253 45.3402 60.4738 44.4415 60.6119C44.3371 60.6292 44.2386 60.635 44.14 60.635V60.6407Z" fill="black"/>
<path d="M46.4998 61.8262H46.4882C45.7924 61.8262 45.375 61.3771 45.3286 61.3253C44.2038 60.122 45.7634 58.0437 45.949 57.8134C46.1461 57.5601 46.5114 57.5198 46.7607 57.7098C47.0158 57.9055 47.0622 58.2682 46.8651 58.5158C46.4592 59.0397 45.8388 60.1739 46.1925 60.5481C46.1925 60.5481 46.3201 60.692 46.5114 60.6747C46.7259 60.6747 46.9984 60.502 47.2767 60.1969C47.2941 60.1739 50.8715 55.7408 50.9063 48.3716C50.9063 48.055 51.1672 47.7959 51.4861 47.7959C51.8049 47.7959 52.0659 48.055 52.0659 48.3716C52.0311 56.1726 48.3088 60.7496 48.1522 60.9453C47.613 61.5326 47.068 61.8204 46.4998 61.8204V61.8262Z" fill="black"/>
<path d="M15.1329 59.1612C14.269 59.1612 13.2659 58.6028 12.1469 57.4916C11.9208 57.2671 11.9208 56.9044 12.1469 56.6799C12.373 56.4553 12.7383 56.4553 12.9644 56.6799C14.3037 58.0098 15.0169 58.0501 15.2604 57.9983C15.5503 57.9465 15.6721 57.7104 15.6721 57.7047C15.8228 57.365 15.0691 56.6626 14.4661 56.3114C11.4627 54.3482 11.9614 48.3607 11.9845 48.1017C12.0135 47.785 12.2918 47.5547 12.6107 47.5778C12.9296 47.6065 13.1673 47.8829 13.1383 48.1995C13.005 49.7425 13.0862 54.0258 15.0807 55.3269C15.2952 55.4536 17.3767 56.7144 16.7389 58.1595C16.7041 58.2458 16.3562 58.954 15.4807 59.1152C15.3706 59.1382 15.2546 59.144 15.1386 59.144L15.1329 59.1612Z" fill="black"/>
<path d="M12.8484 61.0035C12.7498 61.0035 12.6513 60.9978 12.5469 60.9805C11.6482 60.8423 10.8017 60.0881 10.0422 58.7525C9.88561 58.4761 9.98418 58.1249 10.2625 57.9695C10.5408 57.814 10.8945 57.9119 11.051 58.1883C11.8047 59.5239 12.4251 59.8003 12.7208 59.8463C13.0397 59.8924 13.2484 59.7254 13.2542 59.7254C13.6079 59.3397 12.8426 58.1825 12.3498 57.6528C12.1294 57.4225 12.1468 57.0541 12.3787 56.8411C12.6107 56.6223 12.9759 56.6338 13.1963 56.8699C13.4166 57.1059 15.3183 59.2015 14.0776 60.5429C13.9964 60.6235 13.5499 61.0093 12.8484 61.0093V61.0035Z" fill="black"/>
<path d="M10.4943 62.1897C9.93189 62.1897 9.38108 61.9018 8.85926 61.3376C8.67952 61.1246 4.96301 56.5419 4.92822 48.7466C4.92822 48.43 5.18333 48.1709 5.50802 48.1709C5.82691 48.1709 6.08782 48.4242 6.08782 48.7466C6.12261 56.1158 9.69997 60.5489 9.73475 60.5949C9.99566 60.8828 10.274 61.0497 10.4885 61.0497C10.6624 61.0497 10.7842 60.9346 10.7842 60.9346C11.1437 60.5546 10.5175 59.3974 10.1174 58.8908C9.92029 58.6375 9.96667 58.2805 10.2218 58.0848C10.4769 57.889 10.8364 57.9351 11.0335 58.1884C11.2132 58.4187 12.7787 60.4971 11.6423 61.7118C11.6075 61.7521 11.1843 62.2012 10.4943 62.2069H10.4827L10.4943 62.1897Z" fill="black"/>
<path d="M19.7594 29.4189C19.5217 29.4189 19.3014 29.275 19.2144 29.0447L18.0316 25.8898C17.9214 25.5904 18.0722 25.2622 18.3737 25.1471C18.6752 25.0377 19.0057 25.1874 19.1216 25.4867L20.3044 28.6417C20.4146 28.9411 20.2638 29.2692 19.9623 29.3844C19.8986 29.4074 19.829 29.4189 19.7594 29.4189Z" fill="black"/>
<path d="M24.8618 28.5846C24.827 28.5846 24.7922 28.5846 24.7574 28.573C24.4443 28.5155 24.2356 28.2161 24.2878 27.9052L24.7922 25.1418C24.8502 24.8309 25.1517 24.6179 25.4648 24.6754C25.7779 24.733 25.9866 25.0324 25.9344 25.3433L25.43 28.1067C25.3778 28.3831 25.1343 28.5788 24.8618 28.5788V28.5846Z" fill="black"/>
<path d="M22.2529 28.3719C21.9456 28.3719 21.6905 28.1359 21.6731 27.825L21.5224 25.0385C21.505 24.7219 21.7485 24.4513 22.0674 24.434C22.3979 24.4225 22.6588 24.6585 22.6762 24.9752L22.8269 27.7617C22.8443 28.0783 22.6008 28.3489 22.2819 28.3662C22.2703 28.3662 22.2587 28.3662 22.2471 28.3662L22.2529 28.3719Z" fill="black"/>
<path d="M36.7417 29.4189C36.6721 29.4189 36.6083 29.4074 36.5387 29.3844C36.2372 29.275 36.0865 28.9411 36.1966 28.6417L37.3794 25.4867C37.4896 25.1874 37.8259 25.0377 38.1274 25.1471C38.4289 25.2565 38.5796 25.5904 38.4695 25.8898L37.2867 29.0447C37.1997 29.275 36.9794 29.4189 36.7417 29.4189Z" fill="black"/>
<path d="M31.6394 28.5849C31.3669 28.5849 31.1176 28.3891 31.0712 28.1128L30.5668 25.3493C30.5088 25.0384 30.7175 24.739 31.0364 24.6815C31.3495 24.6239 31.651 24.8312 31.709 25.1478L32.2134 27.9113C32.2714 28.2221 32.0627 28.5215 31.7438 28.5791C31.709 28.5848 31.6742 28.5906 31.6394 28.5906V28.5849Z" fill="black"/>
<path d="M34.2487 28.3715C34.2487 28.3715 34.2255 28.3715 34.2197 28.3715C33.9008 28.3542 33.6573 28.0836 33.6747 27.767L33.8255 24.9805C33.8428 24.6639 34.1211 24.4221 34.4342 24.4393C34.7531 24.4566 34.9966 24.7272 34.9793 25.0439L34.8285 27.8303C34.8111 28.1355 34.556 28.3773 34.2487 28.3773V28.3715Z" fill="black"/>
<path d="M27.1521 52.9776C19.1799 52.9776 16.6229 47.9574 16.5186 47.7328C16.3446 47.3759 16.4954 46.9441 16.8549 46.7714C17.2143 46.5987 17.6492 46.7483 17.8231 47.0995C17.9275 47.3068 20.2931 51.8435 27.9754 51.5211C28.0972 51.5268 35.5708 51.642 39.3047 46.3108C39.5308 45.9826 39.983 45.902 40.3135 46.1323C40.644 46.3569 40.7252 46.8059 40.4933 47.1341C36.3071 53.1158 28.3233 52.9719 27.987 52.9604C27.7029 52.9719 27.4246 52.9776 27.1579 52.9776H27.1521Z" fill="black"/>
<path d="M33.4599 42.0513C37.1808 42.0513 40.1972 38.7082 40.1972 34.5843C40.1972 30.4603 37.1808 27.1172 33.4599 27.1172C29.739 27.1172 26.7227 30.4603 26.7227 34.5843C26.7227 38.7082 29.739 42.0513 33.4599 42.0513Z" fill="#FFD200"/>
<path d="M33.4601 42.6266C29.4247 42.6266 26.1431 39.0169 26.1431 34.5838C26.1431 30.1508 29.4247 26.541 33.4601 26.541C37.4955 26.541 40.7772 30.1508 40.7772 34.5838C40.7772 39.0169 37.4955 42.6266 33.4601 42.6266ZM33.4601 27.6867C30.0625 27.6867 27.3027 30.7783 27.3027 34.5781C27.3027 38.3778 30.0683 41.4694 33.4601 41.4694C36.8519 41.4694 39.6176 38.3778 39.6176 34.5781C39.6176 30.7783 36.8519 27.6867 33.4601 27.6867Z" fill="black"/>
<path d="M22.6294 41.8323C26.0813 41.8323 28.8796 38.7314 28.8796 34.9064C28.8796 31.0813 26.0813 27.9805 22.6294 27.9805C19.1775 27.9805 16.3792 31.0813 16.3792 34.9064C16.3792 38.7314 19.1775 41.8323 22.6294 41.8323Z" fill="#FFD200"/>
<path d="M22.6296 42.4075C18.8667 42.4075 15.7996 39.0453 15.7996 34.9059C15.7996 30.7665 18.8609 27.4043 22.6296 27.4043C26.3983 27.4043 29.4596 30.7665 29.4596 34.9059C29.4596 39.0453 26.3983 42.4075 22.6296 42.4075ZM22.6296 28.5615C19.5045 28.5615 16.9592 31.4113 16.9592 34.9117C16.9592 38.4121 19.5045 41.2619 22.6296 41.2619C25.7547 41.2619 28.3 38.4121 28.3 34.9117C28.3 31.4113 25.7547 28.5615 22.6296 28.5615Z" fill="black"/>
<path d="M27.6328 49.4032C30.7677 49.4032 33.309 47.2097 33.309 44.5039C33.309 41.798 30.7677 39.6045 27.6328 39.6045C24.4979 39.6045 21.9565 41.798 21.9565 44.5039C21.9565 47.2097 24.4979 49.4032 27.6328 49.4032Z" fill="#F5333F"/>
<path d="M27.633 49.9727C24.1832 49.9727 21.377 47.5202 21.377 44.5034C21.377 41.4866 24.1832 39.0283 27.633 39.0283C31.0828 39.0283 33.889 41.4809 33.889 44.5034C33.889 47.5259 31.0828 49.9727 27.633 49.9727ZM27.633 40.1798C24.821 40.1798 22.5366 42.1199 22.5366 44.5034C22.5366 46.8869 24.821 48.8213 27.633 48.8213C30.445 48.8213 32.7294 46.8811 32.7294 44.5034C32.7294 42.1257 30.445 40.1798 27.633 40.1798Z" fill="black"/>
<path d="M22.9136 37.9979C24.4922 37.9979 25.772 36.4565 25.772 34.5551C25.772 32.6537 24.4922 31.1123 22.9136 31.1123C21.3349 31.1123 20.0552 32.6537 20.0552 34.5551C20.0552 36.4565 21.3349 37.9979 22.9136 37.9979Z" fill="black"/>
<path d="M33.7847 37.9979C35.3633 37.9979 36.6431 36.4565 36.6431 34.5551C36.6431 32.6537 35.3633 31.1123 33.7847 31.1123C32.206 31.1123 30.9263 32.6537 30.9263 34.5551C30.9263 36.4565 32.206 37.9979 33.7847 37.9979Z" fill="black"/>
</g>
<defs>
<clipPath id="clip0_1062_4216">
<rect width="57" height="65" fill="white"/>
</clipPath>
</defs>
</svg>
