<svg width="65" height="70" viewBox="0 0 65 70" fill="none" xmlns="http://www.w3.org/2000/svg">
<g clip-path="url(#clip0_1062_4263)">
<path d="M42.0344 22.0395C42.0344 22.0395 48.5112 16.8633 53.7304 21.402C53.7304 21.402 56.2509 24.3987 55.1715 27.8477C55.1715 27.8477 59.9373 27.3955 61.2003 31.4819C61.2003 31.4819 62.3715 35.1162 59.4893 37.6552C59.4893 37.6552 64.8866 39.0174 64.4387 43.5561C64.4387 43.5561 64.7085 47.4627 60.8386 49.1845C60.8386 49.1845 64.4387 52.2738 63.1757 55.9026C63.1757 55.9026 61.9181 59.8093 57.6866 59.624C57.6866 59.624 60.1154 63.3454 57.1469 66.9796C57.1469 66.9796 54.0002 70.2488 49.6824 68.2491C49.6824 68.2491 50.492 73.1529 45.996 74.4224C45.996 74.4224 40.3288 75.8772 38.2616 71.8779C38.2616 71.8779 37.6301 76.1442 31.963 75.5993H33.0424C27.3752 76.1442 26.7437 71.8779 26.7437 71.8779C24.6766 75.8717 19.0094 74.4224 19.0094 74.4224C14.5134 73.1529 15.323 68.2491 15.323 68.2491C11.0051 70.2488 7.85849 66.9796 7.85849 66.9796C4.88996 63.3454 7.31876 59.624 7.31876 59.624C3.09265 59.8038 1.82968 55.9026 1.82968 55.9026C0.5721 52.2684 4.16672 49.1845 4.16672 49.1845C0.296837 47.4573 0.566703 43.5561 0.566703 43.5561C0.118725 39.0174 5.51605 37.6552 5.51605 37.6552C2.63928 35.1107 3.8051 31.4819 3.8051 31.4819C5.06268 27.3955 9.83391 27.8477 9.83391 27.8477C8.75445 24.3987 11.275 21.402 11.275 21.402C16.4942 16.8633 22.971 22.0395 22.971 22.0395C22.971 22.0395 24.682 16.1387 32.0547 16.2258C32.0547 16.2258 38.0835 15.1361 42.0398 22.0395H42.0344Z" fill="white"/>
<path d="M32.0709 76.2098C28.6382 76.2098 27.181 74.3682 26.5873 73.1095C24.0397 76.2425 19.0958 75.022 18.8691 74.9621C15.1935 73.9214 14.7239 70.6794 14.7239 69.0776C10.5302 70.4833 7.49153 67.3994 7.45914 67.3667C5.11131 64.4953 5.85614 61.5476 6.43905 60.1582C2.55837 59.8204 1.31699 56.1153 1.30619 56.0772C0.259111 53.0532 2.21294 50.4379 3.23843 49.3318C0.0324234 47.4684 0.0108342 44.0521 0.0270262 43.5781C-0.291416 40.1618 2.46122 38.2003 4.5122 37.4102C2.22914 34.7459 3.24383 31.4658 3.29241 31.3133C4.34489 27.8915 7.64805 27.3576 9.13771 27.2976C8.49003 23.9195 10.7569 21.1679 10.8595 21.0481C10.8757 21.0263 10.8972 21.0045 10.9188 20.9881C15.4688 17.027 20.9363 20.0237 22.712 21.1952C22.9819 20.5849 23.4892 19.6532 24.3474 18.727C25.6481 17.3158 28.0068 15.643 32.0116 15.6812C32.3192 15.6376 33.8035 15.4578 35.7088 16.019C37.5384 16.5584 40.113 17.9042 42.1963 21.2551C43.8695 20.1327 49.4503 16.9562 54.0812 20.9881C54.1028 21.0045 54.1244 21.0263 54.1406 21.0481C54.2432 21.1734 56.5154 23.9195 55.8624 27.2976C57.352 27.3576 60.6552 27.8915 61.7131 31.3187C61.7616 31.4604 62.7763 34.7404 60.4933 37.4048C62.5443 38.1948 65.2915 40.1563 64.9784 43.5726C64.9892 44.0466 64.9677 47.4629 61.7562 49.3264C62.7817 50.4324 64.741 53.0477 63.6885 56.0826C63.6777 56.1099 62.4417 59.8095 58.5556 60.1527C59.1385 61.5421 59.8942 64.4789 57.5679 67.3286C57.5085 67.3939 54.4699 70.4778 50.2761 69.0721C50.2761 70.674 49.8066 73.9159 46.1418 74.9512C45.9043 75.0111 40.9603 76.2316 38.4128 73.1041C37.7975 74.4117 36.2377 76.3514 32.5027 76.1934C32.357 76.1989 32.2167 76.2043 32.0763 76.2043L32.0709 76.2098ZM31.9576 75.071H33.0371C33.1126 75.071 33.1774 75.0874 33.2422 75.1146C37.1768 74.9566 37.7004 71.9544 37.722 71.8128C37.7597 71.5785 37.9378 71.3987 38.1699 71.3605C38.402 71.3224 38.6287 71.4368 38.7366 71.6439C40.5879 75.2181 45.8071 73.9268 45.8611 73.9105C49.8174 72.7935 49.1805 68.5327 49.1481 68.3529C49.1157 68.1567 49.1967 67.9551 49.3532 67.8298C49.5097 67.71 49.7256 67.6827 49.9037 67.7699C53.833 69.5843 56.7313 66.642 56.7583 66.6148C59.3976 63.3838 57.325 60.0765 57.2333 59.9402C57.1253 59.7713 57.1145 59.5479 57.2171 59.3736C57.3196 59.1938 57.5085 59.0903 57.7082 59.1012C61.481 59.2592 62.6468 55.7884 62.6576 55.7557C63.7856 52.5029 60.5149 49.6478 60.4825 49.6206C60.3421 49.5007 60.272 49.31 60.299 49.1248C60.326 48.9395 60.4447 48.7815 60.6174 48.7052C64.0987 47.1524 63.899 43.6489 63.8936 43.6108C63.8936 43.5781 63.8936 43.5508 63.8936 43.5181C64.293 39.508 59.5541 38.2493 59.349 38.2003C59.1547 38.1513 59.0036 37.9987 58.955 37.7971C58.9065 37.6009 58.9712 37.3939 59.1223 37.2577C61.7023 34.9802 60.6822 31.6947 60.6714 31.662C59.5541 28.0332 55.2525 28.3982 55.2093 28.4037C55.0312 28.42 54.8531 28.3438 54.7397 28.2021C54.6264 28.0604 54.5886 27.8697 54.6426 27.6954C55.5655 24.7422 53.5739 22.1051 53.331 21.7945C48.522 17.659 42.6065 22.274 42.3583 22.4756C42.2341 22.5737 42.0776 22.6118 41.9211 22.5846C41.7645 22.5573 41.635 22.4593 41.5541 22.323C37.8299 15.8283 32.1897 16.7655 32.1303 16.7764C32.0979 16.7818 32.0602 16.7873 32.0278 16.7873C31.9738 16.7873 31.9198 16.7873 31.8712 16.7873C25.1192 16.7873 23.4838 22.1541 23.4676 22.2086C23.419 22.383 23.2841 22.5192 23.1114 22.5737C22.9387 22.6282 22.7552 22.5955 22.6148 22.4811C22.3666 22.2849 16.4511 17.6645 11.6421 21.8C11.3992 22.1105 9.40758 24.764 10.3305 27.7008C10.3845 27.8752 10.3467 28.0659 10.2334 28.2075C10.12 28.3492 9.94191 28.4255 9.7638 28.4091C9.58569 28.3928 5.41356 28.055 4.30171 31.662C4.25853 31.8036 3.28701 34.9965 5.85074 37.2631C6.00187 37.3939 6.06663 37.6009 6.01806 37.8025C5.96948 37.9987 5.81836 38.1567 5.62405 38.2057C5.42435 38.2548 0.6855 39.5134 1.0795 43.5236C1.0795 43.5563 1.0795 43.5835 1.0795 43.6162C1.06871 43.7579 0.895996 47.1687 4.35568 48.7107C4.523 48.7869 4.64174 48.9449 4.66873 49.1302C4.69571 49.3155 4.62555 49.5007 4.48522 49.626C4.45283 49.6533 1.18745 52.5192 2.3047 55.7503C2.35327 55.9028 3.5029 59.2701 7.25944 59.112C7.45914 59.112 7.65345 59.2101 7.7506 59.3899C7.85315 59.5697 7.84235 59.7877 7.72901 59.9566C7.64265 60.0928 5.56468 63.4001 8.23636 66.6638C8.32272 66.751 11.1563 69.5952 15.064 67.7862C15.2421 67.7045 15.458 67.7263 15.6145 67.8462C15.771 67.9715 15.852 68.1676 15.8196 68.3692C15.7926 68.549 15.1557 72.8099 19.1228 73.9323C19.1605 73.9432 24.3906 75.2236 26.2364 71.6602C26.3444 71.4532 26.5765 71.3387 26.8032 71.3769C27.0352 71.415 27.2134 71.6003 27.2457 71.8346C27.2673 71.9708 27.7909 74.9784 31.7201 75.1364C31.7849 75.1092 31.8551 75.0928 31.9252 75.0928L31.9576 75.071Z" fill="black"/>
<path d="M16.532 22.2194L19.7704 4.14632C19.7704 4.14632 31.4664 -2.2122 43.8802 4.14632L47.0269 22.1267C47.0269 22.1267 32.9021 25.9408 16.532 22.2194Z" fill="#FF4438"/>
<mask id="mask0_1062_4263" style="mask-type:luminance" maskUnits="userSpaceOnUse" x="16" y="1" width="32" height="24">
<path d="M16.6238 22.399L19.8622 4.32601C19.8622 4.32601 31.5582 -2.03251 43.972 4.32601L47.1187 22.3064C47.1187 22.3064 32.9939 26.1204 16.6238 22.399Z" fill="white"/>
</mask>
<g mask="url(#mask0_1062_4263)">
<path d="M23.2862 0.00923814L19.7761 27.0703L21.9168 27.3533L25.4269 0.292204L23.2862 0.00923814Z" fill="white"/>
<path d="M28.0552 0.000922712L26.6638 27.2568L28.8199 27.369L30.2112 0.113087L28.0552 0.000922712Z" fill="white"/>
<path d="M35.064 0.000140673L32.908 0.112305L34.2993 27.3682L36.4554 27.2561L35.064 0.000140673Z" fill="white"/>
<path d="M40.0764 0.0139091L37.9358 0.296875L41.4459 27.3579L43.5865 27.075L40.0764 0.0139091Z" fill="white"/>
</g>
<path d="M31.4448 24.3823C26.9434 24.3823 21.789 23.9737 16.4186 22.7477C16.138 22.6823 15.9545 22.4045 16.0084 22.1211L19.2468 4.04809C19.2738 3.88463 19.3764 3.74297 19.5221 3.66669C19.6408 3.60131 31.6121 -2.75177 44.1285 3.66124C44.2796 3.73752 44.3876 3.88463 44.4146 4.05354L47.5612 22.0339C47.6098 22.3118 47.4371 22.5843 47.1672 22.6551C47.0701 22.6823 40.6095 24.3823 31.4448 24.3823ZM17.1581 21.7997C31.3314 24.8945 43.8424 22.3227 46.4116 21.7179L43.3999 4.51122C32.4001 -0.975525 21.9185 3.69938 20.2615 4.51122L17.1635 21.7997H17.1581Z" fill="black"/>
<path d="M41.8238 32.7735C41.5215 32.7735 41.2517 32.5664 41.1707 32.2613C41.1383 32.1415 40.4637 29.7223 37.765 29.6841C37.6085 29.6732 34.7425 29.5261 33.6145 31.8472C33.4903 32.0979 33.2312 32.245 32.956 32.2232C32.6807 32.2014 32.4486 32.0161 32.3623 31.7492C32.3191 31.6129 31.2342 28.3438 27.2672 28.4582C27.251 28.4582 24.8924 28.5781 23.4081 30.4306C23.176 30.7248 22.7496 30.7684 22.4582 30.5341C22.1667 30.2998 22.1235 29.8694 22.3556 29.5752C24.2393 27.2268 27.0999 27.1015 27.2186 27.096C30.5596 27.0034 32.2921 28.8995 33.0801 30.1909C34.8235 28.1531 37.6732 28.3165 37.8082 28.3274C40.7821 28.3656 42.1584 30.6976 42.4661 31.929C42.5578 32.294 42.3419 32.6645 41.9803 32.7571C41.9263 32.7735 41.867 32.7789 41.813 32.7789L41.8238 32.7735Z" fill="black"/>
<path d="M32.9182 57.3899C32.6645 57.3899 32.4055 57.3844 32.141 57.3735C31.8711 57.379 24.439 57.5152 20.5475 51.8595C20.337 51.5489 20.4126 51.124 20.7149 50.9115C21.0225 50.699 21.4435 50.7752 21.654 51.0804C25.1407 56.1421 32.0762 56.0114 32.1518 56.0114C39.3464 56.311 41.5593 52.0121 41.6511 51.8268C41.8184 51.489 42.2232 51.3528 42.5524 51.5163C42.8871 51.6797 43.022 52.0884 42.8601 52.4262C42.7575 52.6332 40.3827 57.3899 32.9182 57.3899Z" fill="black"/>
<path d="M19.2684 62.904C18.4642 62.904 17.5305 62.3755 16.4888 61.3239C16.2783 61.1114 16.2783 60.7681 16.4888 60.5556C16.6993 60.3431 17.0393 60.3431 17.2498 60.5556C18.4966 61.8142 19.1605 61.8469 19.3872 61.8033C19.657 61.7543 19.7704 61.5309 19.7704 61.5309C19.9107 61.2095 19.209 60.5447 18.6477 60.2124C15.8519 58.3544 16.3161 52.6878 16.3377 52.4426C16.3647 52.143 16.6237 51.925 16.9206 51.9468C17.2174 51.9741 17.4387 52.2356 17.4117 52.5353C17.2876 53.9955 17.3632 58.0493 19.2198 59.2806C19.4195 59.4005 21.3572 60.5938 20.7635 61.9614C20.7311 62.0431 20.4072 62.7133 19.5923 62.8658C19.4897 62.8876 19.3818 62.8931 19.2738 62.8931L19.2684 62.904Z" fill="black"/>
<path d="M17.142 64.648C17.0502 64.648 16.9585 64.6426 16.8613 64.6262C16.0248 64.4954 15.2421 63.7817 14.5297 62.5176C14.384 62.2561 14.4757 61.9237 14.7348 61.7766C14.9939 61.6295 15.3231 61.7221 15.4688 61.9836C16.1705 63.2477 16.7426 63.5092 17.0233 63.5528C17.3201 63.6019 17.5144 63.4384 17.5198 63.4384C17.8491 63.0734 17.1366 61.9782 16.6778 61.4769C16.4727 61.259 16.4889 60.9103 16.7048 60.7087C16.9207 60.5016 17.2607 60.5125 17.4658 60.7359C17.6709 60.9593 19.4413 62.9426 18.2862 64.2121C18.2107 64.2884 17.7951 64.6535 17.142 64.6535V64.648Z" fill="black"/>
<path d="M14.9505 65.7703C14.4269 65.7703 13.9142 65.4979 13.4284 64.9639C13.2611 64.7623 9.80143 60.4252 9.76904 53.0478C9.76904 52.7481 10.0065 52.5029 10.3088 52.5029C10.6056 52.5029 10.8485 52.7427 10.8485 53.0478C10.8809 60.022 14.211 64.2174 14.2434 64.261C14.4809 64.528 14.7346 64.686 14.9397 64.6915C15.1178 64.6915 15.2311 64.577 15.2365 64.5716C15.5604 64.2174 14.9775 63.1277 14.6104 62.6482C14.4269 62.4085 14.4701 62.0707 14.7076 61.8854C14.9451 61.7002 15.2797 61.7438 15.4632 61.9835C15.6305 62.2015 17.0878 64.1684 16.0299 65.3181C15.9976 65.3562 15.6036 65.7812 14.9613 65.7866H14.9505V65.7703Z" fill="black"/>
<path d="M44.1503 63.2416C44.0424 63.2416 43.9344 63.2307 43.8319 63.2144C43.0115 63.0618 42.693 62.3862 42.6607 62.3099C42.0669 60.9369 43.9992 59.7436 44.2259 59.6074C46.0556 58.3924 46.1365 54.3332 46.0124 52.8729C45.9854 52.5733 46.2067 52.3063 46.5036 52.2845C46.8058 52.2572 47.0649 52.4806 47.0865 52.7803C47.1081 53.02 47.5668 58.692 44.798 60.5337C44.2151 60.8824 43.5134 61.5471 43.6538 61.8686C43.6592 61.8795 43.7779 62.0974 44.0478 62.141C44.2745 62.1792 44.9437 62.1301 46.1743 60.8878C46.3848 60.6753 46.7248 60.6753 46.9353 60.8878C47.1458 61.1003 47.1458 61.4436 46.9353 61.6561C45.8937 62.7077 44.9599 63.2362 44.1557 63.2362L44.1503 63.2416Z" fill="black"/>
<path d="M46.2715 64.9853C45.6184 64.9853 45.2082 64.6203 45.1596 64.5712C43.9722 63.269 45.7425 61.2857 45.9476 61.0678C46.1527 60.8498 46.4928 60.8389 46.7087 61.0405C46.9245 61.2476 46.9353 61.5908 46.7356 61.8088C46.2823 62.2991 45.5914 63.3616 45.9044 63.7757C45.9638 63.8193 46.1473 63.9283 46.4064 63.8792C46.6817 63.8302 47.2484 63.5578 47.9446 62.3155C48.0904 62.054 48.4196 61.9613 48.6787 62.1084C48.9377 62.2556 49.0295 62.5879 48.8838 62.8495C48.1767 64.119 47.3941 64.8273 46.5521 64.9581C46.455 64.9744 46.3632 64.9799 46.2715 64.9799V64.9853Z" fill="black"/>
<path d="M48.4681 66.1083H48.4573C47.8096 66.1083 47.421 65.6833 47.3778 65.6343C46.3307 64.4956 47.7826 62.5286 47.9553 62.3107C48.1388 62.0709 48.4789 62.0328 48.7109 62.2126C48.9484 62.3978 48.9916 62.7411 48.8081 62.9754C48.4303 63.4712 47.8528 64.5446 48.182 64.8987C48.182 64.8987 48.3061 65.0295 48.4789 65.0186C48.6786 65.0186 48.9322 64.8552 49.1913 64.5664C49.2075 64.5446 52.5377 60.3492 52.57 53.3749C52.57 53.0753 52.8129 52.8301 53.1098 52.8301C53.4066 52.8301 53.6495 53.0753 53.6495 53.3749C53.6171 60.7578 50.152 65.0895 50.0063 65.2747C49.5044 65.8305 48.997 66.1029 48.4681 66.1029V66.1083Z" fill="black"/>
<path d="M27.3051 47.0487C30.5453 47.0487 33.172 43.8848 33.172 39.9819C33.172 36.079 30.5453 32.915 27.3051 32.915C24.0649 32.915 21.4382 36.079 21.4382 39.9819C21.4382 43.8848 24.0649 47.0487 27.3051 47.0487Z" fill="#FFD200"/>
<path d="M27.3051 47.5935C23.7752 47.5935 20.8984 44.1773 20.8984 39.9818C20.8984 35.7864 23.7698 32.3701 27.3051 32.3701C30.8403 32.3701 33.7117 35.7864 33.7117 39.9818C33.7117 44.1773 30.8403 47.5935 27.3051 47.5935ZM27.3051 33.4598C24.3689 33.4598 21.9779 36.3857 21.9779 39.9818C21.9779 43.5779 24.3689 46.5038 27.3051 46.5038C30.2412 46.5038 32.6322 43.5779 32.6322 39.9818C32.6322 36.3857 30.2412 33.4598 27.3051 33.4598Z" fill="black"/>
<path d="M24.3958 44.6186C26.1217 44.6186 27.5209 42.4598 27.5209 39.7966C27.5209 37.1335 26.1217 34.9746 24.3958 34.9746C22.6699 34.9746 21.2708 37.1335 21.2708 39.7966C21.2708 42.4598 22.6699 44.6186 24.3958 44.6186Z" fill="black"/>
<path d="M36.7288 46.8476C39.7335 46.8476 42.1693 43.913 42.1693 40.293C42.1693 36.6729 39.7335 33.7383 36.7288 33.7383C33.7241 33.7383 31.2883 36.6729 31.2883 40.293C31.2883 43.913 33.7241 46.8476 36.7288 46.8476Z" fill="#FFD200"/>
<path d="M36.7288 47.3924C33.431 47.3924 30.7485 44.2104 30.7485 40.2929C30.7485 36.3753 33.431 33.1934 36.7288 33.1934C40.0265 33.1934 42.709 36.3753 42.709 40.2929C42.709 44.2104 40.0265 47.3924 36.7288 47.3924ZM36.7288 34.2831C34.0301 34.2831 31.828 36.9801 31.828 40.2929C31.828 43.6057 34.0247 46.3027 36.7288 46.3027C39.4328 46.3027 41.6295 43.6057 41.6295 40.2929C41.6295 36.9801 39.4328 34.2831 36.7288 34.2831Z" fill="black"/>
<path d="M34.1975 45.06C35.8846 45.06 37.2523 42.9475 37.2523 40.3415C37.2523 37.7356 35.8846 35.623 34.1975 35.623C32.5103 35.623 31.1426 37.7356 31.1426 40.3415C31.1426 42.9475 32.5103 45.06 34.1975 45.06Z" fill="black"/>
<path d="M32.3731 54.006C35.1036 54.006 37.3171 51.93 37.3171 49.3692C37.3171 46.8084 35.1036 44.7324 32.3731 44.7324C29.6427 44.7324 27.4292 46.8084 27.4292 49.3692C27.4292 51.93 29.6427 54.006 32.3731 54.006Z" fill="#F5333F"/>
<path d="M32.3733 54.5512C29.3508 54.5512 26.8896 52.2301 26.8896 49.3695C26.8896 46.509 29.3508 44.1934 32.3733 44.1934C35.3958 44.1934 37.857 46.5145 37.857 49.3695C37.857 52.2246 35.3958 54.5512 32.3733 54.5512ZM32.3733 45.2831C29.9445 45.2831 27.9691 47.1193 27.9691 49.3695C27.9691 51.6198 29.9445 53.4614 32.3733 53.4614C34.8021 53.4614 36.7776 51.6253 36.7776 49.3695C36.7776 47.1138 34.8021 45.2831 32.3733 45.2831Z" fill="black"/>
</g>
<defs>
<clipPath id="clip0_1062_4263">
<rect width="65" height="70" fill="white"/>
</clipPath>
</defs>
</svg>
