<svg width="92" height="68" viewBox="0 0 92 68" fill="none" xmlns="http://www.w3.org/2000/svg">
<g clip-path="url(#clip0_1062_4313)">
<path d="M89.6313 85.8004C91.3968 85.3531 91.463 83.6226 91.463 83.6006C91.4703 82.728 91.2202 82.0313 90.72 81.5254C90.3743 81.1807 89.9771 80.9827 89.624 80.8654C91.4924 80.2275 91.3085 78.3943 91.3085 78.3723C91.1982 77.507 90.8524 76.8544 90.286 76.4217C89.9182 76.1431 89.521 76.0038 89.1679 75.9304C90.8009 75.1018 90.4846 73.3933 90.4773 73.3713C90.2934 72.5207 89.8888 71.8974 89.2856 71.5161C88.8443 71.2374 88.3809 71.1421 87.991 71.1128C89.6387 70.0349 89.0061 68.3043 88.9987 68.2823C88.6751 67.4757 88.1749 66.9258 87.5202 66.6471C87.1156 66.4785 86.7184 66.4345 86.3727 66.4491C87.9174 65.1585 87.0494 63.5013 87.0347 63.4793C86.6081 62.7241 86.0417 62.2401 85.3576 62.0494C84.8942 61.9174 84.4455 61.9468 84.085 62.0274C85.387 60.5975 84.3719 59.087 84.3572 59.065C83.8496 58.361 83.2391 57.9431 82.5329 57.8257C82.0695 57.7524 81.6429 57.8257 81.2971 57.9284C82.3343 56.3885 81.1794 55.0466 81.1647 55.0319C80.1717 53.9467 79.1566 53.9027 78.3989 54.1153C79.3258 52.7734 78.4357 51.4609 78.421 51.4462C77.9061 50.7423 77.2882 50.3316 76.582 50.2216C76.4055 50.1923 76.2363 50.1923 76.0671 50.1996C77.119 49.1364 76.6188 47.7651 76.6114 47.7505C76.2878 46.9439 75.7949 46.3939 75.1329 46.1152C74.9564 46.0419 74.7798 45.9979 74.6033 45.9613C75.8906 45.1913 75.7434 43.7321 75.7361 43.7101C75.6184 42.8448 75.2727 42.1922 74.7063 41.7669C74.412 41.5469 74.0957 41.4149 73.7941 41.3343C75.4198 40.7256 75.3609 39.0684 75.3609 39.0464C75.3021 38.1812 75.0005 37.4992 74.4635 37.0372C74.1546 36.7659 73.8015 36.6046 73.4852 36.5093C75.1256 35.8347 74.9858 34.1481 74.9858 34.1261C74.8902 33.2608 74.5518 32.6009 73.9927 32.1609C73.6397 31.8823 73.2498 31.7356 72.9041 31.6623C74.618 30.8557 74.2943 29.0958 74.287 29.0738C74.1031 28.2232 73.7059 27.5999 73.1027 27.2113C72.7349 26.9766 72.3524 26.8666 72.0067 26.8226C73.6323 25.8767 73.1689 24.1608 73.1615 24.1388C72.9114 23.3102 72.4627 22.7163 71.8301 22.3863C71.4182 22.1663 70.9915 22.1003 70.6311 22.0856C72.1832 20.9711 71.5212 19.2918 71.5138 19.2698C71.1681 18.4706 70.6605 17.9279 69.9985 17.664C69.5792 17.4953 69.1599 17.466 68.7995 17.4953C70.1456 16.1827 69.2703 14.6282 69.2629 14.6062C68.8142 13.8582 68.2331 13.3963 67.5416 13.2276C67.0635 13.1103 66.6148 13.1543 66.247 13.2423C67.4239 11.6951 66.2617 10.2798 66.247 10.2578C65.151 9.00392 63.9299 9.04791 63.0546 9.42189C63.8858 7.72801 62.5249 6.55476 62.5102 6.54009C61.0905 5.38884 59.8621 5.84348 59.1707 6.30544C59.7076 4.41358 58.0893 3.51898 58.0746 3.50431C56.4343 2.66104 55.3309 3.36499 54.7498 3.96628C54.8454 2.01575 53.0873 1.50246 53.0579 1.49512C51.5794 1.11382 50.6967 1.67844 50.1891 2.28707C50.1818 1.99375 50.1156 1.68578 49.939 1.41446C49.6816 1.00382 49.2329 0.747177 48.6003 0.65185C48.5782 0.65185 47.0187 0.512527 46.3714 1.81043C46.2611 1.51712 46.0919 1.22381 45.8197 0.996492C45.3784 0.622519 44.7605 0.46853 43.9734 0.549191C43.9513 0.549191 42.2374 0.769175 41.9432 2.55838C41.4945 1.89109 40.575 1.06249 38.8758 1.50246C38.8537 1.50246 37.0883 2.01575 37.1839 3.97361C36.6322 3.40899 35.5141 2.66837 33.8664 3.51898C33.8517 3.52631 32.2334 4.42091 32.7704 6.31278C32.0716 5.83614 30.8579 5.40351 29.4308 6.55476C29.4161 6.56942 28.0553 7.73534 28.9012 9.44388C28.1288 9.10658 26.8783 8.91592 25.694 10.2725C25.6793 10.2872 24.5171 11.7024 25.694 13.2496C24.929 13.0663 23.627 13.059 22.6855 14.6135C22.6781 14.6282 21.7954 16.1827 23.1489 17.4953C22.3471 17.444 21.126 17.6566 20.4346 19.2698C20.4346 19.2845 19.7652 20.9637 21.3246 22.0783C20.5155 22.1003 19.3091 22.4449 18.7869 24.1388C18.7869 24.1608 18.3161 25.8767 19.9491 26.8226C19.1473 26.9326 18.0292 27.3946 17.6614 29.0738C17.6614 29.0958 17.3378 30.8483 19.059 31.655C18.2499 31.8309 17.1686 32.3956 16.97 34.1334C16.97 34.1554 16.8302 35.8347 18.4632 36.5093C17.6761 36.7439 16.6978 37.3819 16.5875 39.0538C16.5875 39.0758 16.5286 40.7256 18.1469 41.3416C17.3672 41.5542 16.4256 42.1409 16.2123 43.7248C16.2123 43.7394 16.0578 45.1986 17.3451 45.9686C16.639 46.1006 15.8298 46.5406 15.337 47.7651C15.337 47.7798 14.8368 49.1437 15.8739 50.207C15.1531 50.1703 14.2924 50.4196 13.5274 51.4609C13.5201 51.4755 12.6226 52.7808 13.5495 54.13C12.7992 53.9174 11.7841 53.9687 10.7837 55.0539C10.769 55.0686 9.62144 56.4032 10.6586 57.9431C9.85683 57.6937 8.62104 57.6498 7.59857 59.087C7.59122 59.1017 6.56875 60.6122 7.87074 62.0421C7.09837 61.8881 5.8111 61.9321 4.92103 63.5013C4.91368 63.516 4.04569 65.1732 5.58306 66.4638C4.75921 66.4345 3.58962 66.7131 2.94966 68.297C2.94966 68.319 2.3097 70.0422 3.95741 71.1275C3.13356 71.1861 1.8757 71.5821 1.47848 73.386C1.47848 73.408 1.14747 75.1165 2.78783 75.9378C1.98604 76.0991 0.882656 76.6417 0.654624 78.3796C0.654624 78.4016 0.470727 80.2275 2.33912 80.8654C1.55204 81.1221 0.485439 81.804 0.500151 83.6006C0.500151 83.6226 0.566354 85.3458 2.33176 85.7931C1.5594 86.123 0.588421 86.8857 0.742895 88.6529C0.742895 88.6749 0.970927 90.5301 2.97173 90.728C2.28027 91.146 1.36814 92.0479 1.78007 93.7932C1.78007 93.8152 2.24349 95.5237 4.11924 95.5384C3.33216 96.2056 2.86139 97.2909 3.44986 98.7355C3.45721 98.7575 4.20751 100.466 6.17153 100.077C5.6272 100.708 5.11964 101.793 5.98764 103.289C5.99499 103.304 6.98804 104.895 8.87114 104.242C8.65782 104.565 8.4445 105.005 8.39301 105.526C8.32681 106.23 8.57691 106.926 9.14331 107.601C9.15802 107.615 10.3203 108.921 11.9753 108.129C11.8282 108.444 11.7105 108.825 11.7252 109.258C11.7399 109.955 12.071 110.607 12.7183 111.201C12.7477 111.231 13.4759 111.876 14.491 111.817C14.903 111.795 15.3002 111.649 15.6827 111.407C15.5576 111.744 15.4694 112.155 15.5282 112.609C15.6165 113.298 16.0211 113.907 16.7346 114.413C16.7419 114.42 17.3819 114.853 18.2205 114.853C18.6618 114.853 19.162 114.728 19.6549 114.354C19.5739 114.706 19.5445 115.117 19.6549 115.55C19.824 116.224 20.2875 116.782 21.0525 117.214C21.0598 117.214 21.5747 117.478 22.2441 117.478C22.7738 117.478 23.399 117.317 23.9654 116.767C23.9213 117.111 23.9286 117.515 24.0757 117.925C24.3111 118.578 24.8334 119.091 25.6352 119.443C25.6425 119.443 26.0692 119.619 26.643 119.619C27.2167 119.619 27.9449 119.436 28.5261 118.717C28.5187 119.062 28.5628 119.458 28.7467 119.847C29.041 120.463 29.6147 120.903 30.4533 121.159C30.4607 121.159 30.7402 121.233 31.1447 121.233C31.7553 121.233 32.6453 121.057 33.2559 120.177C33.2853 120.507 33.3662 120.873 33.5722 121.225C33.9253 121.812 34.5358 122.2 35.3964 122.376C35.3964 122.376 35.573 122.406 35.8304 122.406C36.4336 122.406 37.5223 122.237 38.1255 121.123C38.1843 121.43 38.302 121.768 38.5301 122.076C38.9346 122.626 39.5819 122.956 40.4573 123.051C40.4573 123.051 40.5014 123.051 40.6044 123.051C41.0531 123.051 42.4507 122.934 43.0466 121.562C43.1348 121.87 43.2967 122.208 43.5615 122.501C44.0249 123.007 44.7016 123.264 45.577 123.271C45.577 123.271 47.541 123.227 48.0265 121.416C48.3502 122.215 49.0931 123.22 50.8217 123.227C50.8806 123.227 52.3444 123.176 53.2271 122.2C53.514 121.878 53.6979 121.489 53.7861 121.049C54.382 122.222 55.5001 122.406 56.118 122.406C56.3754 122.406 56.5446 122.376 56.552 122.376C57.4052 122.2 58.0231 121.812 58.3762 121.225C58.5822 120.881 58.6705 120.507 58.6925 120.177C59.3031 121.057 60.1931 121.233 60.8037 121.233C61.2082 121.233 61.4878 121.159 61.5025 121.152C62.3337 120.903 62.9074 120.455 63.2017 119.839C63.3856 119.451 63.4371 119.055 63.4224 118.71C64.0035 119.429 64.7243 119.612 65.3055 119.612C65.8866 119.612 66.3059 119.436 66.3132 119.429C67.115 119.077 67.6373 118.571 67.8727 117.918C68.0198 117.507 68.0271 117.104 67.983 116.759C68.5494 117.309 69.1746 117.471 69.6969 117.471C70.3737 117.471 70.8886 117.214 70.8959 117.207C71.6462 116.781 72.117 116.224 72.2862 115.55C72.3965 115.117 72.3597 114.699 72.2862 114.354C72.779 114.728 73.2719 114.853 73.7132 114.853C74.5518 114.853 75.1918 114.42 75.2065 114.406C75.9126 113.892 76.3172 113.291 76.4128 112.602C76.4717 112.147 76.3834 111.737 76.2584 111.399C76.6409 111.641 77.0307 111.795 77.45 111.817C77.4868 111.817 77.5309 111.817 77.5677 111.817C78.5166 111.817 79.1934 111.223 79.2228 111.194C79.8701 110.6 80.2011 109.947 80.2158 109.251C80.2232 108.811 80.1055 108.429 79.9584 108.114C80.3409 108.297 80.7013 108.371 81.025 108.371C82.0916 108.371 82.783 107.601 82.7904 107.586C83.3494 106.919 83.5995 106.222 83.5407 105.518C83.4892 104.99 83.2759 104.55 83.0552 104.228C83.3789 104.338 83.6804 104.396 83.9526 104.396C85.262 104.396 85.9387 103.296 85.9534 103.282C86.3874 102.527 86.5125 101.801 86.3286 101.111C86.2109 100.679 85.9902 100.334 85.7622 100.07C85.9608 100.107 86.152 100.129 86.3286 100.129C87.8733 100.129 88.4838 98.7501 88.4912 98.7281C89.1017 97.2176 88.5427 96.1543 87.8292 95.5457C89.6976 95.531 90.1463 93.8152 90.1536 93.7932C90.3522 92.9426 90.2566 92.2093 89.8815 91.608C89.624 91.1973 89.2783 90.926 88.962 90.7354C90.9628 90.5374 91.1834 88.6822 91.1834 88.6602C91.257 87.7949 91.0657 87.0763 90.6097 86.5337C90.3081 86.1744 89.9329 85.9544 89.6019 85.8077L89.6313 85.8004Z" fill="white"/>
<path d="M45.5989 123.792C44.5617 123.792 43.7526 123.469 43.1862 122.846C43.12 122.773 43.0611 122.699 43.0023 122.626C42.1784 123.498 41.0309 123.579 40.6263 123.579C40.4865 123.579 40.4277 123.572 40.4203 123.572C39.3979 123.462 38.6182 123.059 38.1253 122.384C38.0812 122.318 38.0297 122.252 37.9929 122.186C36.941 123.125 35.5655 122.941 35.3301 122.897C35.3154 122.897 35.308 122.897 35.2933 122.89C34.3002 122.685 33.572 122.215 33.138 121.489C33.0865 121.401 33.035 121.306 32.9909 121.211C32.4833 121.57 31.8581 121.761 31.1666 121.761C30.6812 121.761 30.3428 121.665 30.3281 121.665C29.335 121.365 28.6509 120.829 28.2831 120.067C28.2316 119.964 28.1875 119.861 28.1581 119.751C27.6285 120.067 27.0841 120.147 26.6648 120.147C25.9807 120.147 25.4658 119.935 25.4511 119.927C24.5022 119.509 23.877 118.893 23.5901 118.094C23.546 117.977 23.5165 117.867 23.4871 117.742C23.1046 117.918 22.6927 118.006 22.266 118.006C21.4495 118.006 20.8243 117.691 20.8243 117.684C19.9195 117.17 19.3678 116.503 19.1618 115.674C19.1251 115.535 19.103 115.396 19.0883 115.256C18.8161 115.337 18.544 115.381 18.2497 115.381C17.2125 115.381 16.4475 114.838 16.4402 114.831C15.609 114.23 15.1308 113.504 15.0205 112.661C15.0058 112.536 14.9984 112.404 14.9984 112.272C14.8513 112.309 14.6968 112.331 14.5497 112.338C13.3433 112.404 12.4827 111.671 12.3944 111.583C11.6368 110.886 11.2396 110.101 11.2249 109.251C11.2249 109.126 11.2249 109.002 11.2396 108.877C10.0847 108.994 9.1652 108.371 8.77534 107.931C8.11331 107.139 7.81908 106.31 7.89264 105.452C7.90735 105.269 7.94413 105.093 7.98826 104.91C6.74512 104.895 5.88448 104.081 5.56082 103.546C4.86201 102.336 4.94293 101.346 5.23716 100.62C3.9131 100.437 3.18487 99.3956 2.98626 98.9116C2.53755 97.8043 2.5964 96.7484 3.13338 95.8831C1.68427 95.3772 1.30177 93.918 1.30177 93.896C0.978108 92.5101 1.36797 91.5715 1.89024 90.9628C0.433772 90.2882 0.249875 88.7117 0.249875 88.6897C0.124825 87.2598 0.647093 86.3798 1.24292 85.8519C0.316078 85.2286 0.0144872 84.1947 -0.000224595 83.6154C-0.0149364 82.1635 0.588246 81.3275 1.23556 80.8509C0.279299 80.0883 0.0954019 78.937 0.161605 78.3211C0.345502 76.9132 1.03695 76.1652 1.72841 75.7766C0.897193 74.8893 0.897193 73.7234 1.00018 73.2614C1.26499 72.0662 1.93437 71.2229 2.89799 70.8269C1.9638 69.6024 2.464 68.1798 2.49342 68.1065C3.00833 66.8232 3.83219 66.2733 4.57513 66.0533C3.92046 64.968 4.18527 63.8021 4.49422 63.2375C5.20038 61.9909 6.12722 61.5656 6.92166 61.463C6.47295 60.3557 6.85546 59.2778 7.20118 58.7792C8.04711 57.6059 9.01809 57.2833 9.81988 57.2686C9.45208 55.8167 10.4231 54.7021 10.4378 54.6874C11.2249 53.8295 12.034 53.5289 12.7328 53.4922C12.4827 52.4949 12.8431 51.5783 13.1447 51.153C13.7406 50.3391 14.3952 49.9505 14.9837 49.7818C14.4762 48.6745 14.8807 47.5893 14.8807 47.5746C15.2632 46.6287 15.8076 46.0861 16.3593 45.7781C15.5942 44.8322 15.7193 43.6809 15.7193 43.6662C15.8591 42.603 16.3225 41.789 17.0507 41.2831C16.2783 40.5938 16.065 39.6259 16.0871 39.0466C16.1754 37.6753 16.7785 36.8981 17.4038 36.4581C16.5284 35.6588 16.4181 34.5369 16.4696 34.0823C16.6314 32.689 17.2935 31.9411 17.9702 31.5378C17.1316 30.7018 17.0581 29.5799 17.1684 28.986C17.4626 27.6367 18.1835 26.9548 18.8823 26.6101C18.0732 25.6495 18.1614 24.4616 18.3086 23.9923C18.7205 22.6358 19.5296 22.0198 20.2726 21.7485C19.5958 20.7659 19.7356 19.6366 19.9636 19.072C20.53 17.7594 21.4054 17.2315 22.1851 17.0482C21.6187 15.9189 22.0012 14.7677 22.2513 14.3423C22.8766 13.3084 23.7666 12.7218 24.7965 12.6411C24.4139 11.4679 24.9068 10.3973 25.3114 9.92067C26.2897 8.79875 27.3269 8.5861 28.136 8.67409C27.9815 7.41285 28.7318 6.45225 29.1144 6.13694C30.2839 5.19101 31.3505 5.16901 32.145 5.41099C32.2259 3.81244 33.6235 3.05716 33.6382 3.04983C34.9991 2.35321 36.0657 2.58786 36.7792 2.98383C37.1396 1.70792 38.2651 1.1213 38.7653 0.996641C40.1702 0.630001 41.1339 1.02597 41.7518 1.53194C42.4579 0.204698 43.9291 0.021378 43.9438 0.021378C44.8854 -0.0739485 45.6357 0.124037 46.1947 0.593337C46.2903 0.673998 46.3713 0.761991 46.4522 0.849985C47.3128 0.0507092 48.5045 0.109372 48.6663 0.116704C49.5049 0.241362 50.0786 0.578671 50.4243 1.12863C50.4611 1.18729 50.4905 1.23862 50.52 1.29729C51.1379 0.893982 52.0132 0.666665 53.2196 0.974643C53.8375 1.15063 54.8599 1.75925 55.1983 2.9545C55.9339 2.54386 56.9858 2.33121 58.3393 3.02783C58.7953 3.26981 59.759 4.08375 59.8325 5.40366C60.6343 5.16167 61.7009 5.17634 62.8631 6.12227C63.3413 6.51824 64.0033 7.46418 63.8562 8.66676C64.6506 8.5861 65.6952 8.78408 66.6735 9.89867C67.0781 10.3826 67.5709 11.4532 67.1884 12.6191C67.3576 12.6338 67.5194 12.6558 67.6812 12.6998C68.5198 12.9051 69.2039 13.4477 69.7335 14.3204C69.991 14.7457 70.3735 15.8969 69.8071 17.0262C69.9469 17.0555 70.0793 17.0995 70.2043 17.1508C71.0061 17.4661 71.6093 18.1041 72.0139 19.0427C72.2492 19.6073 72.3964 20.7439 71.7196 21.7265C71.8447 21.7705 71.9697 21.8291 72.0874 21.8878C72.8451 22.2911 73.382 22.9877 73.6836 23.963C73.8308 24.425 73.9264 25.6202 73.1172 26.5808C73.2129 26.6321 73.3085 26.6835 73.3968 26.7421C74.1176 27.2041 74.5958 27.9447 74.8164 28.942C74.8164 28.964 75.1033 30.4452 74.0294 31.5158C74.1323 31.5818 74.2353 31.6478 74.331 31.7211C75.0077 32.2564 75.4049 33.0337 75.5226 34.0456C75.5226 34.0676 75.655 35.4682 74.5884 36.4288C74.6693 36.4874 74.7502 36.5461 74.8238 36.6121C75.4711 37.1767 75.8316 37.976 75.9051 38.9952C75.9272 39.4425 75.7727 40.5058 74.9341 41.2537C74.9709 41.2757 75.0003 41.2977 75.0298 41.3271C75.7139 41.8477 76.1331 42.6176 76.2656 43.6296C76.2656 43.6516 76.398 44.8028 75.6329 45.7561C76.2803 46.1227 76.7731 46.7167 77.1041 47.5453C77.1115 47.5673 77.5161 48.6525 77.0085 49.7598C77.7147 49.9578 78.3252 50.4124 78.8401 51.1237C79.0902 51.4683 79.5242 52.4216 79.2594 53.4775C79.9582 53.5142 80.7674 53.8075 81.5471 54.6654C81.8781 55.0174 82.4739 56.044 82.165 57.2539C82.3121 57.2539 82.4592 57.2686 82.599 57.2906C83.4449 57.4299 84.1805 57.9212 84.7763 58.7425C84.791 58.7572 85.6517 60.0184 85.0705 61.441C85.2103 61.4556 85.3501 61.485 85.4825 61.5216C86.3137 61.7489 86.9831 62.3136 87.4906 63.2008C87.7996 63.7728 88.0644 64.9387 87.4171 66.024C87.52 66.0533 87.623 66.09 87.726 66.134C88.5205 66.4713 89.1089 67.1166 89.4914 68.0625C89.6827 68.5318 89.8739 69.7637 89.0942 70.7976C89.2634 70.8636 89.4179 70.9443 89.5723 71.0396C90.3006 71.5016 90.7787 72.2349 90.9994 73.2321C90.9994 73.2541 91.2789 74.6767 90.2712 75.7473C90.3888 75.8133 90.4992 75.8866 90.6022 75.9672C91.2863 76.4879 91.6982 77.2652 91.8306 78.2771C91.8894 78.783 91.7717 80.015 90.7566 80.8216C90.8743 80.9096 90.992 81.0122 91.095 81.1149C91.6982 81.7235 91.9998 82.5521 91.9924 83.5714C91.9924 84.0407 91.7276 85.1626 90.7419 85.8445C90.8449 85.9399 90.9479 86.0425 91.0362 86.1452C91.5879 86.7978 91.8232 87.6484 91.735 88.6603C91.735 88.6823 91.5584 90.2662 90.102 90.9408C90.1902 91.0508 90.2712 91.1608 90.3521 91.2781C90.8081 92.0041 90.9258 92.8767 90.6904 93.8666C90.536 94.4606 89.9843 95.4578 88.8588 95.8611C89.3958 96.7264 89.4546 97.7824 89.0059 98.8823C88.9765 98.9556 88.3439 100.378 86.755 100.591C86.7992 100.701 86.836 100.811 86.8654 100.921C87.0934 101.749 86.9463 102.615 86.4387 103.495C86.3431 103.649 85.5413 104.866 83.9966 104.873C84.0481 105.049 84.0775 105.232 84.0996 105.408C84.1805 106.266 83.8862 107.095 83.2316 107.872C83.1948 107.916 82.3709 108.848 81.0469 108.848C80.9512 108.848 80.8556 108.848 80.76 108.833C80.7747 108.958 80.7821 109.082 80.7747 109.2C80.76 110.05 80.3628 110.835 79.6051 111.524C79.5683 111.561 78.6783 112.353 77.4425 112.287C77.2954 112.279 77.1409 112.257 76.9938 112.221C76.9938 112.353 76.9938 112.477 76.9717 112.609C76.8614 113.453 76.3832 114.178 75.552 114.78C75.5153 114.802 74.765 115.322 73.7425 115.322C73.4556 115.322 73.1761 115.278 72.9039 115.198C72.8892 115.337 72.8671 115.476 72.8304 115.616C72.6244 116.437 72.0727 117.112 71.19 117.61C71.1017 117.654 70.4985 117.94 69.7188 117.94C69.2922 117.94 68.8803 117.852 68.4977 117.676C68.4757 117.794 68.4389 117.911 68.3948 118.028C68.1079 118.828 67.49 119.443 66.5484 119.854C66.5264 119.861 66.0115 120.081 65.32 120.081C64.9007 120.081 64.3564 120.001 63.8268 119.685C63.79 119.795 63.7458 119.898 63.7017 120.001C63.3413 120.756 62.6572 121.291 61.6715 121.592C61.5906 121.614 61.2669 121.695 60.8182 121.695C60.1267 121.695 59.5015 121.504 58.9939 121.145C58.9498 121.24 58.9057 121.335 58.8468 121.423C58.4128 122.149 57.6846 122.619 56.6695 122.824C56.6033 122.839 56.4047 122.868 56.1252 122.868C55.2572 122.868 54.5069 122.582 53.9478 122.061C53.8595 122.215 53.7492 122.355 53.6315 122.487C52.6164 123.608 51.0202 123.682 50.8363 123.689C49.6593 123.689 48.7104 123.264 48.0778 122.479C47.1804 123.711 45.5989 123.726 45.5768 123.726L45.5989 123.792ZM43.0685 121.013C43.0685 121.013 43.0905 121.013 43.0979 121.013C43.3259 121.027 43.5172 121.181 43.5834 121.394C43.6716 121.68 43.804 121.929 43.9806 122.12C44.3337 122.509 44.878 122.714 45.5989 122.714C45.6504 122.714 47.151 122.655 47.5335 121.255C47.5923 121.035 47.7909 120.873 48.019 120.859C48.247 120.844 48.4677 120.983 48.5486 121.196C48.9385 122.171 49.7108 122.67 50.8436 122.67C50.8436 122.67 52.1235 122.626 52.8518 121.819C53.0651 121.585 53.2122 121.284 53.2858 120.917C53.3299 120.697 53.5138 120.529 53.7418 120.492C53.9625 120.463 54.1906 120.58 54.2935 120.785C54.7349 121.658 55.544 121.841 56.1399 121.841C56.3458 121.841 56.4782 121.819 56.4782 121.819C57.1697 121.68 57.6625 121.372 57.9347 120.917C58.0745 120.683 58.1554 120.411 58.1774 120.103C58.1922 119.876 58.354 119.685 58.5747 119.627C58.7953 119.568 59.0307 119.649 59.1558 119.839C59.9355 120.969 61.3772 120.602 61.3846 120.602C62.0466 120.404 62.5101 120.052 62.7381 119.575C62.8631 119.319 62.9146 119.025 62.9073 118.696C62.9073 118.468 63.0397 118.256 63.2604 118.175C63.481 118.094 63.7164 118.16 63.8635 118.344C64.2387 118.806 64.7315 119.047 65.3274 119.047C65.7834 119.047 66.1291 118.908 66.1291 118.908C66.7765 118.622 67.2031 118.219 67.387 117.713C67.4826 117.442 67.5121 117.134 67.4679 116.804C67.4385 116.576 67.5562 116.356 67.7622 116.254C67.9681 116.151 68.2109 116.188 68.38 116.349C68.7626 116.723 69.2113 116.906 69.7188 116.906C70.2558 116.906 70.6751 116.701 70.6824 116.701C71.2783 116.364 71.6534 115.916 71.7858 115.388C71.8594 115.095 71.8594 114.78 71.7858 114.435C71.7343 114.215 71.83 113.988 72.0212 113.871C72.2125 113.746 72.4552 113.761 72.6391 113.893C72.9775 114.149 73.3526 114.281 73.7425 114.281C74.3972 114.281 74.9268 113.937 74.9268 113.929C75.5005 113.519 75.8316 113.035 75.8978 112.499C75.9345 112.199 75.8978 111.883 75.7727 111.553C75.6918 111.333 75.758 111.091 75.9419 110.945C76.1258 110.798 76.3759 110.791 76.5745 110.915C76.8908 111.121 77.1924 111.231 77.5013 111.245H77.5896C78.3326 111.245 78.8769 110.769 78.8842 110.769C79.4139 110.285 79.6934 109.757 79.7007 109.214C79.7007 108.921 79.6345 108.62 79.4948 108.32C79.3992 108.114 79.4433 107.872 79.6051 107.711C79.767 107.55 80.0097 107.513 80.2157 107.608C80.5025 107.748 80.7821 107.814 81.0542 107.814C81.8634 107.814 82.4151 107.212 82.4224 107.205C82.8785 106.662 83.0918 106.098 83.0403 105.54C83.0109 105.188 82.8785 104.844 82.6431 104.499C82.5107 104.309 82.5181 104.052 82.6578 103.869C82.7976 103.685 83.0403 103.612 83.261 103.693C84.7395 104.213 85.4972 103.011 85.5193 102.974C85.8723 102.365 85.9827 101.771 85.8356 101.229C85.7546 100.935 85.6002 100.657 85.3795 100.4C85.2324 100.224 85.2103 99.9749 85.3206 99.7769C85.431 99.5789 85.6664 99.4762 85.887 99.5202C86.0562 99.5496 86.2107 99.5715 86.3505 99.5715C87.5201 99.5715 87.9982 98.5376 88.0203 98.4936C88.5425 97.1957 88.0202 96.3818 87.498 95.9272C87.3288 95.7805 87.27 95.5458 87.3435 95.3332C87.4171 95.1205 87.623 94.9812 87.8437 94.9812C89.2487 94.9665 89.6165 93.764 89.6533 93.632C89.8151 92.9427 89.7415 92.3487 89.4473 91.8721C89.2781 91.6008 89.028 91.3661 88.7117 91.1755C88.5131 91.0582 88.4101 90.8235 88.4616 90.5962C88.5131 90.3689 88.7043 90.2002 88.9324 90.1782C90.4477 90.0316 90.6537 88.719 90.6757 88.5723C90.7346 87.8684 90.5875 87.2818 90.2197 86.8565C90.0137 86.6145 89.7415 86.4238 89.4105 86.2772C89.1972 86.1892 89.0721 85.9692 89.0869 85.7419C89.1016 85.5146 89.2708 85.3239 89.4914 85.2652C90.8376 84.9206 90.9185 83.6227 90.9185 83.564C90.9185 82.8528 90.7272 82.2881 90.33 81.8848C90.102 81.6575 89.8077 81.4815 89.4473 81.3642C89.2266 81.2909 89.0795 81.0855 89.0795 80.8582C89.0795 80.6309 89.2266 80.4256 89.4399 80.3449C90.8523 79.8683 90.7714 78.5631 90.764 78.4164C90.6684 77.7125 90.3962 77.1772 89.9475 76.8399C89.7047 76.6492 89.4032 76.5245 89.0501 76.4512C88.822 76.4072 88.6529 76.2239 88.6234 75.9966C88.594 75.7693 88.7117 75.5493 88.9103 75.4466C90.1608 74.816 89.9475 73.5181 89.9328 73.4668C89.7783 72.7775 89.462 72.2642 88.9839 71.9635C88.697 71.7802 88.3439 71.6702 87.9467 71.6482C87.7187 71.6336 87.5201 71.4722 87.4612 71.2523C87.4024 71.0323 87.4906 70.7976 87.6892 70.6656C88.9397 69.8517 88.5352 68.6051 88.4837 68.4658C88.2189 67.8058 87.8216 67.3585 87.2994 67.1385C87.0272 67.0212 86.7109 66.9699 86.3799 66.9846C86.1371 66.9919 85.9385 66.8526 85.8576 66.6399C85.7767 66.4273 85.8356 66.1853 86.0121 66.0386C87.1817 65.0634 86.6153 63.8608 86.5417 63.7288C86.196 63.1128 85.7399 62.7169 85.1956 62.5702C84.8866 62.4822 84.5409 62.4822 84.1731 62.5555C83.9451 62.5995 83.7097 62.4969 83.5994 62.2989C83.4817 62.0936 83.5111 61.8443 83.6656 61.6756C84.6513 60.5977 83.9745 59.4978 83.8936 59.3731C83.4817 58.8012 82.9815 58.4565 82.4298 58.3612C82.1208 58.3098 81.7825 58.3392 81.4367 58.4492C81.2234 58.5152 80.9807 58.4418 80.8483 58.2585C80.7085 58.0752 80.7085 57.8259 80.8336 57.6426C81.628 56.462 80.7821 55.4354 80.7453 55.3987C80.0833 54.6728 79.333 54.4235 78.5312 54.6508C78.3105 54.7094 78.0825 54.6288 77.9501 54.4455C77.8176 54.2621 77.8176 54.0128 77.9501 53.8295C78.6562 52.8029 78.0015 51.8057 77.9721 51.769C77.5528 51.197 77.0526 50.8597 76.5009 50.7717C76.3832 50.7571 76.2582 50.7497 76.1037 50.7571C75.883 50.7717 75.6771 50.6471 75.5815 50.4418C75.4932 50.2364 75.53 50.0018 75.6918 49.8478C76.4862 49.0412 76.1258 47.9999 76.1111 47.9559C75.8463 47.3033 75.4491 46.8487 74.9268 46.6287C74.8091 46.5774 74.6767 46.5407 74.5075 46.5114C74.2868 46.4747 74.1176 46.2987 74.0735 46.0787C74.0367 45.8587 74.1323 45.6388 74.3236 45.5214C75.2946 44.9348 75.2063 43.8349 75.199 43.7836C75.1033 43.0869 74.8238 42.5517 74.3751 42.207C74.1691 42.053 73.9337 41.943 73.6469 41.8624C73.4188 41.8037 73.257 41.6057 73.2496 41.3711C73.2349 41.1364 73.382 40.9238 73.5954 40.8431C74.8385 40.3811 74.8164 39.1272 74.8164 39.0759C74.7723 38.372 74.5296 37.8147 74.1029 37.448C73.8896 37.2647 73.6248 37.118 73.3158 37.03C73.0952 36.9641 72.9481 36.7661 72.9333 36.5461C72.926 36.3188 73.0584 36.1134 73.2644 36.0255C74.5149 35.5122 74.4339 34.2362 74.4339 34.1849C74.353 33.481 74.0882 32.9383 73.6469 32.5937C73.4041 32.403 73.1172 32.2711 72.7715 32.1977C72.5508 32.1464 72.3816 31.9631 72.3522 31.7358C72.3302 31.5084 72.4478 31.2885 72.6612 31.1931C73.9558 30.5845 73.7719 29.3306 73.7425 29.1913C73.5954 28.502 73.2717 27.9887 72.8009 27.6807C72.5508 27.5194 72.2566 27.4167 71.9256 27.3727C71.6975 27.3434 71.5137 27.1674 71.4695 26.9474C71.4254 26.7201 71.5284 26.4928 71.727 26.3828C72.9775 25.6569 72.6465 24.359 72.6317 24.3076C72.4258 23.6257 72.0653 23.1417 71.5651 22.8777C71.2856 22.7311 70.962 22.6504 70.6015 22.6431C70.3735 22.6431 70.1675 22.4818 70.1013 22.2618C70.0351 22.0418 70.116 21.7998 70.2999 21.6678C71.4695 20.8245 71.0502 19.622 70.9987 19.4826C70.7192 18.83 70.3073 18.3901 69.785 18.1847C69.4981 18.0747 69.1818 18.0234 68.8288 18.0527C68.6081 18.0674 68.3948 17.9428 68.2991 17.7374C68.2035 17.5321 68.255 17.2901 68.4168 17.1361C69.454 16.1316 68.814 14.9436 68.7846 14.8996C68.4168 14.291 67.9534 13.9097 67.4017 13.7777C67.0854 13.6971 66.7323 13.7044 66.3645 13.7924C66.1439 13.8437 65.9158 13.7557 65.7908 13.5651C65.6657 13.3744 65.6731 13.1251 65.8128 12.9491C66.7029 11.7759 65.9232 10.7419 65.8276 10.6246C64.8934 9.55403 63.915 9.66402 63.2604 9.94266C63.0544 10.0307 62.8116 9.97933 62.6572 9.81801C62.5027 9.65669 62.4659 9.4147 62.5615 9.21672C63.1868 7.94081 62.26 7.07554 62.1496 6.98021C61.2596 6.25426 60.3474 6.18827 59.4647 6.78223C59.2808 6.90688 59.0307 6.90688 58.8468 6.77489C58.6629 6.6429 58.582 6.40825 58.6482 6.1956C59.0528 4.7657 57.9347 4.08375 57.8096 4.01042C56.7725 3.48246 55.875 3.59979 55.1321 4.36973C54.9776 4.53105 54.7349 4.58238 54.5289 4.49439C54.323 4.4064 54.1906 4.20108 54.2053 3.97376C54.2788 2.49987 53.043 2.0819 52.9033 2.04523C51.9323 1.79592 51.1452 2.00124 50.6009 2.66119C50.4611 2.83718 50.2257 2.90317 50.0124 2.82984C49.7991 2.75651 49.652 2.55853 49.652 2.33854C49.652 2.09656 49.5858 1.89858 49.4828 1.72992C49.3062 1.45128 48.9899 1.28262 48.5192 1.20929C48.4309 1.20929 47.3202 1.15063 46.8567 2.07456C46.7611 2.26522 46.5625 2.38254 46.3492 2.37521C46.1359 2.36054 45.9446 2.22855 45.8711 2.02323C45.7828 1.77392 45.643 1.57593 45.4738 1.42928C45.1502 1.15063 44.6647 1.04064 44.0321 1.10663C43.9879 1.10663 42.7007 1.30462 42.48 2.66852C42.4432 2.88851 42.2814 3.05716 42.0607 3.10849C41.8474 3.15249 41.6194 3.06449 41.5017 2.88117C40.9426 2.04523 40.1114 1.76659 39.0154 2.04523C38.8903 2.0819 37.6545 2.49253 37.7281 3.96643C37.7354 4.18641 37.6104 4.39906 37.4044 4.48706C37.1985 4.57505 36.9557 4.52372 36.8012 4.36973C36.2937 3.84177 35.411 3.35047 34.1164 4.01776C33.9987 4.08375 32.8879 4.75837 33.2851 6.18827C33.344 6.40825 33.2631 6.63557 33.0792 6.76756C32.8953 6.89955 32.6452 6.89955 32.4613 6.76756C31.5859 6.1736 30.6812 6.24693 29.769 6.98021C29.6734 7.06821 28.7466 7.93348 29.3792 9.21672C29.4821 9.42204 29.438 9.66402 29.2835 9.82534C29.1291 9.98666 28.8863 10.038 28.6804 9.94266C27.7314 9.5247 26.8561 9.75934 26.0984 10.6319C26.0175 10.7346 25.2304 11.7685 26.1205 12.9344C26.2603 13.1178 26.2676 13.3598 26.1426 13.5504C26.0175 13.7411 25.7895 13.8291 25.5688 13.7777C24.5537 13.5431 23.7372 13.917 23.1414 14.8996C23.1193 14.9363 22.4867 16.1169 23.5239 17.1215C23.6857 17.2755 23.7298 17.5175 23.6416 17.7228C23.5533 17.9281 23.3326 18.0527 23.112 18.0381C22.1042 17.9721 21.3686 18.4561 20.9273 19.49C20.8831 19.6073 20.4638 20.8172 21.6334 21.6532C21.8173 21.7851 21.8982 22.0271 21.832 22.2471C21.7658 22.4671 21.5672 22.6211 21.3318 22.6284C20.3094 22.6578 19.6253 23.2224 19.2943 24.3076C19.2869 24.3516 18.9632 25.6422 20.2137 26.3681C20.4123 26.4855 20.5153 26.7128 20.4712 26.9328C20.4271 27.1601 20.2432 27.3287 20.0151 27.3581C19.0368 27.4901 18.4189 28.106 18.1835 29.1913C18.1614 29.3159 17.9849 30.5698 19.2795 31.1711C19.4855 31.2665 19.6106 31.4864 19.5885 31.7138C19.5664 31.9411 19.3972 32.1317 19.1692 32.1757C18.1909 32.3884 17.6245 33.0703 17.4994 34.1849C17.4994 34.2216 17.4185 35.4902 18.669 36.0035C18.8823 36.0914 19.0147 36.2968 19 36.5241C18.9927 36.7514 18.8382 36.9421 18.6175 37.0081C17.698 37.2867 17.1978 37.9833 17.1243 39.0759C17.1243 39.1126 17.1022 40.3591 18.338 40.8211C18.5587 40.9018 18.6984 41.1144 18.6837 41.3491C18.669 41.5837 18.5145 41.7817 18.2865 41.8404C17.4038 42.075 16.8889 42.7276 16.7418 43.7836C16.7418 43.8129 16.6461 44.9128 17.6245 45.4994C17.8157 45.6168 17.9187 45.8367 17.8746 46.0567C17.8304 46.2767 17.6612 46.4454 17.4406 46.4894C16.7123 46.6214 16.1754 47.12 15.837 47.9559C15.8296 47.9853 15.4692 49.0192 16.2636 49.8185C16.4181 49.9725 16.4622 50.2144 16.3666 50.4124C16.2783 50.6104 16.065 50.7351 15.8517 50.7277C15.1235 50.6837 14.5056 51.0284 13.9686 51.7617C13.9465 51.791 13.2919 52.7882 13.998 53.8075C14.1231 53.9908 14.1231 54.2401 13.998 54.4235C13.873 54.6068 13.6302 54.6874 13.4169 54.6288C12.6151 54.4015 11.8722 54.6581 11.1954 55.3987C11.1734 55.4281 10.3274 56.4473 11.1145 57.6279C11.2396 57.8186 11.2322 58.0679 11.0998 58.2439C10.96 58.4272 10.7247 58.5005 10.5113 58.4345C9.54035 58.1339 8.70914 58.4492 8.04711 59.3731C7.97355 59.4831 7.29681 60.5757 8.2825 61.6536C8.43697 61.8223 8.46639 62.0789 8.35606 62.2769C8.24572 62.4749 8.01033 62.5849 7.7823 62.5409C6.76719 62.3429 5.9654 62.7389 5.40635 63.7361C5.3475 63.8535 4.7811 65.0487 5.95068 66.024C6.12722 66.1706 6.18607 66.4126 6.10516 66.6253C6.02424 66.8379 5.81092 66.9772 5.58289 66.9699C4.5972 66.9332 3.89104 67.4392 3.47175 68.4731C3.42762 68.5978 3.0304 69.837 4.27354 70.651C4.4648 70.7756 4.55307 71.0103 4.50157 71.2376C4.44273 71.4576 4.25147 71.6189 4.01609 71.6336C2.94948 71.7069 2.2801 72.3302 2.02264 73.4741C2.02264 73.5181 1.79461 74.8013 3.04511 75.4393C3.25107 75.5419 3.36877 75.7619 3.33199 75.9892C3.30257 76.2166 3.13338 76.3999 2.90535 76.4439C1.91966 76.6419 1.33855 77.3165 1.19878 78.4311C1.18407 78.5631 1.11051 79.861 2.52284 80.3376C2.74352 80.4109 2.89064 80.6162 2.88328 80.8509C2.87593 81.0855 2.73616 81.2835 2.51549 81.3569C1.5298 81.6795 1.03695 82.4275 1.04431 83.5787C1.04431 83.6154 1.12523 84.9133 2.47135 85.2579C2.69203 85.3166 2.85386 85.5072 2.87593 85.7345C2.89064 85.9619 2.76559 86.1818 2.55227 86.2698C1.61807 86.6658 1.19143 87.4504 1.29441 88.587C1.30912 88.719 1.52244 90.0242 3.03775 90.1709C3.26579 90.1929 3.45704 90.3615 3.50853 90.5889C3.56002 90.8162 3.4644 91.0435 3.26579 91.1682C2.37573 91.7035 2.05942 92.5394 2.31688 93.654C2.32423 93.6906 2.69938 94.9739 4.13378 94.9812C4.36181 94.9812 4.56042 95.1205 4.63398 95.3332C4.70754 95.5458 4.64869 95.7805 4.47951 95.9272C3.94988 96.3818 3.42026 97.1957 3.95724 98.5083C4.01609 98.6329 4.58985 99.8209 6.07573 99.5276C6.29641 99.4836 6.5318 99.5862 6.64214 99.7842C6.75247 99.9822 6.73776 100.231 6.58329 100.407C5.93597 101.155 5.89184 102.028 6.45088 103.003C6.52444 103.113 7.26739 104.213 8.69443 103.715C8.9151 103.641 9.15785 103.715 9.29761 103.891C9.43737 104.074 9.44473 104.323 9.31968 104.514C9.09164 104.851 8.9666 105.196 8.92982 105.548C8.87832 106.105 9.09164 106.67 9.55507 107.227C9.58449 107.256 10.4746 108.224 11.7398 107.616C11.9457 107.52 12.1885 107.557 12.3503 107.718C12.5121 107.88 12.5563 108.122 12.4606 108.327C12.3209 108.628 12.2547 108.928 12.2547 109.222C12.2694 109.771 12.5416 110.292 13.0785 110.783C13.0785 110.783 13.667 111.304 14.4541 111.26C14.763 111.245 15.0646 111.135 15.3809 110.93C15.5722 110.805 15.8296 110.82 16.0135 110.959C16.1974 111.099 16.2636 111.348 16.1827 111.568C16.0577 111.898 16.0209 112.221 16.0577 112.514C16.1312 113.049 16.4622 113.533 17.0434 113.959C17.0434 113.959 17.5656 114.303 18.2203 114.303C18.6102 114.303 18.9853 114.171 19.3237 113.915C19.5002 113.775 19.7503 113.768 19.9416 113.893C20.1328 114.017 20.2284 114.244 20.177 114.457C20.1034 114.794 20.096 115.117 20.177 115.403C20.3094 115.938 20.6845 116.371 21.3171 116.73C21.3171 116.73 21.729 116.921 22.244 116.921C22.7589 116.921 23.2076 116.73 23.5827 116.364C23.7446 116.202 23.9947 116.166 24.2006 116.268C24.4066 116.371 24.5243 116.591 24.4949 116.818C24.4507 117.148 24.4801 117.456 24.5758 117.728C24.7597 118.234 25.1863 118.644 25.8483 118.93C25.8483 118.93 26.1941 119.062 26.6428 119.062C27.2386 119.062 27.7314 118.828 28.1066 118.358C28.2537 118.182 28.4965 118.116 28.7098 118.197C28.9231 118.278 29.0702 118.483 29.0629 118.718C29.0555 119.047 29.1144 119.341 29.232 119.597C29.4601 120.074 29.9235 120.419 30.6076 120.624C30.6076 120.624 30.8356 120.675 31.1446 120.675C31.6448 120.675 32.3436 120.536 32.8144 119.854C32.9468 119.671 33.1748 119.583 33.3955 119.641C33.6162 119.7 33.7706 119.891 33.7927 120.118C33.8148 120.426 33.903 120.697 34.0354 120.932C34.3076 121.387 34.8004 121.687 35.4993 121.834H35.514C35.514 121.834 35.6464 121.856 35.8376 121.856C36.4187 121.856 37.2132 121.68 37.6619 120.851C37.7722 120.653 37.9929 120.543 38.2136 120.573C38.4343 120.609 38.6182 120.778 38.6623 120.998C38.7211 121.291 38.8241 121.533 38.9712 121.739C39.2875 122.164 39.8025 122.421 40.516 122.494C40.5233 122.494 40.5527 122.494 40.6042 122.494C41.0382 122.494 42.0975 122.384 42.5535 121.328C42.6418 121.13 42.8331 121.005 43.0464 121.005L43.0685 121.013Z" fill="black"/>
<path d="M37.162 30.0354C34.1461 30.0354 31.6892 27.1756 31.6892 23.6705C31.6892 20.1655 34.1461 17.3057 37.162 17.3057C40.1779 17.3057 42.6348 20.1655 42.6348 23.6705C42.6348 27.1756 40.1779 30.0354 37.162 30.0354ZM37.162 18.3763C34.7345 18.3763 32.7632 20.7521 32.7632 23.6705C32.7632 26.589 34.7345 28.9648 37.162 28.9648C39.5894 28.9648 41.5608 26.589 41.5608 23.6705C41.5608 20.7521 39.5894 18.3763 37.162 18.3763Z" fill="black"/>
<path d="M38.7434 28.7007C40.4659 28.7007 41.8623 26.3697 41.8623 23.4944C41.8623 20.619 40.4659 18.2881 38.7434 18.2881C37.0209 18.2881 35.6245 20.619 35.6245 23.4944C35.6245 26.3697 37.0209 28.7007 38.7434 28.7007Z" fill="black"/>
<path d="M51.6898 30.0354C48.6739 30.0354 46.217 27.1756 46.217 23.6705C46.217 20.1655 48.6739 17.3057 51.6898 17.3057C54.7057 17.3057 57.1626 20.1655 57.1626 23.6705C57.1626 27.1756 54.7057 30.0354 51.6898 30.0354ZM51.6898 18.3763C49.2624 18.3763 47.291 20.7521 47.291 23.6705C47.291 26.589 49.2624 28.9648 51.6898 28.9648C54.1173 28.9648 56.0886 26.589 56.0886 23.6705C56.0886 20.7521 54.1173 18.3763 51.6898 18.3763Z" fill="black"/>
<path d="M53.2712 28.7007C54.9938 28.7007 56.3901 26.3697 56.3901 23.4944C56.3901 20.619 54.9938 18.2881 53.2712 18.2881C51.5487 18.2881 50.1523 20.619 50.1523 23.4944C50.1523 26.3697 51.5487 28.7007 53.2712 28.7007Z" fill="black"/>
<path d="M44.4884 37.4119C46.9746 37.4119 48.9902 35.58 48.9902 33.3202C48.9902 31.0604 46.9746 29.2285 44.4884 29.2285C42.0021 29.2285 39.9866 31.0604 39.9866 33.3202C39.9866 35.58 42.0021 37.4119 44.4884 37.4119Z" fill="#F1614E"/>
<path d="M44.4883 37.9474C41.7078 37.9474 39.4421 35.8722 39.4421 33.3204C39.4421 30.7685 41.7078 28.6934 44.4883 28.6934C47.2688 28.6934 49.5344 30.7685 49.5344 33.3204C49.5344 35.8722 47.2688 37.9474 44.4883 37.9474ZM44.4883 29.7639C42.3036 29.7639 40.5235 31.3552 40.5235 33.313C40.5235 35.2709 42.3036 36.8621 44.4883 36.8621C46.673 36.8621 48.4531 35.2709 48.4531 33.313C48.4531 31.3552 46.673 29.7639 44.4883 29.7639Z" fill="black"/>
<path d="M65.4011 89.0573C64.9818 89.0573 64.5037 88.9254 63.9962 88.5514C62.3411 87.3561 63.5474 84.841 63.6063 84.731L64.6288 82.0619C67.2842 73.4751 63.8711 65.9957 63.8343 65.9223C63.7093 65.651 63.827 65.3357 64.0918 65.2111C64.3566 65.0864 64.6803 65.2037 64.8053 65.4677C64.9524 65.7904 68.4244 73.4018 65.6365 82.4065L64.5846 85.1563C64.5552 85.215 63.7166 87.0262 64.6214 87.6788C65.4968 88.3094 66.0043 87.7448 66.0558 87.6788C66.0705 87.6568 66.0926 87.6348 66.1146 87.6201C66.1294 87.6055 67.6594 86.2049 68.1522 83.5577C68.2037 83.2644 68.4906 83.0738 68.7775 83.1324C69.0717 83.1838 69.263 83.4698 69.2041 83.7557C68.6671 86.6009 67.1003 88.1627 66.8502 88.3974C66.5854 88.698 66.0632 89.05 65.3864 89.05L65.4011 89.0573Z" fill="black"/>
<path d="M71.1238 90.8755C71.0061 90.8755 70.8958 90.8608 70.7781 90.8388C69.6894 90.6188 69.1525 89.4089 69.0936 89.2696C68.9833 88.9983 69.1083 88.683 69.3878 88.5656C69.66 88.4483 69.9763 88.5803 70.0867 88.8516C70.1749 89.0643 70.5354 89.6949 70.9914 89.7829C71.2857 89.8415 71.624 89.6802 72.0139 89.2989C73.5071 87.847 77.1189 80.4482 74.2133 65.9879C74.1545 65.6946 74.3457 65.416 74.6326 65.3573C74.9268 65.2986 75.2063 65.4893 75.2652 65.7753C78.2738 80.7782 74.4781 88.3896 72.7568 90.0615C72.2125 90.5895 71.6608 90.8608 71.1091 90.8608L71.1238 90.8755Z" fill="black"/>
<path d="M25.8559 89.0573C25.1791 89.0573 24.6569 88.7054 24.392 88.4047C24.1493 88.1774 22.5751 86.6082 22.0382 83.7631C21.9867 83.4697 22.1779 83.1911 22.4648 83.1398C22.759 83.0884 23.0386 83.2791 23.0901 83.5651C23.5903 86.2342 25.1129 87.6128 25.1276 87.6274C25.1497 87.6421 25.1644 87.6641 25.1865 87.6861C25.3115 87.8328 25.8044 88.2727 26.6209 87.6861C27.533 87.0262 26.6871 85.2223 26.6797 85.2076L25.6205 82.4505C22.8252 73.4091 26.2899 65.7977 26.4443 65.475C26.5694 65.2037 26.8857 65.0864 27.1579 65.2184C27.43 65.343 27.5477 65.6584 27.4227 65.9297C27.3859 66.003 23.9801 73.5045 26.6429 82.1058L27.6728 84.7896C27.7022 84.8483 28.9159 87.3708 27.2608 88.566C26.7533 88.9327 26.2752 89.072 25.8559 89.072V89.0573Z" fill="black"/>
<path d="M20.1404 90.8757C19.5887 90.8757 19.037 90.6118 18.4927 90.0765C16.7788 88.4046 12.9758 80.7931 15.9843 65.7902C16.0432 65.4969 16.3227 65.3136 16.6169 65.3722C16.9112 65.4309 17.0951 65.7096 17.0362 66.0029C14.138 80.4632 17.7424 87.862 19.2356 89.3139C19.6255 89.6878 19.9639 89.8491 20.2581 89.7978C20.7142 89.7098 21.0746 89.0792 21.1629 88.8666C21.2806 88.5952 21.5895 88.4632 21.869 88.5806C22.1412 88.6979 22.2736 89.0059 22.1559 89.2772C22.0971 89.4165 21.5674 90.6264 20.4714 90.8464C20.3611 90.8684 20.2434 90.8831 20.1257 90.8831L20.1404 90.8757Z" fill="black"/>
<path d="M49.6668 48.3597C59.5311 47.9564 61.5024 45.0086 61.5024 45.0086C61.5024 45.0086 62.981 43.5347 62.4881 41.4815C61.9953 39.4283 60.6492 38.981 60.6492 38.981C60.6492 38.981 58.8985 38.0864 55.8973 39.157C52.8961 40.2276 46.8422 40.4623 46.8422 40.4623H42.5463C42.5463 40.4623 36.4925 40.2276 33.4913 39.157C30.4901 38.0864 28.7394 38.981 28.7394 38.981C28.7394 38.981 27.3932 39.4283 26.9004 41.4815C26.4075 43.5347 27.8861 45.0086 27.8861 45.0086C27.8861 45.0086 29.8574 47.9564 39.7217 48.3597H49.6742H49.6668Z" fill="#F1614E"/>
<path d="M49.6743 48.8951H39.7144C30.24 48.5065 27.7905 45.7714 27.4669 45.3534C27.2315 45.1041 25.8486 43.5202 26.3708 41.3497C26.8857 39.2158 28.2539 38.5852 28.5187 38.4752C28.7983 38.3432 30.6667 37.5733 33.6605 38.6439C36.5514 39.6778 42.4949 39.9198 42.5611 39.9198H46.8349C46.8717 39.9198 52.8226 39.6778 55.7134 38.6439C58.7146 37.5733 60.583 38.3506 60.8552 38.4752C61.12 38.5779 62.4882 39.2085 63.0031 41.3497C63.5254 43.5202 62.1425 45.1041 61.9071 45.3534C61.5908 45.7714 59.1339 48.5065 49.6816 48.8951H49.6743ZM30.6667 39.1645C29.5853 39.1645 28.9822 39.4505 28.9748 39.4505L28.9013 39.4798C28.8645 39.4945 27.8273 39.8905 27.4154 41.599C27.0034 43.3222 28.2098 44.5761 28.2613 44.6275L28.3275 44.7081C28.3275 44.7081 30.3871 47.4433 39.7365 47.8246H49.6522C58.9868 47.4433 61.0317 44.7301 61.0538 44.7008L61.1127 44.6275C61.1641 44.5761 62.3705 43.3295 61.9586 41.599C61.5467 39.8905 60.5095 39.4945 60.4653 39.4798L60.3991 39.4505C60.3991 39.4505 58.7882 38.6879 56.0739 39.6558C53.0285 40.7411 47.1071 40.983 46.857 40.9904H42.5391C42.2669 40.983 36.3454 40.7411 33.3001 39.6558C32.2408 39.2818 31.3581 39.1645 30.6667 39.1645Z" fill="black"/>
<path d="M44.7385 44.8107C36.6691 44.8107 30.5932 43.2488 30.5049 43.2268C30.218 43.1535 30.0488 42.8602 30.1224 42.5742C30.196 42.2882 30.4902 42.1196 30.7771 42.1929C30.9095 42.2296 44.3193 45.6687 57.6702 42.1929C57.9571 42.1196 58.2513 42.2882 58.3249 42.5742C58.3984 42.8602 58.2292 43.1535 57.9423 43.2268C53.3743 44.4147 48.8063 44.8107 44.7385 44.8107Z" fill="black"/>
</g>
<defs>
<clipPath id="clip0_1062_4313">
<rect width="92" height="68" fill="white"/>
</clipPath>
</defs>
</svg>
