<svg width="187" height="30" viewBox="0 0 187 30" fill="none" xmlns="http://www.w3.org/2000/svg">
<g clip-path="url(#clip0_1062_3922)">
<path d="M87.9617 0H70.1919V30H87.9617V0Z" fill="#EEB429"/>
<path d="M14.9826 0C6.70802 0 0 6.71629 0 15.0011C0 23.2859 6.70802 30.0022 14.9826 30.0022H70.1916V0H14.9826Z" fill="#1A5F9C"/>
<path d="M172.018 -0.000751197H87.9595V29.9992H172.018C180.292 29.9992 187 23.283 187 14.9982C187 6.71336 180.292 -0.00292969 172.018 -0.00292969V-0.000751197Z" fill="#05BED5"/>
<path d="M83.2136 22.1644C82.1388 22.1644 81.6405 21.9945 81.0139 21.293C80.0587 21.9945 78.899 22.4541 77.5456 22.4541C75.1762 22.4541 73.2354 21.1057 73.2354 18.6309C73.2354 16.7334 74.4299 15.5549 75.8594 14.3436L75.4177 13.7097C74.6475 12.4984 74.1514 11.6989 74.1514 10.7927C74.1514 8.74272 76.0465 7.44434 78.4007 7.44434C80.7549 7.44434 82.4456 8.673 82.4456 10.5879C82.4456 11.9538 81.6927 13.1651 79.8041 14.5462L79.5104 14.7662L81.0487 16.9534C81.2184 16.6136 81.3707 16.2738 81.4904 15.9121C81.7798 15.0277 82.5652 14.7009 83.3507 14.9383C84.1362 15.1823 84.4255 15.9296 84.1536 16.7857C83.8925 17.5569 83.453 18.5132 82.8176 19.4021C83.0047 19.5894 83.1462 19.6221 83.3833 19.6221H83.8424C84.7976 19.6221 85.211 20.2844 85.211 20.9183C85.211 21.4629 84.7976 22.1644 83.8424 22.1644H83.2136ZM79.3233 19.0383L77.4629 16.5112C76.8515 17.0711 76.3707 17.6048 76.3707 18.2736C76.3707 19.1581 77.0213 19.5546 77.9438 19.5546C78.3855 19.5546 78.8664 19.3672 79.3233 19.0383ZM77.7719 12.3263L78.0439 12.7163L78.4007 12.444C79.1187 11.8667 79.4255 11.3852 79.4255 10.8755C79.4255 10.3657 79.0013 9.98664 78.3507 9.98664C77.7001 9.98664 77.2584 10.5138 77.2584 11.0802C77.2584 11.5551 77.4956 11.919 77.7741 12.3263H77.7719Z" fill="white"/>
<path d="M23.9082 12.9038C23.9082 11.8058 24.1062 10.8843 24.5022 10.1371C24.8982 9.38988 25.4073 8.79079 26.0318 8.33767C26.6563 7.88454 27.3482 7.55777 28.1075 7.3617C28.8647 7.16346 29.6023 7.06543 30.316 7.06543C31.0166 7.06543 31.7476 7.16346 32.507 7.3617C33.2642 7.55995 33.9583 7.88454 34.5827 8.33767C35.2072 8.79079 35.7207 9.39206 36.1232 10.1371C36.5257 10.8843 36.7259 11.8058 36.7259 12.9038V17.0974C36.7259 18.1953 36.5257 19.119 36.1232 19.8641C35.7207 20.6113 35.2072 21.2104 34.5827 21.6635C33.9583 22.1166 33.2664 22.4434 32.507 22.6395C31.7476 22.8377 31.0188 22.9357 30.316 22.9357C29.6132 22.9357 28.8843 22.8377 28.1271 22.6395C27.3677 22.4412 26.6758 22.1166 26.0514 21.6635C25.4269 21.2104 24.9134 20.6091 24.5109 19.8641C24.1084 19.1168 23.9082 18.1953 23.9082 17.0974V12.9038ZM32.8225 12.7883C32.8225 12.3657 32.7485 12.0019 32.6027 11.6969C32.4548 11.3919 32.2611 11.137 32.0196 10.9323C31.7781 10.7275 31.5105 10.5772 31.2168 10.4813C30.923 10.3854 30.6249 10.3375 30.3181 10.3375C30.0114 10.3375 29.7133 10.3854 29.4195 10.4813C29.1258 10.5772 28.8582 10.7275 28.6167 10.9323C28.3751 11.137 28.1793 11.3919 28.0335 11.6969C27.8856 12.0041 27.8138 12.3679 27.8138 12.7883V17.2107C27.8138 17.5941 27.8943 17.9383 28.0531 18.2454C28.212 18.5504 28.4121 18.8097 28.6558 19.021C28.8973 19.2323 29.1693 19.3913 29.4696 19.5003C29.7677 19.6092 30.0527 19.6636 30.3203 19.6636C30.5879 19.6636 30.8708 19.6092 31.1711 19.5003C31.4713 19.3913 31.7411 19.2323 31.9848 19.021C32.2263 18.8097 32.4265 18.5504 32.5875 18.2454C32.7463 17.9383 32.8268 17.5941 32.8268 17.2107V12.7883H32.8225Z" fill="white"/>
<path d="M21.7534 10.9126C21.3574 10.0064 20.8374 9.2766 20.1934 8.72108C19.5493 8.16557 18.8226 7.77126 18.0132 7.53381C17.2038 7.29853 16.3835 7.17871 15.5545 7.17871H11.1398C10.3565 7.17871 9.72119 7.81483 9.72119 8.59909V21.1733C9.72119 21.9576 10.3565 22.5937 11.1398 22.5937H15.5545C16.3835 22.5937 17.2016 22.4761 18.0132 22.2386C18.8226 22.0033 19.5493 21.6069 20.1934 21.0513C20.8374 20.4958 21.3574 19.766 21.7534 18.8598C22.1494 17.9535 22.3474 16.836 22.3474 15.5093V14.2632C22.3474 12.9365 22.1494 11.8189 21.7534 10.9126ZM18.444 15.8164C18.444 16.9405 18.1699 17.7989 17.6216 18.3914C17.0733 18.9861 16.3465 19.2824 15.4414 19.2824H14.1794C13.9618 19.2824 13.8161 19.2476 13.7399 19.1778C13.6638 19.1081 13.6246 18.9578 13.6246 18.7269V11.0477C13.6246 10.819 13.6638 10.6687 13.7399 10.5968C13.8161 10.5271 13.9618 10.4922 14.1794 10.4922H15.4414C16.3465 10.4922 17.0733 10.7885 17.6216 11.3832C18.1699 11.9779 18.444 12.8363 18.444 13.9582V15.8142V15.8164Z" fill="white"/>
<path d="M52.7461 12.9038C52.7461 11.8058 52.9441 10.8843 53.3401 10.1371C53.7361 9.38988 54.2452 8.79079 54.8697 8.33767C55.4941 7.88454 56.186 7.55777 56.9454 7.3617C57.7026 7.16346 58.4402 7.06543 59.1539 7.06543C59.8545 7.06543 60.5855 7.16346 61.3449 7.3617C62.1021 7.55995 62.7962 7.88454 63.4206 8.33767C64.0451 8.79079 64.5586 9.39206 64.9611 10.1371C65.3636 10.8843 65.5638 11.8058 65.5638 12.9038V17.0974C65.5638 18.1953 65.3636 19.119 64.9611 19.8641C64.5586 20.6113 64.0451 21.2104 63.4206 21.6635C62.7962 22.1166 62.1043 22.4434 61.3449 22.6395C60.5855 22.8377 59.8566 22.9357 59.1539 22.9357C58.4511 22.9357 57.7222 22.8377 56.965 22.6395C56.2056 22.4412 55.5137 22.1166 54.8893 21.6635C54.2648 21.2104 53.7513 20.6091 53.3488 19.8641C52.9463 19.1168 52.7461 18.1953 52.7461 17.0974V12.9038ZM61.6582 12.7883C61.6582 12.3657 61.5842 12.0019 61.4385 11.6969C61.2905 11.3919 61.0969 11.137 60.8553 10.9323C60.6138 10.7275 60.3462 10.5772 60.0525 10.4813C59.7587 10.3854 59.4606 10.3375 59.1539 10.3375C58.8471 10.3375 58.549 10.3854 58.2552 10.4813C57.9615 10.5772 57.6939 10.7275 57.4524 10.9323C57.2109 11.137 57.015 11.3919 56.8693 11.6969C56.7213 12.0041 56.6495 12.3679 56.6495 12.7883V17.2107C56.6495 17.5941 56.73 17.9383 56.8888 18.2454C57.0477 18.5504 57.2478 18.8097 57.4915 19.021C57.7331 19.2323 58.005 19.3913 58.3053 19.5003C58.6034 19.6092 58.8884 19.6636 59.156 19.6636C59.4237 19.6636 59.7065 19.6092 60.0068 19.5003C60.307 19.3913 60.5768 19.2323 60.8205 19.021C61.062 18.8097 61.2622 18.5504 61.4232 18.2454C61.5821 17.9383 61.6626 17.5941 61.6626 17.2107V12.7883H61.6582Z" fill="white"/>
<path d="M50.5923 10.9126C50.1963 10.0064 49.6763 9.2766 49.0322 8.72108C48.3882 8.16557 47.6615 7.77126 46.8521 7.53381C46.0427 7.29853 45.2224 7.17871 44.3934 7.17871H39.9787C39.1954 7.17871 38.5601 7.81483 38.5601 8.59909V21.1733C38.5601 21.9576 39.1954 22.5937 39.9787 22.5937H44.3934C45.2224 22.5937 46.0405 22.4761 46.8521 22.2386C47.6615 22.0033 48.3882 21.6069 49.0322 21.0513C49.6763 20.4958 50.1963 19.766 50.5923 18.8598C50.9883 17.9535 51.1863 16.836 51.1863 15.5093V14.2632C51.1863 12.9365 50.9883 11.8189 50.5923 10.9126ZM47.2829 15.8164C47.2829 16.9405 47.0087 17.7989 46.4604 18.3914C45.9121 18.9861 45.1854 19.2824 44.2803 19.2824H43.0183C42.8007 19.2824 42.6549 19.2476 42.5788 19.1778C42.5026 19.1081 42.4635 18.9578 42.4635 18.7269V11.0477C42.4635 10.819 42.5026 10.6687 42.5788 10.5968C42.6549 10.5271 42.8007 10.4922 43.0183 10.4922H44.2803C45.1854 10.4922 45.9121 10.7885 46.4604 11.3832C47.0087 11.9779 47.2829 12.8363 47.2829 13.9582V15.8142V15.8164Z" fill="white"/>
<path d="M92.7158 22.5862V10.1775C92.7158 7.97071 93.4012 7.14941 95.701 7.14941H102.078C103.19 7.14941 103.634 8.06438 103.634 8.85299C103.634 9.64161 103.208 10.4999 102.078 10.4999H97.2197C96.7759 10.4999 96.6606 10.5958 96.6606 11.0598V13.4758H101.584C102.696 13.4758 103.134 14.3907 103.134 15.1793C103.134 15.9679 102.714 16.8263 101.584 16.8263H96.6606V22.5818H92.7158V22.5862Z" fill="white"/>
<path d="M114.985 16.469L118.625 22.5862H114.293L111.421 17.4275H108.969V22.5862H105.043V10.1775C105.043 7.97071 105.729 7.14941 108.029 7.14941H111.553C114.869 7.14941 117.302 8.72011 117.302 12.1556V12.3843C117.302 14.2034 116.342 15.602 114.983 16.4668L114.985 16.469ZM108.971 14.1859H111.46C112.744 14.1859 113.416 13.3646 113.416 12.3865V12.2536C113.416 11.2733 112.744 10.4476 111.46 10.4476H109.53C109.086 10.4476 108.971 10.5435 108.971 11.0075V14.1881V14.1859Z" fill="white"/>
<path d="M119.556 8.99076C119.556 7.66842 120.477 7.06934 121.545 7.06934C122.613 7.06934 123.54 7.66624 123.54 8.99076V22.5889H119.558V8.99076H119.556Z" fill="white"/>
<path d="M129.226 13.1098H134.454C135.566 13.1098 136.01 14.0313 136.01 14.8025C136.01 15.5736 135.584 16.4298 134.454 16.4298H129.226V18.6758C129.226 19.1333 129.341 19.2291 129.779 19.2291H134.822C135.954 19.2291 136.371 20.094 136.371 20.8826C136.371 21.6712 135.934 22.5862 134.822 22.5862H128.286C125.986 22.5862 125.301 21.7584 125.301 19.5581V10.1775C125.301 7.97071 125.986 7.14941 128.286 7.14941H134.626C135.738 7.14941 136.182 8.06438 136.182 8.85299C136.182 9.64161 135.756 10.4999 134.626 10.4999H129.781C129.343 10.4999 129.228 10.5958 129.228 11.0598V13.1076L129.226 13.1098Z" fill="white"/>
<path d="M147.031 16.5458V8.89491C147.031 7.72506 147.857 7.06934 148.778 7.06934C149.698 7.06934 150.518 7.72506 150.518 8.89491V20.979C150.518 22.1489 149.502 22.7414 148.645 22.8176C147.725 22.8939 146.613 22.5323 146.13 21.7044L141.46 13.424V22.5889H137.973V9.02998C137.973 7.84052 139.008 7.21094 139.885 7.10855C140.806 7.0127 141.88 7.40047 142.357 8.22176L147.033 16.5458H147.031Z" fill="white"/>
<path d="M173.151 13.3281L174.091 13.6527C176.328 14.4543 177.807 16.1274 177.655 18.6C177.476 21.3209 175.335 22.9112 171.85 22.9112C170.142 22.9112 168.438 22.567 167.402 21.7414C166.678 21.1488 166.33 20.1141 166.906 19.2296C167.191 18.8091 167.744 18.5608 168.266 18.5434C168.934 18.5238 169.263 18.8288 169.626 19.0205C170.063 19.2884 170.662 19.5237 171.963 19.5237C173.018 19.5237 173.647 19.1555 173.664 18.3146C173.684 17.5827 172.42 17.0293 170.831 16.5283C170.527 16.4324 170.14 16.2799 169.911 16.1841C167.022 14.975 166.386 12.3499 167.039 10.3326C167.707 8.27832 169.587 7.08887 172.209 7.08887C174.204 7.08887 175.137 7.47664 175.849 7.85787C176.732 8.33496 177.341 9.29568 177.056 10.2172C176.808 11.0058 176.136 11.3108 175.412 11.3108C175.12 11.3108 174.7 11.1953 174.528 11.0624C174.071 10.7509 173.397 10.483 172.248 10.483C171.328 10.483 170.775 10.8511 170.755 11.6332C170.736 12.3456 171.619 12.803 173.151 13.3259V13.3281Z" fill="white"/>
<path d="M164.63 10.9126C164.234 10.0064 163.714 9.2766 163.07 8.72108C162.426 8.16557 161.7 7.77126 160.89 7.53381C160.081 7.29853 159.26 7.17871 158.431 7.17871H154.017C153.233 7.17871 152.598 7.81483 152.598 8.59909V21.1733C152.598 21.9576 153.233 22.5937 154.017 22.5937H158.431C159.26 22.5937 160.079 22.4761 160.89 22.2386C161.7 22.0033 162.426 21.6069 163.07 21.0513C163.714 20.4958 164.234 19.766 164.63 18.8598C165.026 17.9535 165.224 16.836 165.224 15.5093V14.2632C165.224 12.9365 165.026 11.8189 164.63 10.9126ZM161.321 15.8164C161.321 16.9405 161.047 17.7989 160.499 18.3914C159.95 18.9861 159.223 19.2824 158.318 19.2824H157.056C156.839 19.2824 156.693 19.2476 156.617 19.1778C156.541 19.1081 156.502 18.9578 156.502 18.7269V11.0477C156.502 10.819 156.541 10.6687 156.617 10.5968C156.693 10.5271 156.839 10.4922 157.056 10.4922H158.318C159.223 10.4922 159.95 10.7885 160.499 11.3832C161.047 11.9779 161.321 12.8363 161.321 13.9582V15.8142V15.8164Z" fill="white"/>
</g>
<defs>
<clipPath id="clip0_1062_3922">
<rect width="187" height="30" fill="white"/>
</clipPath>
</defs>
</svg>
